<?xml version="1.0" standalone="no"?>
<!DOCTYPE svg PUBLIC "-//W3C//DTD SVG 1.1//EN" "http://www.w3.org/Graphics/SVG/1.1/DTD/svg11.dtd" >
<svg>
<metadata>
Created by FontForge 20110222 at Thu Mar 20 07:55:08 2014
 By Orthosie Webhosting
Part of the digitally encoded machine readable outline data for producing the Typefaces provided is copyrighted (c) 2006 Linotype GmbH, www.linotype.com. All rights reserved. This software is the property of Linotype GmbH, and may not be reproduced, used, displayed, modified, disclosed or transferred without the express written approval of Linotype GmbH.  Copyright (c) 1988, 1990, 1993 Adobe Systems Incorporated. All Rights Reserved. Helvetica is a trademark of Heidelberger Druckmaschinen AG, exclusively licensed through Linotype GmbH, and may be registered in certain jurisdictions. This typeface is original artwork of Linotype Design Studio. The design may be protected in certain jurisdictions.
</metadata>
<defs>
<font id="HelveticaNeueLTCom36ThinItalic" horiz-adv-x="167" >
  <font-face 
    font-family="HelveticaNeueLTCom36ThinItalic"
    font-weight="250"
    font-style="italic"
    font-stretch="normal"
    units-per-em="1000"
    panose-1="2 11 4 3 2 2 2 9 2 4"
    ascent="714"
    descent="-286"
    x-height="514"
    cap-height="714"
    bbox="-169 -217 1075 949"
    underline-thickness="50"
    underline-position="-50"
    unicode-range="U+000D-FB02"
  />
<missing-glyph horiz-adv-x="512" 
d="M222 117v67h56v-67h-56zM225 234l-2 17q0 55 13 81t46 59q32 31 41 47.5t9 35.5q0 36 -22.5 60.5t-53.5 24.5t-53.5 -22t-28.5 -73l-50 8q7 71 44 104t91 33q53 0 88.5 -36t35.5 -95q0 -32 -12.5 -58.5t-50.5 -61.5q-37 -33 -43 -52t-6 -72h-46zM462 50v617h-412v-617
h412zM512 718v-718h-512v718h512z" />
    <glyph glyph-name="IJ" unicode="IJ" horiz-adv-x="668" 
d="M150 714h44l-151 -714h-44zM642 714h44l-105 -481q-13 -58 -28.5 -104.5t-41 -78.5t-65 -49.5t-99.5 -17.5q-36 0 -67.5 9.5t-55 29t-37 48.5t-13.5 68q0 22 2.5 44t7.5 43h44q-10 -43 -10 -90q0 -30 12 -52t32 -35.5t45.5 -20t52.5 -6.5q44 0 73.5 15.5t48.5 41.5
t30.5 60.5t19.5 72.5z" />
    <glyph glyph-name="ij" unicode="ij" horiz-adv-x="343" 
d="M142 714h38l-21 -103h-38zM100 514h38l-107 -514h-38zM318 714h38l-21 -103h-38zM276 514h38l-115 -555q-4 -18 -8.5 -42.5t-16.5 -47t-35 -38t-65 -15.5q-22 0 -41 3l7 34q10 -2 19.5 -3t20.5 -1q22 0 36 9.5t22.5 25.5t13.5 36.5t10 41.5z" />
    <glyph glyph-name="napostrophe" unicode="&#x22;n" horiz-adv-x="546" 
d="M129 514h38l-25 -112h2q34 57 86 90.5t122 33.5q29 0 55.5 -9.5t46.5 -28t32 -45t12 -59.5q0 -9 -1.5 -23t-4 -29t-5 -28.5t-4.5 -22.5l-63 -281h-38l63 280q1 7 4 20t5 27.5t4 29.5t2 26q0 49 -31.5 79.5t-89.5 30.5q-49 0 -87.5 -23t-67 -59.5t-47.5 -81t-28 -87.5
l-51 -242h-38zM120 681q14 3 23.5 10.5t14.5 22.5h-25l19 93h57l-17 -80q-6 -31 -25.5 -47.5t-50.5 -18.5z" />
    <glyph glyph-name="fi" unicode="fi" horiz-adv-x="389" 
d="M363 714h38l-21 -103h-38zM321 514h38l-107 -514h-38zM36 514h89l9 40q6 27 13.5 57t22 54.5t39.5 40.5t66 16q17 0 32 -1.5t22 -3.5l-7 -33q-9 2 -19.5 3.5t-20.5 1.5q-32 0 -51 -12.5t-30.5 -32t-17.5 -43.5t-11 -47l-9 -40h109l-7 -33h-109l-103 -481h-38l102 481h-88
z" />
    <glyph glyph-name="fl" unicode="fl" horiz-adv-x="389" 
d="M365 714h37l-150 -714h-38zM36 514h89l9 40q6 27 13.5 57t22 54.5t39.5 40.5t66 16q17 0 32 -1.5t22 -3.5l-7 -33q-9 2 -19.5 3.5t-20.5 1.5q-32 0 -51 -12.5t-30.5 -32t-17.5 -43.5t-11 -47l-9 -40h109l-7 -33h-109l-103 -481h-38l102 481h-88z" />
    <glyph glyph-name=".notdef" horiz-adv-x="512" 
d="M222 117v67h56v-67h-56zM225 234l-2 17q0 55 13 81t46 59q32 31 41 47.5t9 35.5q0 36 -22.5 60.5t-53.5 24.5t-53.5 -22t-28.5 -73l-50 8q7 71 44 104t91 33q53 0 88.5 -36t35.5 -95q0 -32 -12.5 -58.5t-50.5 -61.5q-37 -33 -43 -52t-6 -72h-46zM462 50v617h-412v-617
h412zM512 718v-718h-512v718h512z" />
    <glyph glyph-name=".null" horiz-adv-x="500" 
 />
    <glyph glyph-name=".null" horiz-adv-x="500" 
 />
    <glyph glyph-name="nonmarkingreturn" unicode="&#xd;" horiz-adv-x="0" 
 />
    <glyph glyph-name="space" unicode=" " horiz-adv-x="278" 
 />
    <glyph glyph-name="exclam" unicode="!" horiz-adv-x="204" 
d="M65 183l59 311l47 220h42l-47 -220l-72 -311h-29zM92 103l-23 -103h-50l23 103h50z" />
    <glyph glyph-name="quotedbl" unicode="&#x22;" horiz-adv-x="315" 
d="M243 714h38v-229h-38v229zM125 714h38v-229h-38v229z" />
    <glyph glyph-name="numbersign" unicode="#" horiz-adv-x="556" 
d="M190 264h169l24 173h-169zM217 690h33l-31 -220h169l31 220h33l-31 -220h110l-5 -33h-110l-24 -173h111l-5 -33h-111l-32 -231h-33l32 231h-169l-32 -231h-33l32 231h-117l5 33h117l24 173h-118l5 33h118z" />
    <glyph glyph-name="dollar" unicode="$" horiz-adv-x="556" 
d="M295 382q38 -13 73 -26.5t61.5 -34t42.5 -50t16 -74.5q0 -57 -21.5 -97.5t-56.5 -66.5t-79.5 -38t-91.5 -12q-7 0 -12.5 0.5t-12.5 0.5l-19 -92h-27l20 95q-55 9 -92 29t-59 47t-31 59t-9 64q0 23 3 53h38q-2 -11 -2.5 -23.5t-0.5 -29.5q0 -27 8.5 -52.5t27.5 -47.5
t49.5 -37.5t75.5 -22.5l66 327q-33 10 -64.5 22.5t-56 32.5t-39.5 49t-15 72q0 53 19 91t51 63t74 36.5t89 11.5h9q5 0 10 -1l15 76h27l-16 -78q78 -9 127.5 -52t49.5 -126q0 -5 -0.5 -15.5t-1.5 -22.5h-38q0 14 1 25.5t1 17.5q0 34 -11.5 58.5t-31.5 41t-46.5 26
t-56.5 12.5zM330 693q-44 0 -81.5 -9.5t-65 -28.5t-43 -48t-15.5 -68q0 -36 11.5 -60t31.5 -41t46.5 -27.5t55.5 -19.5zM222 22q5 -1 10 -1h10q36 0 73 10.5t67 31.5t49 53.5t19 77.5q0 34 -14 58.5t-37 41t-52.5 28t-59.5 20.5z" />
    <glyph glyph-name="percent" unicode="%" horiz-adv-x="759" 
d="M90 -34l532 758h41l-532 -758h-41zM527 -12q-66 0 -102 35.5t-36 101.5q0 38 12 77t34.5 70.5t56 51.5t75.5 20q62 0 98.5 -35.5t36.5 -98.5q0 -38 -11 -77.5t-33 -71.5t-55 -52.5t-76 -20.5zM522 21q37 0 64 17.5t44 45t25.5 61.5t8.5 66q0 48 -24.5 74t-72.5 26
q-36 0 -62.5 -18.5t-44 -47t-25.5 -62t-8 -64.5q0 -45 24.5 -71.5t70.5 -26.5zM191 379q37 0 64 17.5t44 45t25.5 61.5t8.5 66q0 48 -24.5 74t-72.5 26q-36 0 -62.5 -18.5t-44 -47t-25.5 -62t-8 -64.5q0 -45 24.5 -71.5t70.5 -26.5zM196 346q-66 0 -102 35.5t-36 101.5
q0 38 12 77t34.5 70.5t56 51.5t75.5 20q62 0 98.5 -35.5t36.5 -98.5q0 -38 -11 -77.5t-33 -71.5t-55 -52.5t-76 -20.5z" />
    <glyph glyph-name="ampersand" unicode="&#x26;" horiz-adv-x="593" 
d="M317 669q-23 0 -44.5 -8t-38 -22t-26 -34t-9.5 -45q0 -21 6 -41t15 -39t20 -37t21 -35q24 13 53 28t54 35t41.5 45t16.5 57q0 42 -30.5 69t-78.5 27zM420 162q8 12 16 28.5t15 34.5t12 35.5t8 30.5h38q-11 -47 -29 -90t-38 -72l83 -129h-45l-63 98q-40 -49 -89.5 -79.5
t-118.5 -30.5q-43 0 -79 12t-61.5 34t-40 54t-14.5 73q0 48 19.5 83t50 61t68.5 46t75 39q-11 19 -23 39.5t-21.5 41.5t-15.5 43t-6 45q0 39 13.5 66.5t36 44.5t52 24.5t60.5 7.5q36 0 62.5 -11t44 -29t26 -40t8.5 -43q0 -39 -17.5 -69t-44.5 -54t-59.5 -42.5t-62.5 -34.5z
M246 360q-32 -17 -66.5 -34.5t-63 -40.5t-46.5 -54t-18 -74q0 -29 12 -54t33.5 -43t50 -28.5t61.5 -10.5q24 0 50 7.5t50.5 21t46.5 33.5t40 46z" />
    <glyph glyph-name="quotesingle" unicode="'" horiz-adv-x="204" 
d="M128 714h38v-229h-38v229z" />
    <glyph glyph-name="parenleft" unicode="(" horiz-adv-x="241" 
d="M312 731q-112 -131 -170.5 -286.5t-58.5 -331.5q0 -67 9.5 -139.5t36.5 -157.5h-33q-20 57 -35.5 133t-15.5 184q0 80 15.5 162t45.5 159.5t73.5 148t99.5 128.5h33z" />
    <glyph glyph-name="parenright" unicode=")" horiz-adv-x="241" 
d="M-84 -184q112 131 170.5 286.5t58.5 331.5q0 67 -9.5 139.5t-36.5 157.5h33q20 -57 35.5 -133t15.5 -184q0 -80 -15.5 -162t-45.5 -159.5t-73.5 -148t-99.5 -128.5h-33z" />
    <glyph glyph-name="asterisk" unicode="*" horiz-adv-x="352" 
d="M83 619l17 24l106 -61l28 132h29l-28 -134l125 37l8 -28l-127 -37l68 -103l-25 -15l-72 109l-92 -99l-23 20l92 95z" />
    <glyph glyph-name="plus" unicode="+" horiz-adv-x="600" 
d="M281 504h38v-233h233v-38h-233v-233h-38v233h-233v38h233v233z" />
    <glyph glyph-name="comma" unicode="," horiz-adv-x="278" 
d="M-5 -93q15 4 25 14t17 23t11 27.5t7 28.5h-18l23 103h50l-23 -103q-5 -20 -11.5 -40t-18 -37t-28 -30t-41.5 -19z" />
    <glyph glyph-name="hyphen" unicode="-" horiz-adv-x="352" 
d="M49 253l9 38h217l-8 -38h-218z" />
    <glyph glyph-name="period" unicode="." horiz-adv-x="278" 
d="M37 0l23 103h50l-23 -103h-50z" />
    <glyph glyph-name="slash" unicode="/" horiz-adv-x="333" 
d="M-62 -17l410 748h43l-410 -748h-43z" />
    <glyph glyph-name="zero" unicode="0" horiz-adv-x="556" 
d="M226 -12q-60 0 -99 21.5t-61.5 56t-31 76t-8.5 82.5q0 44 7 96.5t22.5 106t39.5 103t57.5 88t77.5 61.5t99 23q54 0 92.5 -18.5t63 -50t36 -74.5t11.5 -92q0 -44 -7 -96.5t-22 -105.5t-39 -103t-58 -88.5t-79 -62t-101 -23.5zM218 21q51 0 91.5 22.5t71 59t52 83.5
t35.5 96.5t20 97.5t6 87q0 42 -8 79t-27 64.5t-50 43t-77 15.5q-63 0 -113 -38t-84.5 -100.5t-52.5 -142.5t-18 -164q0 -36 8 -72t26.5 -65.5t48 -47.5t71.5 -18z" />
    <glyph glyph-name="one" unicode="1" horiz-adv-x="556" 
d="M149 564q68 10 118 43.5t98 82.5h38l-148 -690h-44l133 619l-2 2q-48 -42 -99.5 -63t-100.5 -29z" />
    <glyph glyph-name="two" unicode="2" horiz-adv-x="556" 
d="M436 0h-452q3 50 23.5 89.5t52 71t70.5 57t79 47.5q51 28 100 54t87 56t61 65t23 81q0 68 -42.5 108t-111.5 40q-46 0 -81.5 -16t-61 -43.5t-40 -65.5t-17.5 -82h-38q2 52 19 96.5t48 76t74 49.5t96 18q41 0 76.5 -12t61.5 -35t40.5 -56t14.5 -76q0 -50 -19 -87t-50 -66
t-71 -52t-81 -45q-43 -23 -86 -47t-80 -52.5t-64 -63t-38 -77.5h413z" />
    <glyph glyph-name="three" unicode="3" horiz-adv-x="556" 
d="M95 483q7 48 25.5 88t48 69.5t69.5 45.5t90 16q38 0 73.5 -11t62.5 -32.5t43 -53t16 -72.5q0 -36 -12 -66.5t-33.5 -53t-51 -36t-64.5 -16.5v-2q54 -9 84 -51t30 -97q0 -54 -19 -95t-53 -69.5t-79.5 -43t-98.5 -15.5q-96 1 -153.5 52.5t-57.5 152.5q0 9 1 18.5t2 18.5h38
q-3 -18 -3 -37q0 -81 46 -126.5t134 -45.5q42 0 79.5 13t65 36.5t44 57t16.5 75.5q0 45 -15 72.5t-41.5 42.5t-64 20.5t-82.5 5.5l7 33q39 0 81.5 4.5t78.5 20t59.5 45t23.5 80.5q0 35 -12.5 61.5t-34.5 44.5t-51 27t-62 9q-42 0 -74 -14.5t-56 -39.5t-39.5 -59t-22.5 -73
h-38z" />
    <glyph glyph-name="four" unicode="4" horiz-adv-x="556" 
d="M8 215l436 475h42l-103 -481h112l-8 -33h-111l-37 -176h-40l37 176h-336zM343 209l92 419h-2l-383 -419h293z" />
    <glyph glyph-name="five" unicode="5" horiz-adv-x="556" 
d="M184 690h358l-10 -33h-325l-92 -266l2 -2q26 33 72.5 53.5t93.5 20.5q46 0 83.5 -13t64 -38t41 -62t14.5 -85q0 -59 -18 -109.5t-51.5 -88t-81 -58.5t-105.5 -21q-54 0 -93 15.5t-64.5 39.5t-38 53t-13.5 57q-1 20 0 32.5t3 24.5h38q-2 -13 -2.5 -23.5t-0.5 -24.5
q0 -20 9 -44.5t29 -46t52.5 -36t80.5 -14.5q51 0 91.5 19.5t68.5 52.5t43 75.5t15 89.5q0 40 -13 71.5t-35.5 54t-52.5 34.5t-64 12q-58 0 -103.5 -23.5t-75.5 -68.5l-41 2z" />
    <glyph glyph-name="six" unicode="6" horiz-adv-x="556" 
d="M488 515q0 78 -40 116t-116 38q-43 0 -76.5 -15.5t-60 -42t-46.5 -60.5t-34.5 -71t-24 -74.5t-16.5 -69.5l2 -2q30 60 82.5 91t119.5 31q45 0 82.5 -15t64.5 -42t42 -64.5t15 -82.5q0 -53 -17 -100.5t-48.5 -84t-76 -58t-100.5 -21.5t-96.5 17.5t-66.5 48.5t-38.5 74.5
t-12.5 94.5q0 45 7.5 98t23 106t40 102.5t59 88t80 61.5t102.5 23q88 0 138 -48t50 -139h-38zM241 21q49 0 87 19.5t63.5 52t39 74t13.5 86.5q0 40 -13.5 71.5t-37 53.5t-56 33.5t-70.5 11.5q-45 0 -82.5 -18.5t-64.5 -49.5t-41.5 -71.5t-14.5 -83.5q0 -40 12.5 -73
t35.5 -56.5t55.5 -36.5t73.5 -13z" />
    <glyph glyph-name="seven" unicode="7" horiz-adv-x="556" 
d="M124 690h437l-9 -38q-137 -140 -240 -303.5t-163 -348.5h-44q27 92 69 179.5t94.5 170t114 159.5t128.5 148h-395z" />
    <glyph glyph-name="eight" unicode="8" horiz-adv-x="556" 
d="M329 669q-35 0 -68.5 -9.5t-59 -28.5t-41 -48t-15.5 -67q0 -35 13 -59.5t35 -40.5t51 -23.5t60 -8.5q36 0 69 9t58 28t39.5 48.5t14.5 69.5q0 33 -13 57.5t-34.5 40.5t-50 24t-58.5 8zM235 -12q-43 0 -83 11.5t-70.5 34.5t-49 57.5t-18.5 81.5t15 82.5t42 60.5t63.5 39
t79.5 19v2q-22 6 -41.5 19t-34 31t-23 40t-8.5 46q0 48 18 83.5t49 59t71 35.5t84 12q37 0 72 -10.5t62 -30.5t43.5 -51t16.5 -71q0 -36 -12.5 -66.5t-34 -53t-51.5 -36.5t-65 -17v-2q62 -17 94 -59.5t32 -107.5q0 -51 -22 -90t-57 -65.5t-80.5 -40t-91.5 -13.5zM237 21
q42 0 80.5 11.5t67.5 35t46 57.5t17 79q0 40 -17 68t-44 45.5t-61.5 25.5t-70.5 8q-40 0 -76.5 -11t-64.5 -33t-45 -54t-17 -75q0 -40 15 -69.5t40.5 -49t59 -29t70.5 -9.5z" />
    <glyph glyph-name="nine" unicode="9" horiz-adv-x="556" 
d="M315 669q-49 0 -87 -20t-63.5 -53t-39 -75t-13.5 -86q0 -39 13.5 -70.5t37 -53t56 -33t70.5 -11.5q45 0 82 18.5t64 49.5t42 71t15 82q0 39 -12.5 72t-35.5 57.5t-56 38t-73 13.5zM68 173q0 -77 41.5 -114.5t114.5 -37.5q41 0 74 16t59.5 42.5t47.5 61t36.5 71.5
t26.5 74.5t19 69.5l-2 2q-34 -59 -87 -91.5t-120 -32.5q-45 0 -82.5 14.5t-64.5 41.5t-42 64t-15 82q0 52 17 100.5t48.5 85t76 58.5t100.5 22t96.5 -18t66.5 -49.5t38.5 -75t12.5 -94.5q0 -45 -7.5 -98t-23 -106t-40 -102.5t-59 -87t-80 -60.5t-102.5 -23q-88 0 -138 50
t-50 135h38z" />
    <glyph glyph-name="colon" unicode=":" horiz-adv-x="278" 
d="M37 0l23 103h50l-23 -103h-50zM129 411l23 103h50l-23 -103h-50z" />
    <glyph glyph-name="semicolon" unicode=";" horiz-adv-x="278" 
d="M129 411l23 103h50l-23 -103h-50zM-5 -93q15 4 25 14t17 23t11 27.5t7 28.5h-18l23 103h50l-23 -103q-5 -20 -11.5 -40t-18 -37t-28 -30t-41.5 -19z" />
    <glyph glyph-name="less" unicode="&#x3c;" horiz-adv-x="600" 
d="M554 472l-475 -218l475 -220v-42l-508 236v52l508 234v-42z" />
    <glyph glyph-name="equal" unicode="=" horiz-adv-x="600" 
d="M552 137h-504v38h504v-38zM552 331h-504v38h504v-38z" />
    <glyph glyph-name="greater" unicode="&#x3e;" horiz-adv-x="600" 
d="M46 34l475 218l-475 220v42l508 -236v-52l-508 -234v42z" />
    <glyph glyph-name="question" unicode="?" horiz-adv-x="519" 
d="M178 103h50l-23 -103h-50zM197 181q5 60 26.5 97.5t49.5 62.5t58.5 43t54.5 38q11 9 24 22t24.5 30t19 37.5t7.5 46.5q0 68 -41.5 101.5t-106.5 33.5q-45 0 -77.5 -15t-54.5 -41.5t-35 -63t-20 -79.5h-44q5 47 21.5 90t45 75.5t69.5 52t95 19.5q36 0 70.5 -10t61.5 -30.5
t43.5 -51t16.5 -71.5q0 -33 -7 -60t-22 -50t-39 -44t-58 -43t-56.5 -38.5t-38 -36t-25.5 -46.5t-18 -69h-44z" />
    <glyph glyph-name="at" unicode="@" horiz-adv-x="800" 
d="M513 264q-5 -16 -10.5 -32.5t-5.5 -27.5q0 -15 11.5 -24.5t27.5 -9.5q34 0 66.5 23.5t57.5 60.5t40.5 82t15.5 87q0 63 -26 113.5t-68 86.5t-96 55.5t-109 19.5q-69 0 -129.5 -27.5t-105.5 -75t-71.5 -110t-26.5 -132.5q0 -74 29 -136t76 -106.5t107 -69.5t123 -25
q41 0 81 11t75.5 30.5t65.5 47.5t53 63h44q-23 -43 -57.5 -77t-76.5 -58t-89.5 -37t-95.5 -13q-80 0 -148 29.5t-118 80.5t-78.5 120t-28.5 147q0 77 29.5 144.5t80 118t117.5 79.5t142 29q71 0 133 -23t107.5 -64.5t72 -98.5t26.5 -125q0 -57 -21 -109t-54.5 -91.5
t-74 -63.5t-79.5 -24q-26 0 -45.5 17.5t-20.5 53.5h-2q-24 -35 -58.5 -53t-75.5 -18q-29 0 -52.5 12t-40 32.5t-26 48t-9.5 57.5q0 52 17.5 105t49 96t74.5 70t95 27q24 0 43.5 -7.5t33.5 -20.5t23 -29t12 -34h2l23 71h41zM425 547q-42 0 -77.5 -26t-61 -65t-39.5 -84.5
t-14 -84.5q0 -56 29.5 -89t73.5 -33q29 0 60.5 22.5t55.5 56.5q14 20 26 44t20.5 48.5t13.5 48.5t5 44q0 14 -2.5 34t-12 39t-28 32t-49.5 13z" />
    <glyph glyph-name="A" unicode="A" horiz-adv-x="611" 
d="M365 714h46l133 -714h-44l-41 229h-345l-138 -229h-50zM137 267h315l-72 403z" />
    <glyph glyph-name="B" unicode="B" horiz-adv-x="630" 
d="M151 714h260q45 0 82.5 -6.5t65 -24t42.5 -48t15 -78.5q0 -76 -46 -125.5t-125 -58.5v-2q133 -21 133 -156q0 -37 -14 -75t-44.5 -69t-80 -51t-121.5 -20h-319zM51 38h267q51 0 91.5 13t68 37t42 57t14.5 73q0 73 -42 103.5t-135 30.5h-239zM126 390h239q95 0 151 42.5
t56 120.5q0 41 -12.5 65.5t-34.5 37t-52.5 16.5t-65.5 4h-220z" />
    <glyph glyph-name="C" unicode="C" horiz-adv-x="704" 
d="M647 494q-1 48 -18 85.5t-47 62.5t-69.5 38t-85.5 13q-81 0 -145 -36t-108 -94t-67.5 -132t-23.5 -149q0 -66 18 -115t51 -81.5t78 -48.5t99 -16q50 0 95.5 17.5t83 48.5t64 72t38.5 89h44q-12 -57 -43 -106t-75.5 -84t-98.5 -55t-112 -20q-53 0 -104.5 15.5t-92 51.5
t-65 93.5t-24.5 141.5q0 51 11 104t33 102.5t54.5 93t75.5 76t96.5 51.5t116.5 19q61 0 111 -17t84.5 -48.5t52.5 -75t17 -96.5h-44z" />
    <glyph glyph-name="D" unicode="D" horiz-adv-x="685" 
d="M51 38h206q62 0 111.5 17t87.5 46.5t65.5 68.5t45 82t26 87.5t8.5 86.5q0 61 -12 108t-39 78.5t-71 47.5t-108 16h-185zM150 714h231q72 0 122 -19t81.5 -56t46 -90.5t14.5 -122.5q0 -77 -25 -153t-74 -137t-120 -98.5t-164 -37.5h-263z" />
    <glyph glyph-name="E" unicode="E" horiz-adv-x="556" 
d="M149 714h466l-9 -38h-421l-60 -286h392l-7 -38h-393l-66 -314h434l-8 -38h-478z" />
    <glyph glyph-name="F" unicode="F" horiz-adv-x="519" 
d="M148 714h448l-8 -38h-404l-60 -286h362l-7 -38h-363l-73 -352h-44z" />
    <glyph glyph-name="G" unicode="G" horiz-adv-x="741" 
d="M657 498q-8 96 -63 145.5t-167 49.5q-81 0 -145 -36t-108 -94t-67.5 -132t-23.5 -149q0 -66 18 -115t51 -81.5t78 -48.5t99 -16q73 0 127 26t92 67.5t60.5 93.5t33.5 104h-262l8 38h300l-74 -350h-33l33 147h-4q-24 -38 -52 -68.5t-62.5 -51.5t-76.5 -32.5t-94 -11.5
q-53 0 -104.5 15.5t-92 51.5t-65 93.5t-24.5 141.5q0 51 11 104t33 102.5t54.5 93t75.5 76t96.5 51.5t116.5 19q57 0 105.5 -13.5t85 -42t59 -72.5t25.5 -105h-44z" />
    <glyph glyph-name="H" unicode="H" horiz-adv-x="667" 
d="M152 714h44l-69 -324h445l69 324h44l-153 -714h-44l76 352h-445l-76 -352h-44z" />
    <glyph glyph-name="I" unicode="I" horiz-adv-x="185" 
d="M150 714h44l-151 -714h-44z" />
    <glyph glyph-name="J" unicode="J" horiz-adv-x="481" 
d="M455 714h44l-105 -481q-13 -58 -28.5 -104.5t-41 -78.5t-65 -49.5t-99.5 -17.5q-36 0 -67.5 9.5t-55 29t-37 48.5t-13.5 68q0 22 2.5 44t7.5 43h44q-10 -43 -10 -90q0 -30 12 -52t32 -35.5t45.5 -20t52.5 -6.5q44 0 73.5 15.5t48.5 41.5t30.5 60.5t19.5 72.5z" />
    <glyph glyph-name="K" unicode="K" horiz-adv-x="611" 
d="M149 714h44l-84 -400l2 -2l507 402h63l-384 -302l275 -412h-50l-257 387l-169 -133l-53 -254h-44z" />
    <glyph glyph-name="L" unicode="L" horiz-adv-x="500" 
d="M152 714h44l-145 -676h403l-8 -38h-447z" />
    <glyph glyph-name="M" unicode="M" horiz-adv-x="815" 
d="M152 714h60l135 -668h2l423 668h65l-155 -714h-44l151 670h-2l-425 -670h-43l-137 670h-2l-137 -670h-44z" />
    <glyph glyph-name="N" unicode="N" horiz-adv-x="685" 
d="M152 714h52l313 -670h2l139 670h44l-155 -714h-51l-315 670h-2l-136 -670h-44z" />
    <glyph glyph-name="O" unicode="O" horiz-adv-x="741" 
d="M39 288q0 85 27 164.5t76.5 141.5t120.5 99.5t158 37.5q70 0 124 -21t91 -60t56.5 -94.5t19.5 -124.5q0 -80 -26 -160t-75 -144t-119.5 -104t-158.5 -40q-70 0 -125 21.5t-92.5 61.5t-57 96.5t-19.5 125.5zM83 287q0 -59 16 -108t47.5 -84t77 -54.5t104.5 -19.5
q79 0 142 36t107 94t67.5 130.5t23.5 144.5q0 57 -15 106t-45.5 85t-76 56t-106.5 20q-78 0 -141 -33t-107.5 -89t-69 -129.5t-24.5 -154.5z" />
    <glyph glyph-name="P" unicode="P" horiz-adv-x="593" 
d="M119 356h250q42 0 79 12t64 35.5t43 58.5t16 80q0 48 -17 74.5t-46 40t-66.5 16.5t-79.5 3h-174zM43 0h-44l153 714h222q51 0 95 -6t76.5 -24.5t51 -52.5t18.5 -89q0 -59 -21 -101.5t-56.5 -69.5t-83 -40t-100.5 -13h-243z" />
    <glyph glyph-name="Q" unicode="Q" horiz-adv-x="741" 
d="M516 38q-38 -26 -84 -40.5t-99 -14.5q-70 0 -125 21.5t-92.5 61.5t-57 96.5t-19.5 125.5q0 85 27 164.5t76.5 141.5t120.5 99.5t158 37.5q70 0 124 -21t91 -60t56.5 -94.5t19.5 -124.5q0 -51 -11 -103t-32 -100.5t-52 -91t-71 -74.5l97 -90l-26 -28zM516 90
q36 28 64.5 66.5t48 82.5t29.5 92t10 95q0 57 -15 106t-45.5 85t-76 56t-106.5 20q-78 0 -141 -33t-107.5 -89t-69 -129.5t-24.5 -154.5q0 -59 16 -108t47.5 -84t77 -54.5t104.5 -19.5q45 0 83.5 12t73.5 34l-91 85l26 28z" />
    <glyph glyph-name="R" unicode="R" horiz-adv-x="630" 
d="M120 363h259q42 0 78.5 11.5t63.5 33t42.5 53.5t15.5 74q0 44 -13 71.5t-37 43t-57.5 21t-75.5 5.5h-210zM150 714h264q41 0 78.5 -7.5t66.5 -26.5t46.5 -52t17.5 -84q0 -44 -15 -81t-41.5 -63.5t-63.5 -42t-80 -16.5v-2q102 -17 102 -122q0 -37 -2.5 -75t-2.5 -71
q0 -18 2.5 -36t8.5 -35h-44q-6 14 -7.5 31.5t-1.5 40.5q0 18 0.5 34t1 32.5t1 35t0.5 41.5q0 36 -11.5 58t-34 33.5t-54.5 15t-72 3.5h-197l-70 -325h-43z" />
    <glyph glyph-name="S" unicode="S" horiz-adv-x="630" 
d="M64 235q-1 -8 -1 -21v-21q0 -33 12 -64t37.5 -55t66 -38.5t97.5 -14.5q47 0 88.5 9.5t72.5 29.5t49 52.5t18 78.5q0 39 -19.5 65t-48.5 44t-63 29t-64 20q-34 10 -69 23t-63.5 33.5t-46.5 52t-18 79.5t21 84.5t56.5 61t82 36.5t96.5 12q48 0 91 -11t75.5 -33.5t51.5 -56
t19 -79.5q0 -10 -0.5 -18.5t-2.5 -22.5h-44q2 15 2.5 21.5t0.5 15.5q0 38 -16 65.5t-43 45.5t-62 26.5t-73 8.5q-36 0 -73.5 -8t-68 -26.5t-50 -48.5t-19.5 -73q0 -41 16.5 -66.5t44 -43t62.5 -28.5t72 -21q37 -11 72.5 -24t63 -34t44.5 -51.5t17 -75.5q0 -52 -21 -91
t-58 -65.5t-87 -40t-108 -13.5q-52 0 -98.5 13.5t-81 39t-55 63t-20.5 86.5q0 13 -0.5 25t0.5 25h45z" />
    <glyph glyph-name="T" unicode="T" horiz-adv-x="519" 
d="M54 676l9 38h548l-8 -38h-248l-143 -676h-44l143 676h-257z" />
    <glyph glyph-name="U" unicode="U" horiz-adv-x="667" 
d="M584 245q-15 -66 -38.5 -115t-60 -82t-87.5 -49t-121 -16q-49 0 -93 12.5t-77 38t-52 65t-19 93.5q0 22 4.5 50t9.5 50l90 422h44l-90 -422q-6 -30 -10 -52.5t-4 -54.5q0 -44 17.5 -75t46 -50.5t65.5 -29t75 -9.5q60 0 103 16.5t73.5 46t49.5 71t30 91.5l100 468h44z" />
    <glyph glyph-name="V" unicode="V" horiz-adv-x="574" 
d="M72 714h44l105 -670h2l394 670h44l-418 -714h-52z" />
    <glyph glyph-name="W" unicode="W" horiz-adv-x="907" 
d="M78 714h44l47 -664h2l330 664h55l52 -664h2l324 664h45l-354 -714h-49l-54 670h-2l-334 -670h-49z" />
    <glyph glyph-name="X" unicode="X" horiz-adv-x="556" 
d="M499 0h-44l-173 333l-306 -333h-48l339 368l-183 346h44l166 -317l291 317h48l-323 -351z" />
    <glyph glyph-name="Y" unicode="Y" horiz-adv-x="556" 
d="M255 300l-191 414h44l174 -378l322 378h55l-362 -421l-63 -293h-44z" />
    <glyph glyph-name="Z" unicode="Z" horiz-adv-x="537" 
d="M541 676h-454l9 38h502l-8 -38l-594 -638h489l-7 -38h-541l8 38z" />
    <glyph glyph-name="bracketleft" unicode="[" horiz-adv-x="241" 
d="M-15 -184l194 915h137l-6 -33h-100l-180 -849h100l-8 -33h-137z" />
    <glyph glyph-name="backslash" unicode="\" horiz-adv-x="333" 
d="M352 -17l-410 748h43l410 -748h-43z" />
    <glyph glyph-name="bracketright" unicode="]" horiz-adv-x="241" 
d="M232 731l-194 -915h-137l6 33h100l180 849h-100l8 33h137z" />
    <glyph glyph-name="asciicircum" unicode="^" horiz-adv-x="600" 
d="M519 237l-218 420l-220 -420h-42l236 453h52l234 -453h-42z" />
    <glyph glyph-name="underscore" unicode="_" horiz-adv-x="500" 
d="M0 -125v50h500v-50h-500z" />
    <glyph glyph-name="grave" unicode="`" 
d="M127 730l99 -140h-37l-110 140h48z" />
    <glyph glyph-name="a" unicode="a" horiz-adv-x="500" 
d="M58 366q20 86 77 123t144 37q19 0 46.5 -4.5t52.5 -18t42.5 -37t17.5 -62.5q0 -17 -5 -44.5t-11 -54.5t-11.5 -49t-6.5 -28q-5 -20 -10.5 -44t-11 -47t-9 -42.5t-3.5 -30.5q0 -14 7 -23.5t21 -9.5q8 0 17 2t17 4l-6 -34q-11 -3 -22.5 -4t-21.5 -1q-26 0 -38 18t-12 35
q0 8 3 20.5t5 22.5h-2q-15 -28 -38 -48t-49 -33t-54 -19t-53 -6q-33 0 -62 7.5t-50.5 24t-34 43t-12.5 63.5q0 49 19 80t50.5 48t72 23.5t84.5 7.5q54 2 90 7.5t58 17t31.5 30.5t9.5 48q0 48 -29.5 76.5t-99.5 28.5q-69 0 -113 -30.5t-61 -96.5h-39zM380 290h-2
q-11 -11 -31 -17.5t-43 -10.5t-46.5 -6.5t-39.5 -3.5q-36 -1 -71 -5t-62.5 -16.5t-44.5 -37.5t-17 -67q0 -29 11 -49t29 -32.5t41.5 -18t49.5 -5.5q46 0 80.5 16t59 43.5t41 63.5t27.5 76z" />
    <glyph glyph-name="b" unicode="b" horiz-adv-x="556" 
d="M240 21q57 0 99 28t70.5 71t42.5 95t14 99q0 39 -10 71.5t-29.5 56.5t-49 37.5t-69.5 13.5q-56 0 -99 -29.5t-71.5 -74t-43 -96t-14.5 -96.5q0 -30 11 -61.5t31.5 -57t50 -41.5t67.5 -16zM145 714h38l-65 -300h2q12 23 32 43.5t45 35.5t54.5 24t61.5 9q51 0 87 -16.5
t59.5 -45t34 -67.5t10.5 -84q0 -57 -17.5 -115t-51.5 -104.5t-83.5 -76t-113.5 -29.5q-67 0 -113 40t-63 105h-2l-29 -133h-38z" />
    <glyph glyph-name="c" unicode="c" horiz-adv-x="519" 
d="M454 168q-15 -40 -37 -73t-51.5 -57t-66 -37t-80.5 -13q-53 0 -90.5 16.5t-61.5 46t-35 69.5t-11 88q0 60 20 117t56.5 102t88 72t113.5 27q40 0 74.5 -12.5t59 -35t38 -54t10.5 -70.5h-38q0 65 -38.5 102t-105.5 37q-56 0 -100.5 -25.5t-75.5 -66.5t-47.5 -91.5
t-16.5 -99.5q0 -37 9 -71t28 -60.5t48.5 -42t70.5 -15.5q72 0 121.5 40.5t75.5 106.5h42z" />
    <glyph glyph-name="d" unicode="d" horiz-adv-x="556" 
d="M568 714l-152 -714h-38l27 115l-2 2q-29 -59 -77.5 -94t-117.5 -35q-48 0 -84.5 16t-61 44t-36.5 64.5t-12 77.5q0 58 17.5 118t53 108.5t88 79t122.5 30.5q66 0 111.5 -36t52.5 -100h2l69 324h38zM216 21q55 0 97.5 31.5t70.5 79.5t42.5 104t14.5 105q0 28 -9.5 55.5
t-27.5 49t-44.5 34.5t-59.5 13q-61 0 -107 -28t-77.5 -71t-47.5 -95.5t-16 -100.5q0 -34 7 -66t25.5 -56.5t50 -39.5t81.5 -15z" />
    <glyph glyph-name="e" unicode="e" horiz-adv-x="519" 
d="M432 285q2 13 3.5 23t1.5 20q0 33 -9.5 63t-28.5 52.5t-49 36t-70 13.5q-45 0 -81.5 -17t-63.5 -46t-45 -66.5t-27 -78.5h369zM57 252q-5 -28 -5 -56q0 -35 11 -67t31.5 -56t51 -38t69.5 -14q36 0 68.5 12.5t58 33t43 47.5t24.5 57h38q-11 -40 -32 -73.5t-51 -58
t-68.5 -38t-84.5 -13.5q-49 0 -86 16t-61.5 44t-37 65t-12.5 78q0 72 19 133t54 106t86 70.5t114 25.5q45 0 80 -15t59 -41.5t36.5 -63t12.5 -78.5q0 -20 -2 -38.5t-5 -37.5h-411z" />
    <glyph glyph-name="f" unicode="f" horiz-adv-x="241" 
d="M125 514l9 40q6 27 13.5 57t22 54.5t39.5 40.5t66 16q17 0 32 -1.5t22 -3.5l-7 -33q-9 2 -19.5 3.5t-20.5 1.5q-32 0 -51 -12.5t-30.5 -32t-17.5 -43.5t-11 -47l-9 -40h109l-7 -33h-109l-103 -481h-38l102 481h-88l7 33h89z" />
    <glyph glyph-name="g" unicode="g" horiz-adv-x="537" 
d="M279 493q-51 0 -91.5 -23.5t-68 -61t-42 -84.5t-14.5 -93q0 -83 38.5 -131t121.5 -48q52 0 91 26.5t65.5 67t39.5 89.5t13 94q0 47 -16 78.5t-39 50.5t-50 27t-48 8zM25 -36q0 -63 39.5 -95t101.5 -32q54 0 90 14.5t59.5 39.5t37 59.5t22.5 73.5l23 102h-2
q-29 -51 -74.5 -79t-106.5 -28q-48 0 -84 15t-59.5 43t-35 66t-11.5 85q0 54 17 107.5t49 96t79.5 68.5t107.5 26q34 0 65 -10.5t54.5 -29t37.5 -45t15 -58.5h2l29 131h38l-106 -490q-11 -53 -29 -93.5t-47.5 -69t-72.5 -43t-104 -14.5q-37 0 -69.5 10.5t-56 31t-36.5 50
t-11 68.5h38z" />
    <glyph glyph-name="h" unicode="h" horiz-adv-x="519" 
d="M144 714h38l-66 -308h2q34 54 86 87t121 33q29 0 55.5 -9.5t46.5 -28t32 -45t12 -59.5q0 -9 -1.5 -23t-4 -29t-5 -28.5t-4.5 -22.5l-63 -281h-38l63 280q1 7 4 20t5 27.5t4 29.5t2 26q0 49 -31.5 79.5t-89.5 30.5q-49 0 -87.5 -23t-67 -59.5t-47.5 -81t-28 -87.5
l-51 -242h-38z" />
    <glyph glyph-name="i" unicode="i" 
d="M142 714h38l-21 -103h-38zM100 514h38l-107 -514h-38z" />
    <glyph glyph-name="j" unicode="j" 
d="M142 714h38l-21 -103h-38zM100 514h38l-115 -555q-4 -18 -8.5 -42.5t-16.5 -47t-35 -38t-65 -15.5q-22 0 -41 3l7 34q10 -2 19.5 -3t20.5 -1q22 0 36 9.5t22.5 25.5t13.5 36.5t10 41.5z" />
    <glyph glyph-name="k" unicode="k" horiz-adv-x="463" 
d="M146 714h38l-102 -472l2 -2l345 274h57l-261 -205l184 -309h-48l-168 285l-122 -95l-40 -190h-38z" />
    <glyph glyph-name="l" unicode="l" 
d="M142 714h38l-149 -714h-38z" />
    <glyph glyph-name="m" unicode="m" horiz-adv-x="796" 
d="M104 514h38l-23 -107l2 -2q14 25 32.5 47t41.5 38.5t50 26t58 9.5q61 0 93.5 -34t32.5 -94h3q25 56 74.5 92t112.5 36q27 0 52 -8t44.5 -24t31 -38.5t11.5 -52.5q0 -24 -4 -47.5t-10 -50.5l-65 -305h-38l65 303q3 14 8.5 40t5.5 52q0 27 -10 46t-26 30.5t-36.5 16.5
t-42.5 5q-32 0 -62.5 -19t-56 -48.5t-43.5 -64.5t-25 -68l-63 -293h-38l63 293q5 20 8 47t3 51q0 49 -27 75.5t-73 26.5q-41 0 -75 -23.5t-60.5 -59t-44 -77t-25.5 -78.5l-55 -255h-38z" />
    <glyph glyph-name="n" unicode="n" horiz-adv-x="519" 
d="M102 514h38l-25 -112h2q34 57 86 90.5t122 33.5q29 0 55.5 -9.5t46.5 -28t32 -45t12 -59.5q0 -9 -1.5 -23t-4 -29t-5 -28.5t-4.5 -22.5l-63 -281h-38l63 280q1 7 4 20t5 27.5t4 29.5t2 26q0 49 -31.5 79.5t-89.5 30.5q-49 0 -87.5 -23t-67 -59.5t-47.5 -81t-28 -87.5
l-51 -242h-38z" />
    <glyph glyph-name="o" unicode="o" horiz-adv-x="537" 
d="M291 526q95 0 149 -53.5t54 -148.5q0 -59 -17.5 -119t-52 -108t-85.5 -78.5t-119 -30.5q-52 0 -91 15.5t-64.5 44t-38 68t-12.5 88.5q0 58 19 116t54.5 103.5t87 74t116.5 28.5zM299 493q-59 1 -105 -24.5t-77.5 -66.5t-48 -92.5t-16.5 -102.5q0 -39 9.5 -72.5t30 -59
t52 -40t75.5 -14.5q59 0 103.5 28.5t74 72.5t44.5 97.5t15 103.5q0 76 -38.5 122t-118.5 48z" />
    <glyph glyph-name="p" unicode="p" horiz-adv-x="556" 
d="M240 21q57 0 99 28t70.5 71t42.5 95t14 99q0 39 -10 71.5t-29.5 56.5t-49 37.5t-69.5 13.5q-56 0 -99 -29.5t-71.5 -74t-43 -96t-14.5 -96.5q0 -30 11 -61.5t31.5 -57t50 -41.5t67.5 -16zM102 514h38l-22 -100h2q12 23 32 43.5t45 35.5t54.5 24t61.5 9q51 0 87 -16.5
t59.5 -45t34 -67.5t10.5 -84q0 -57 -17.5 -115t-51.5 -104.5t-83.5 -76t-113.5 -29.5q-67 0 -113 40t-63 105h-2l-70 -317h-38z" />
    <glyph glyph-name="q" unicode="q" horiz-adv-x="556" 
d="M376 -184h-38l67 299l-2 2q-29 -59 -77.5 -94t-117.5 -35q-48 0 -84.5 16t-61 44t-36.5 64.5t-12 77.5q0 58 17.5 118t53 108.5t88 79t122.5 30.5q66 0 111.5 -36t52.5 -100h2l26 124h38zM216 21q55 0 97.5 31.5t70.5 79.5t42.5 104t14.5 105q0 28 -9.5 55.5t-27.5 49
t-44.5 34.5t-59.5 13q-61 0 -107 -28t-77.5 -71t-47.5 -95.5t-16 -100.5q0 -34 7 -66t25.5 -56.5t50 -39.5t81.5 -15z" />
    <glyph glyph-name="r" unicode="r" horiz-adv-x="278" 
d="M98 514h38l-28 -123h2q28 58 76.5 96.5t117.5 38.5q8 0 16 -0.5t16 -1.5l-11 -40q-8 2 -15.5 3t-15.5 1q-56 0 -94.5 -29t-64.5 -71.5t-41 -91.5t-24 -88l-45 -208h-38z" />
    <glyph glyph-name="s" unicode="s" horiz-adv-x="463" 
d="M36 175q0 -6 -0.5 -12t-0.5 -12q0 -72 46.5 -101t127.5 -29q21 0 45 7t45 21t34.5 34.5t13.5 47.5q0 28 -12.5 46.5t-33 32t-46.5 23t-52 18.5t-51.5 19.5t-45 26t-31.5 37t-12 53.5q0 36 16 62.5t42 43.5t58.5 25t65.5 8q36 0 68 -8.5t56 -24.5t38 -40.5t14 -55.5
q0 -9 -0.5 -17t-1.5 -21h-38q1 9 1.5 17t0.5 16q0 25 -11 44t-30 31.5t-44 19t-53 6.5q-23 0 -48 -5t-46.5 -17t-35.5 -31.5t-14 -48.5q0 -25 12.5 -42.5t32.5 -30.5t45.5 -22.5t51.5 -18.5q27 -9 52.5 -20t45.5 -26.5t32 -37t12 -51.5q0 -38 -16.5 -67t-43.5 -48.5t-61 -29
t-70 -9.5q-41 0 -77 8t-62.5 26t-42 47.5t-15.5 72.5v16t1 17h38z" />
    <glyph glyph-name="t" unicode="t" horiz-adv-x="259" 
d="M27 514h95l35 161h38l-35 -161h110l-8 -33h-108l-78 -358q-1 -3 -2 -9t-2.5 -13.5t-2.5 -14.5t-1 -10q0 -22 13.5 -32.5t44.5 -10.5q28 0 57 3l-7 -33q-10 0 -27 -1.5t-35 -1.5q-45 0 -64.5 20t-19.5 57q0 10 3 24t5 25l78 355h-97z" />
    <glyph glyph-name="u" unicode="u" horiz-adv-x="519" 
d="M378 0h-38l24 108l-2 2q-17 -29 -36 -51.5t-43 -38.5t-53.5 -24t-68.5 -8q-29 0 -55.5 9.5t-46.5 28t-32 45t-12 59.5q0 9 1.5 23t4 29t5 28.5t4.5 22.5l63 281h38l-63 -280q-2 -7 -4.5 -20t-4.5 -27.5t-4 -29.5t-2 -26q0 -49 31.5 -79.5t89.5 -30.5q46 0 83.5 23
t66 59.5t47 81t27.5 87.5l51 242h38z" />
    <glyph glyph-name="v" unicode="v" horiz-adv-x="426" 
d="M27 514h42l77 -470h2l263 470h45l-293 -514h-46z" />
    <glyph glyph-name="w" unicode="w" horiz-adv-x="704" 
d="M27 514h38l51 -470h2l238 470h51l47 -470h2l242 470h44l-274 -514h-46l-46 466h-2l-241 -466h-47z" />
    <glyph glyph-name="x" unicode="x" horiz-adv-x="426" 
d="M205 296l198 218h50l-228 -249l142 -265h-46l-127 237l-218 -237h-51l250 270l-129 244h47z" />
    <glyph glyph-name="y" unicode="y" horiz-adv-x="426" 
d="M-59 -148q19 -3 36 -3q37 0 59 21t40 50l50 80l-101 514h44l86 -463l262 463h45l-349 -604q-13 -23 -26 -40.5t-29 -29.5t-36 -18t-48 -6q-12 0 -22.5 1t-18.5 2z" />
    <glyph glyph-name="z" unicode="z" horiz-adv-x="426" 
d="M-44 38l430 438h-328l9 38h381l-10 -38l-433 -438h349l-8 -38h-397z" />
    <glyph glyph-name="braceleft" unicode="{" horiz-adv-x="333" 
d="M383 698h-48q-31 0 -46 -23t-27 -80l-33 -157q-11 -50 -26 -80.5t-31 -48t-29 -25t-19 -11.5q3 -3 10.5 -8t15 -15t13 -27t5.5 -44q0 -14 -2 -33t-6 -37l-33 -157q-4 -17 -6.5 -34t-2.5 -29q0 -22 10 -31t30 -9h49l-7 -33h-50q-33 0 -51.5 14t-18.5 51q0 11 2 26t4 27
l33 159q5 23 8 44.5t3 41.5q0 32 -11 53.5t-38 21.5l8 38q22 1 39 15.5t30 37t22 51.5t15 59l32 158q13 68 42 93t71 25h50z" />
    <glyph glyph-name="bar" unicode="|" horiz-adv-x="222" 
d="M92 786h38v-1000h-38v1000z" />
    <glyph glyph-name="braceright" unicode="}" horiz-adv-x="333" 
d="M-70 -151h48q31 0 46 23t27 80l33 157q10 50 25.5 80.5t31.5 48t29 25t19 10.5q-3 3 -10.5 8.5t-15 15.5t-13 27t-5.5 44q0 14 2 33t6 37l33 157q4 17 6.5 34t2.5 29q0 22 -10 31t-30 9h-49l7 33h50q33 0 51.5 -14t18.5 -51q0 -11 -2 -26t-4 -27l-33 -159
q-5 -23 -8 -44.5t-3 -41.5q0 -32 11 -53.5t38 -22.5l-8 -38q-22 -1 -39 -15t-30 -36.5t-22 -51.5t-15 -59l-32 -158q-14 -68 -42.5 -93t-70.5 -25h-50z" />
    <glyph glyph-name="asciitilde" unicode="~" horiz-adv-x="600" 
d="M528 284q-10 -15 -22 -30t-26.5 -27.5t-32.5 -20t-40 -7.5q-28 0 -54 10.5t-60 27.5q-8 4 -20 9.5t-24.5 10t-25 7.5t-22.5 3q-22 0 -38.5 -7t-28 -18.5t-19.5 -24.5t-13 -25l-29 30q23 38 49.5 60.5t72.5 22.5q30 0 53.5 -8.5t57.5 -23.5q21 -10 45.5 -23t56.5 -13
q15 0 28.5 7t25.5 18.5t22 24.5t16 25z" />
    <glyph glyph-name="uni00A0" unicode="&#xa0;" horiz-adv-x="278" 
 />
    <glyph glyph-name="exclamdown" unicode="&#xa1;" horiz-adv-x="204" 
d="M117 347l-59 -311l-47 -220h-42l47 220l72 311h29zM91 432l23 103h50l-23 -103h-50z" />
    <glyph glyph-name="cent" unicode="&#xa2;" horiz-adv-x="556" 
d="M461 358q0 60 -35.5 96.5t-96.5 38.5l-101 -471q5 -1 11 -1h12q23 0 48 7.5t49 24.5t45 44.5t37 66.5h42q-35 -82 -90.5 -129t-133.5 -47h-14q-6 0 -13 1l-22 -105h-27l22 108q-41 6 -70.5 24.5t-48.5 47t-27.5 65t-8.5 79.5q0 58 19 114t54 100t84.5 72.5t111.5 31.5
l19 88h27l-18 -88q72 -4 116.5 -45.5t46.5 -122.5h-38zM301 496q-53 -6 -94.5 -33.5t-70.5 -68.5t-44 -91t-15 -100q0 -31 7 -60.5t22 -54t38.5 -41.5t56.5 -23z" />
    <glyph glyph-name="sterling" unicode="&#xa3;" horiz-adv-x="556" 
d="M44 363h81q-14 38 -23 76.5t-9 77.5q0 52 20 92t53.5 67t76.5 41t89 14q42 0 78.5 -12t64 -36t44 -60.5t17.5 -85.5v-22t-2 -22h-38q0 11 1 20.5t1 22.5q-2 43 -15.5 73t-36.5 49t-55.5 27t-71.5 8q-40 0 -74.5 -13t-59.5 -37t-39.5 -57.5t-14.5 -74.5q0 -37 9.5 -76
t22.5 -72h163l-7 -33h-148q3 -14 6.5 -34.5t3.5 -42.5q0 -32 -11.5 -62t-29.5 -56.5t-41 -49.5t-46 -42l2 -2q21 11 40 17.5t45 6.5q28 0 51.5 -7t46.5 -15q24 -8 47 -15t49 -7q40 0 73.5 21t57.5 53l19 -32q-36 -42 -72.5 -61t-77.5 -19q-32 0 -57.5 7.5t-50.5 15.5
q-25 9 -50.5 15t-51.5 6q-29 0 -61 -13t-55 -31l-17 38q22 20 48.5 45t49.5 53.5t38.5 59.5t15.5 63q0 24 -2.5 46.5t-7.5 41.5h-94z" />
    <glyph glyph-name="currency" unicode="&#xa4;" horiz-adv-x="556" 
d="M278 135q41 0 78 16.5t65 45t44.5 66.5t16.5 82q0 43 -16.5 81.5t-44.5 67t-65 45t-78 16.5t-78 -16.5t-65 -45t-44.5 -67t-16.5 -81.5q0 -44 16.5 -82t44.5 -66.5t65 -45t78 -16.5zM492 104l-53 54q-35 -31 -77 -46t-85 -15t-84 15t-76 46l-55 -56l-27 27l56 55
q-30 35 -45 76.5t-16 84.5q0 43 15 84.5t46 76.5l-57 56l27 27l56 -56q35 29 76 44t84 16q43 0 85 -15t77 -46l54 55l27 -27l-55 -54q31 -35 46 -76.5t15 -84.5t-15 -84.5t-46 -75.5l54 -54z" />
    <glyph glyph-name="yen" unicode="&#xa5;" horiz-adv-x="556" 
d="M100 231h129l17 78h-140l7 33h122l-135 372h46l127 -368l283 368h50l-288 -372h120l-7 -33h-138l-5 -6l-15 -72h151l-7 -33h-152l-43 -198h-43l43 198h-129z" />
    <glyph glyph-name="brokenbar" unicode="&#xa6;" horiz-adv-x="222" 
d="M92 661h38v-250h-38v250zM92 161h38v-250h-38v250z" />
    <glyph glyph-name="section" unicode="&#xa7;" horiz-adv-x="556" 
d="M447 538q1 7 1 15v20q0 19 -3.5 41t-15.5 41t-35 31t-61 12q-25 0 -47.5 -6.5t-40 -21t-27.5 -37.5t-10 -56q0 -29 13.5 -53t25.5 -38q32 -32 68 -64.5t68 -64.5q10 -11 24 -26t27 -34.5t21.5 -43.5t8.5 -51q1 -31 -9.5 -56t-29.5 -43.5t-44 -30t-52 -15.5q14 -17 23 -40
t9 -45q0 -41 -14 -70.5t-37.5 -48.5t-54 -28t-63.5 -9q-75 0 -122.5 40.5t-47.5 112.5v20t1 21h38q0 -4 -0.5 -15t-0.5 -26q0 -18 6 -39t21 -39t41 -30t66 -12q22 0 44.5 6t41.5 20t31 36.5t12 55.5q0 35 -17.5 62.5t-40.5 47.5q-6 5 -21 19.5t-34 33t-38 37.5l-33 33
q-31 31 -55.5 65.5t-24.5 81.5q0 30 10.5 55.5t29.5 45t43.5 32.5t53.5 17q-26 37 -26 83q0 40 13.5 68.5t35.5 47t51 27t61 8.5q71 0 113 -36t42 -116v-20t-1 -21h-38zM97 349q0 -20 7.5 -39t19.5 -36t26 -32.5t27 -28.5q31 -31 64.5 -63.5t67.5 -64.5q11 1 31 7t39 19
t33 35t14 56q0 40 -22.5 72.5t-48.5 57.5q-30 28 -68 64t-74 73q-14 -1 -33.5 -7t-38 -19.5t-31.5 -36.5t-13 -57z" />
    <glyph glyph-name="dieresis" unicode="&#xa8;" 
d="M77 706h44l-19 -103h-44zM236 706h44l-19 -103h-44z" />
    <glyph glyph-name="copyright" unicode="&#xa9;" horiz-adv-x="800" 
d="M26 357q0 78 29.5 146t80 118.5t118.5 80t146 29.5t146 -29.5t118.5 -80t80 -118.5t29.5 -146t-29.5 -146t-80 -118.5t-118.5 -80t-146 -29.5t-146 29.5t-118.5 80t-80 118.5t-29.5 146zM561 438q-11 57 -52.5 89.5t-99.5 32.5q-44 0 -78.5 -15t-58.5 -42t-36.5 -64
t-12.5 -80q0 -42 13 -79.5t37.5 -65.5t59 -44.5t78.5 -16.5q61 0 98.5 35.5t51.5 92.5h38q-5 -36 -21 -66t-41.5 -51t-57.5 -32.5t-68 -11.5q-51 0 -93 18t-71.5 50t-45.5 75.5t-16 94.5t15.5 94.5t44.5 74.5t70 48.5t93 17.5q36 0 68.5 -10t58 -30t42.5 -49t22 -66h-38z
M401 698q-72 0 -134 -26t-107 -72t-70.5 -108t-25.5 -134q0 -71 26 -133.5t71 -109t106.5 -73t133.5 -26.5t133 27t106 73.5t70.5 108.5t25.5 133q0 72 -25.5 134t-70 107.5t-106 72t-133.5 26.5z" />
    <glyph glyph-name="ordfeminine" unicode="&#xaa;" horiz-adv-x="300" 
d="M63 601q13 55 51 78t99 23q13 0 30.5 -3t34 -11t28 -22.5t11.5 -37.5q0 -10 -3 -26.5t-7 -33t-7.5 -29.5t-4.5 -16q-3 -12 -6.5 -26.5t-7 -28.5t-6 -25.5t-2.5 -18.5q0 -22 18 -22q11 0 22 3l-4 -27q-8 -2 -15 -2.5t-14 -0.5q-17 0 -24.5 10.5t-7.5 21.5q0 8 0.5 13
t1.5 10l-2 2q-9 -17 -23 -29t-30.5 -20.5t-34.5 -12.5t-34 -4q-49 0 -80 19.5t-31 66.5q0 34 12.5 54.5t33 31.5t47 14.5t54.5 4.5q70 1 96.5 13t26.5 44q0 27 -18.5 44t-60.5 17q-43 0 -71.5 -18t-39.5 -56h-32zM274 554l-2 2q-6 -8 -18.5 -13t-27.5 -8t-29.5 -4t-24.5 -1
q-18 0 -40 -2.5t-41 -10t-31.5 -22t-12.5 -38.5q0 -18 7 -30.5t18.5 -20t26.5 -10.5t31 -3q29 0 51 10t38 26.5t27 38t17 45.5z" />
    <glyph glyph-name="guillemotleft" unicode="&#xab;" horiz-adv-x="389" 
d="M186 372l-113 -105l70 -97l-11 -49l-91 132l9 38l147 132zM314 372l-113 -105l70 -97l-11 -49l-91 132l9 38l147 132z" />
    <glyph glyph-name="logicalnot" unicode="&#xac;" horiz-adv-x="600" 
d="M514 331h-466v38h504v-261h-38v223z" />
    <glyph glyph-name="uni00AD" unicode="&#xad;" horiz-adv-x="352" 
d="M49 253l9 38h217l-8 -38h-218z" />
    <glyph glyph-name="registered" unicode="&#xae;" horiz-adv-x="800" 
d="M26 357q0 78 29.5 146t80 118.5t118.5 80t146 29.5t146 -29.5t118.5 -80t80 -118.5t29.5 -146t-29.5 -146t-80 -118.5t-118.5 -80t-146 -29.5t-146 29.5t-118.5 80t-80 118.5t-29.5 146zM401 698q-72 0 -134 -26t-107 -72t-70.5 -108t-25.5 -134q0 -71 26 -133.5t71 -109
t106.5 -73t133.5 -26.5t133 27t106 73.5t70.5 108.5t25.5 133q0 72 -25.5 134t-70 107.5t-106 72t-133.5 26.5zM302 373h94q25 0 50 2.5t45 11t32.5 25t12.5 45.5q0 25 -10 42t-26 27.5t-36 14.5t-40 4h-122v-172zM264 578h166q75 0 109.5 -31t34.5 -91q0 -54 -33.5 -82
t-80.5 -35l132 -203h-42l-133 204h-115v-204h-38v442z" />
    <glyph glyph-name="macron" unicode="&#xaf;" 
d="M41 638l6 33h240l-6 -33h-240z" />
    <glyph glyph-name="degree" unicode="&#xb0;" horiz-adv-x="400" 
d="M200 416q-30 0 -56 11t-45.5 30.5t-30.5 45.5t-11 56t11 56t30.5 45.5t45.5 30.5t56 11t56 -11t45.5 -30.5t30.5 -45.5t11 -56t-11 -56t-30.5 -45.5t-45.5 -30.5t-56 -11zM200 669q-23 0 -42 -9t-33 -24t-22 -35t-8 -42q0 -23 8 -43t22 -35t33 -23.5t42 -8.5
q22 0 41.5 8.5t33.5 23.5t22 35t8 43q0 22 -8 42t-22 35t-33.5 24t-41.5 9z" />
    <glyph glyph-name="plusminus" unicode="&#xb1;" horiz-adv-x="600" 
d="M48 38h504v-38h-504v38zM281 504h38v-189h233v-38h-233v-189h-38v189h-233v38h233v189z" />
    <glyph glyph-name="twosuperior" unicode="&#xb2;" horiz-adv-x="333" 
d="M303 275h-293q2 31 15 55.5t33.5 43.5t46 34.5t51.5 28.5q24 12 54 26.5t57 33.5t45 42t18 52q0 38 -27 61t-71 23q-59 0 -92 -34t-36 -86h-32q4 66 45 106.5t111 40.5q59 0 96.5 -28t37.5 -82q0 -30 -12.5 -53t-32.5 -41.5t-46.5 -33.5t-54.5 -29l-56 -28t-52 -29.5
t-41.5 -33.5t-24.5 -42h267z" />
    <glyph glyph-name="threesuperior" unicode="&#xb3;" horiz-adv-x="333" 
d="M66 567q9 61 50 98t115 37q23 0 45.5 -6.5t40 -19.5t28 -33t10.5 -46q0 -44 -30.5 -72t-75.5 -31v-2q36 -5 56 -30.5t20 -57.5q0 -34 -12.5 -59.5t-35 -43t-52.5 -26.5t-64 -9q-69 1 -108 32t-39 95q0 5 0.5 11t1.5 11h32q-1 -5 -1.5 -11t-0.5 -11q0 -48 29.5 -74
t85.5 -26q27 0 51 7.5t42 21t28.5 33t10.5 44.5q0 27 -9.5 42.5t-27 24t-41.5 11t-52 2.5l4 27q25 0 52.5 3.5t50.5 13t38 26.5t15 44q0 42 -29.5 62t-72.5 20q-54 0 -83.5 -30.5t-39.5 -77.5h-32z" />
    <glyph glyph-name="acute" unicode="&#xb4;" 
d="M187 730h48l-110 -140h-37z" />
    <glyph glyph-name="mu" unicode="&#xb5;" horiz-adv-x="519" 
d="M378 0h-38l24 108l-2 2q-17 -29 -36 -51.5t-43 -38.5t-53.5 -24t-68.5 -8q-58 2 -87.5 23t-40.5 44h-2l-53 -239h-38l154 698h38l-63 -280q-2 -7 -4.5 -20t-4.5 -27.5t-4 -29.5t-2 -26q0 -49 31.5 -79.5t88.5 -30.5q46 0 83.5 23t66 59.5t47 81t27.5 87.5l51 242h38z" />
    <glyph glyph-name="paragraph" unicode="&#xb6;" horiz-adv-x="600" 
d="M284 328q-38 0 -69.5 12t-54 32.5t-35 48t-12.5 59.5q0 57 22.5 100.5t59.5 73t85.5 45t100.5 15.5h217l-178 -860h-44l171 827h-146l-171 -827h-44z" />
    <glyph glyph-name="periodcentered" unicode="&#xb7;" horiz-adv-x="278" 
d="M77 317q0 21 16.5 37.5t37.5 16.5t38 -16t17 -38t-16.5 -38.5t-38.5 -16.5t-38 17t-16 38z" />
    <glyph glyph-name="cedilla" unicode="&#xb8;" 
d="M-50 -154q20 -10 39 -16.5t42 -6.5q25 0 43 13.5t18 40.5q0 19 -15 31t-35 12q-13 0 -26.5 -4t-24.5 -9l-14 15l73 78h24l-48 -55l2 -2q5 2 12.5 3t14.5 1q30 0 53 -18.5t23 -52.5q0 -22 -10 -37.5t-25 -25t-33 -14.5t-34 -5q-24 0 -47 7t-45 18z" />
    <glyph glyph-name="onesuperior" unicode="&#xb9;" horiz-adv-x="333" 
d="M97 619q44 6 76.5 26t63.5 48h30l-97 -418h-34l86 368l-2 2q-29 -25 -62.5 -37.5t-65.5 -17.5z" />
    <glyph glyph-name="ordmasculine" unicode="&#xba;" horiz-adv-x="322" 
d="M214 702q66 0 101.5 -33t35.5 -95q0 -38 -11.5 -75t-34 -66.5t-57 -48t-80.5 -18.5q-72 0 -105.5 36t-33.5 100q0 37 12.5 73t36 64.5t58 45.5t78.5 17zM219 675q-38 1 -67 -14.5t-49.5 -40.5t-31 -55.5t-10.5 -60.5q0 -23 6 -43.5t19 -35.5t33 -23.5t48 -8.5
q37 0 65.5 17t48 43t29 58.5t9.5 62.5q0 45 -24.5 72t-75.5 29z" />
    <glyph glyph-name="guillemotright" unicode="&#xbb;" horiz-adv-x="389" 
d="M172 172l113 105l-70 97l11 49l91 -132l-9 -38l-147 -132zM44 172l113 105l-70 97l11 49l91 -132l-9 -38l-147 -132z" />
    <glyph glyph-name="onequarter" unicode="&#xbc;" horiz-adv-x="834" 
d="M630 131l53 229h-3l-226 -229h176zM664 131h73l-7 -27h-72l-24 -104h-33l24 104h-221l6 25l283 285h36zM97 619q44 6 76.5 26t63.5 48h30l-97 -418h-34l86 368l-2 2q-29 -25 -62.5 -37.5t-65.5 -17.5zM580 714h40l-465 -738h-40z" />
    <glyph glyph-name="onehalf" unicode="&#xbd;" horiz-adv-x="834" 
d="M97 619q44 6 76.5 26t63.5 48h30l-97 -418h-34l86 368l-2 2q-29 -25 -62.5 -37.5t-65.5 -17.5zM704 0h-293q2 31 15 55.5t33.5 43.5t46 34.5t51.5 28.5q24 12 54 26.5t57 33.5t45 42t18 52q0 38 -27 61t-71 23q-59 0 -92 -34t-36 -86h-32q4 66 45 106.5t111 40.5
q59 0 96.5 -28t37.5 -82q0 -30 -12.5 -53t-32.5 -41.5t-46.5 -33.5t-54.5 -29l-56 -28t-52 -29.5t-41.5 -33.5t-24.5 -42h267zM580 714h40l-465 -738h-40z" />
    <glyph glyph-name="threequarters" unicode="&#xbe;" horiz-adv-x="834" 
d="M653 131l53 229h-3l-226 -229h176zM687 131h73l-7 -27h-72l-24 -104h-33l24 104h-221l6 25l283 285h36zM666 714h40l-465 -738h-40zM113 567q9 61 50 98t115 37q23 0 45.5 -6.5t40 -19.5t28 -33t10.5 -46q0 -44 -30.5 -72t-75.5 -31v-2q36 -5 56 -30.5t20 -57.5
q0 -34 -12.5 -59.5t-35 -43t-52.5 -26.5t-64 -9q-69 1 -108 32t-39 95q0 5 0.5 11t1.5 11h32q-1 -5 -1.5 -11t-0.5 -11q0 -48 29.5 -74t85.5 -26q27 0 51 7.5t42 21t28.5 33t10.5 44.5q0 27 -9.5 42.5t-27 24t-41.5 11t-52 2.5l4 27q25 0 52.5 3.5t50.5 13t38 26.5t15 44
q0 42 -29.5 62t-72.5 20q-54 0 -83.5 -30.5t-39.5 -77.5h-32z" />
    <glyph glyph-name="questiondown" unicode="&#xbf;" horiz-adv-x="519" 
d="M283 535h50l-23 -103h-50zM291 349q-5 -58 -26.5 -94.5t-49.5 -61.5t-58.5 -42.5t-54.5 -37.5q-11 -9 -24 -22t-24.5 -30t-19 -38t-7.5 -46q0 -68 41.5 -101.5t106.5 -33.5q45 0 77.5 15t54.5 41.5t35 63t20 79.5h44q-5 -47 -21.5 -90t-45 -75.5t-69.5 -52t-95 -19.5
q-36 0 -70.5 10t-61.5 30.5t-43.5 51t-16.5 71.5q0 33 7 60t22 50t39 44t58 43t56.5 38.5t38 35.5t25.5 44.5t18 66.5h44z" />
    <glyph glyph-name="Agrave" unicode="&#xc0;" horiz-adv-x="611" 
d="M365 714h46l133 -714h-44l-41 229h-345l-138 -229h-50zM137 267h315l-72 403zM314 920l99 -140h-37l-110 140h48z" />
    <glyph glyph-name="Aacute" unicode="&#xc1;" horiz-adv-x="611" 
d="M365 714h46l133 -714h-44l-41 229h-345l-138 -229h-50zM137 267h315l-72 403zM466 920h48l-110 -140h-37z" />
    <glyph glyph-name="Acircumflex" unicode="&#xc2;" horiz-adv-x="611" 
d="M365 714h46l133 -714h-44l-41 229h-345l-138 -229h-50zM137 267h315l-72 403zM307 780h-44l133 140h46l88 -140h-42l-71 115z" />
    <glyph glyph-name="Atilde" unicode="&#xc3;" horiz-adv-x="611" 
d="M365 714h46l133 -714h-44l-41 229h-345l-138 -229h-50zM137 267h315l-72 403zM553 887q-3 -16 -10 -32t-17.5 -28.5t-24.5 -20t-32 -7.5t-36 9t-35 20t-32 19.5t-28 8.5q-20 0 -33.5 -18.5t-17.5 -36.5h-29q3 15 9.5 31t17 28.5t24.5 20.5t31 8q19 0 35.5 -8.5
t33.5 -19.5q16 -11 32 -20t33 -9q9 0 17 5.5t14.5 14t11 18t7.5 17.5h29z" />
    <glyph glyph-name="Adieresis" unicode="&#xc4;" horiz-adv-x="611" 
d="M365 714h46l133 -714h-44l-41 229h-345l-138 -229h-50zM137 267h315l-72 403zM320 896h44l-19 -103h-44zM479 896h44l-19 -103h-44z" />
    <glyph glyph-name="Aring" unicode="&#xc5;" horiz-adv-x="611" 
d="M365 714h46l133 -714h-44l-41 229h-345l-138 -229h-50zM137 267h315l-72 403zM328 850q0 -30 21 -51t51 -21t51 21t21 51t-21 51t-51 21t-51 -21t-21 -51zM301 850q0 42 28.5 70.5t70.5 28.5t70.5 -28.5t28.5 -70.5t-28.5 -70.5t-70.5 -28.5t-70.5 28.5t-28.5 70.5z" />
    <glyph glyph-name="AE" unicode="&#xc6;" horiz-adv-x="870" 
d="M185 292h244l82 384h-34zM-87 0l544 714h472l-8 -38h-366l-61 -286h341l-8 -38h-341l-66 -314h381l-10 -38h-423l54 254h-264l-193 -254h-52z" />
    <glyph glyph-name="Ccedilla" unicode="&#xc7;" horiz-adv-x="704" 
d="M193 -154q20 -10 39 -16.5t42 -6.5q25 0 43 13.5t18 40.5q0 19 -15 31t-35 12q-13 0 -26.5 -4t-24.5 -9l-14 15l60 64q-30 4 -60 13q-51 15 -91.5 51t-65 93.5t-24.5 141.5q0 51 11 104t33 102.5t54.5 93t75.5 76t96.5 51.5t116.5 19q61 0 111 -17t84.5 -48.5t52.5 -75
t17 -96.5h-44q-1 48 -18 85.5t-47 62.5t-69.5 38t-85.5 13q-81 0 -145 -36t-108 -94t-67.5 -132t-23.5 -149q0 -66 18 -115t51 -81.5t78 -48.5t99 -16q50 0 95.5 17.5t83 48.5t64 72t38.5 89h44q-12 -57 -43 -106t-75.5 -84t-98.5 -55t-112 -20q-12 0 -23 1l-33 -39l2 -2
q5 2 12.5 3t14.5 1q30 0 53 -18.5t23 -52.5q0 -22 -10 -37.5t-25 -25t-33 -14.5t-34 -5q-24 0 -47 7t-45 18z" />
    <glyph glyph-name="Egrave" unicode="&#xc8;" horiz-adv-x="556" 
d="M149 714h466l-9 -38h-421l-60 -286h392l-7 -38h-393l-66 -314h434l-8 -38h-478zM334 920l99 -140h-37l-110 140h48z" />
    <glyph glyph-name="Eacute" unicode="&#xc9;" horiz-adv-x="556" 
d="M149 714h466l-9 -38h-421l-60 -286h392l-7 -38h-393l-66 -314h434l-8 -38h-478zM466 920h48l-110 -140h-37z" />
    <glyph glyph-name="Ecircumflex" unicode="&#xca;" horiz-adv-x="556" 
d="M149 714h466l-9 -38h-421l-60 -286h392l-7 -38h-393l-66 -314h434l-8 -38h-478zM295 780h-44l133 140h46l88 -140h-42l-71 115z" />
    <glyph glyph-name="Edieresis" unicode="&#xcb;" horiz-adv-x="556" 
d="M149 714h466l-9 -38h-421l-60 -286h392l-7 -38h-393l-66 -314h434l-8 -38h-478zM306 896h44l-19 -103h-44zM465 896h44l-19 -103h-44z" />
    <glyph glyph-name="Igrave" unicode="&#xcc;" horiz-adv-x="185" 
d="M150 714h44l-151 -714h-44zM100 920l99 -140h-37l-110 140h48z" />
    <glyph glyph-name="Iacute" unicode="&#xcd;" horiz-adv-x="185" 
d="M150 714h44l-151 -714h-44zM250 920h48l-110 -140h-37z" />
    <glyph glyph-name="Icircumflex" unicode="&#xce;" horiz-adv-x="185" 
d="M150 714h44l-151 -714h-44zM93 780h-44l133 140h46l88 -140h-42l-71 115z" />
    <glyph glyph-name="Idieresis" unicode="&#xcf;" horiz-adv-x="185" 
d="M150 714h44l-151 -714h-44zM103 896h44l-19 -103h-44zM262 896h44l-19 -103h-44z" />
    <glyph glyph-name="Eth" unicode="&#xd0;" horiz-adv-x="685" 
d="M127 396h256l-8 -33h-255l-69 -325h206q62 0 111.5 17t87.5 46.5t65.5 68.5t45 82t26 87.5t8.5 86.5q0 61 -12 108t-39 78.5t-71 47.5t-108 16h-185zM150 714h231q72 0 122 -19t81.5 -56t46 -90.5t14.5 -122.5q0 -77 -25 -153t-74 -137t-120 -98.5t-164 -37.5h-263
l77 363h-78l8 33h77z" />
    <glyph glyph-name="Ntilde" unicode="&#xd1;" horiz-adv-x="685" 
d="M152 714h52l313 -670h2l139 670h44l-155 -714h-51l-315 670h-2l-136 -670h-44zM594 887q-3 -16 -10 -32t-17.5 -28.5t-24.5 -20t-32 -7.5t-36 9t-35 20t-32 19.5t-28 8.5q-20 0 -33.5 -18.5t-17.5 -36.5h-29q3 15 9.5 31t17 28.5t24.5 20.5t31 8q19 0 35.5 -8.5
t33.5 -19.5q16 -11 32 -20t33 -9q9 0 17 5.5t14.5 14t11 18t7.5 17.5h29z" />
    <glyph glyph-name="Ograve" unicode="&#xd2;" horiz-adv-x="741" 
d="M39 288q0 85 27 164.5t76.5 141.5t120.5 99.5t158 37.5q70 0 124 -21t91 -60t56.5 -94.5t19.5 -124.5q0 -80 -26 -160t-75 -144t-119.5 -104t-158.5 -40q-70 0 -125 21.5t-92.5 61.5t-57 96.5t-19.5 125.5zM83 287q0 -59 16 -108t47.5 -84t77 -54.5t104.5 -19.5
q79 0 142 36t107 94t67.5 130.5t23.5 144.5q0 57 -15 106t-45.5 85t-76 56t-106.5 20q-78 0 -141 -33t-107.5 -89t-69 -129.5t-24.5 -154.5zM387 920l99 -140h-37l-110 140h48z" />
    <glyph glyph-name="Oacute" unicode="&#xd3;" horiz-adv-x="741" 
d="M39 288q0 85 27 164.5t76.5 141.5t120.5 99.5t158 37.5q70 0 124 -21t91 -60t56.5 -94.5t19.5 -124.5q0 -80 -26 -160t-75 -144t-119.5 -104t-158.5 -40q-70 0 -125 21.5t-92.5 61.5t-57 96.5t-19.5 125.5zM83 287q0 -59 16 -108t47.5 -84t77 -54.5t104.5 -19.5
q79 0 142 36t107 94t67.5 130.5t23.5 144.5q0 57 -15 106t-45.5 85t-76 56t-106.5 20q-78 0 -141 -33t-107.5 -89t-69 -129.5t-24.5 -154.5zM517 920h48l-110 -140h-37z" />
    <glyph glyph-name="Ocircumflex" unicode="&#xd4;" horiz-adv-x="741" 
d="M39 288q0 85 27 164.5t76.5 141.5t120.5 99.5t158 37.5q70 0 124 -21t91 -60t56.5 -94.5t19.5 -124.5q0 -80 -26 -160t-75 -144t-119.5 -104t-158.5 -40q-70 0 -125 21.5t-92.5 61.5t-57 96.5t-19.5 125.5zM83 287q0 -59 16 -108t47.5 -84t77 -54.5t104.5 -19.5
q79 0 142 36t107 94t67.5 130.5t23.5 144.5q0 57 -15 106t-45.5 85t-76 56t-106.5 20q-78 0 -141 -33t-107.5 -89t-69 -129.5t-24.5 -154.5zM365 780h-44l133 140h46l88 -140h-42l-71 115z" />
    <glyph glyph-name="Otilde" unicode="&#xd5;" horiz-adv-x="741" 
d="M39 288q0 85 27 164.5t76.5 141.5t120.5 99.5t158 37.5q70 0 124 -21t91 -60t56.5 -94.5t19.5 -124.5q0 -80 -26 -160t-75 -144t-119.5 -104t-158.5 -40q-70 0 -125 21.5t-92.5 61.5t-57 96.5t-19.5 125.5zM83 287q0 -59 16 -108t47.5 -84t77 -54.5t104.5 -19.5
q79 0 142 36t107 94t67.5 130.5t23.5 144.5q0 57 -15 106t-45.5 85t-76 56t-106.5 20q-78 0 -141 -33t-107.5 -89t-69 -129.5t-24.5 -154.5zM607 887q-3 -16 -10 -32t-17.5 -28.5t-24.5 -20t-32 -7.5t-36 9t-35 20t-32 19.5t-28 8.5q-20 0 -33.5 -18.5t-17.5 -36.5h-29
q3 15 9.5 31t17 28.5t24.5 20.5t31 8q19 0 35.5 -8.5t33.5 -19.5q16 -11 32 -20t33 -9q9 0 17 5.5t14.5 14t11 18t7.5 17.5h29z" />
    <glyph glyph-name="Odieresis" unicode="&#xd6;" horiz-adv-x="741" 
d="M39 288q0 85 27 164.5t76.5 141.5t120.5 99.5t158 37.5q70 0 124 -21t91 -60t56.5 -94.5t19.5 -124.5q0 -80 -26 -160t-75 -144t-119.5 -104t-158.5 -40q-70 0 -125 21.5t-92.5 61.5t-57 96.5t-19.5 125.5zM83 287q0 -59 16 -108t47.5 -84t77 -54.5t104.5 -19.5
q79 0 142 36t107 94t67.5 130.5t23.5 144.5q0 57 -15 106t-45.5 85t-76 56t-106.5 20q-78 0 -141 -33t-107.5 -89t-69 -129.5t-24.5 -154.5zM365 896h44l-19 -103h-44zM524 896h44l-19 -103h-44z" />
    <glyph glyph-name="multiply" unicode="&#xd7;" horiz-adv-x="600" 
d="M273 252l-194 195l26 27l195 -195l194 195l27 -27l-194 -195l194 -194l-27 -27l-194 195l-195 -195l-26 27z" />
    <glyph glyph-name="Oslash" unicode="&#xd8;" horiz-adv-x="741" 
d="M109 75q-32 33 -51 86t-19 127q0 85 27 164.5t76.5 141.5t120.5 99.5t158 37.5q72 0 123 -20.5t83 -52.5l70 78l21 -16l-73 -81q32 -38 49.5 -88.5t17.5 -119.5q0 -80 -26 -160t-75 -144t-119.5 -104t-158.5 -40q-74 0 -123 20t-84 54l-76 -85l-19 15zM599 625
q-28 30 -70 49t-104 19q-78 0 -141 -33t-107.5 -89t-69 -129.5t-24.5 -154.5q0 -54 14 -102t40 -78zM154 88q32 -34 75.5 -50t98.5 -17q79 0 142 36t107 94t67.5 130.5t23.5 144.5q0 54 -13 99.5t-39 79.5z" />
    <glyph glyph-name="Ugrave" unicode="&#xd9;" horiz-adv-x="667" 
d="M584 245q-15 -66 -38.5 -115t-60 -82t-87.5 -49t-121 -16q-49 0 -93 12.5t-77 38t-52 65t-19 93.5q0 22 4.5 50t9.5 50l90 422h44l-90 -422q-6 -30 -10 -52.5t-4 -54.5q0 -44 17.5 -75t46 -50.5t65.5 -29t75 -9.5q60 0 103 16.5t73.5 46t49.5 71t30 91.5l100 468h44z
M364 920l99 -140h-37l-110 140h48z" />
    <glyph glyph-name="Uacute" unicode="&#xda;" horiz-adv-x="667" 
d="M584 245q-15 -66 -38.5 -115t-60 -82t-87.5 -49t-121 -16q-49 0 -93 12.5t-77 38t-52 65t-19 93.5q0 22 4.5 50t9.5 50l90 422h44l-90 -422q-6 -30 -10 -52.5t-4 -54.5q0 -44 17.5 -75t46 -50.5t65.5 -29t75 -9.5q60 0 103 16.5t73.5 46t49.5 71t30 91.5l100 468h44z
M484 920h48l-110 -140h-37z" />
    <glyph glyph-name="Ucircumflex" unicode="&#xdb;" horiz-adv-x="667" 
d="M584 245q-15 -66 -38.5 -115t-60 -82t-87.5 -49t-121 -16q-49 0 -93 12.5t-77 38t-52 65t-19 93.5q0 22 4.5 50t9.5 50l90 422h44l-90 -422q-6 -30 -10 -52.5t-4 -54.5q0 -44 17.5 -75t46 -50.5t65.5 -29t75 -9.5q60 0 103 16.5t73.5 46t49.5 71t30 91.5l100 468h44z
M332 780h-44l133 140h46l88 -140h-42l-71 115z" />
    <glyph glyph-name="Udieresis" unicode="&#xdc;" horiz-adv-x="667" 
d="M584 245q-15 -66 -38.5 -115t-60 -82t-87.5 -49t-121 -16q-49 0 -93 12.5t-77 38t-52 65t-19 93.5q0 22 4.5 50t9.5 50l90 422h44l-90 -422q-6 -30 -10 -52.5t-4 -54.5q0 -44 17.5 -75t46 -50.5t65.5 -29t75 -9.5q60 0 103 16.5t73.5 46t49.5 71t30 91.5l100 468h44z
M335 896h44l-19 -103h-44zM494 896h44l-19 -103h-44z" />
    <glyph glyph-name="Yacute" unicode="&#xdd;" horiz-adv-x="556" 
d="M255 300l-191 414h44l174 -378l322 378h55l-362 -421l-63 -293h-44zM454 920h48l-110 -140h-37z" />
    <glyph glyph-name="Thorn" unicode="&#xde;" horiz-adv-x="593" 
d="M43 0h-44l153 714h44l-26 -120h178q51 0 95 -6t76.5 -24.5t51 -52.5t18.5 -89q0 -59 -21 -101.5t-56.5 -69.5t-83 -40t-100.5 -13h-243zM93 236h250q42 0 79 12t64 35.5t43 58.5t16 80q0 48 -17 74.5t-46 40t-66.5 16.5t-79.5 3h-174z" />
    <glyph glyph-name="germandbls" unicode="&#xdf;" horiz-adv-x="500" 
d="M229 412q41 0 79 9t67.5 28.5t47 50t17.5 72.5q0 61 -39 91t-96 30q-42 0 -70.5 -16t-48 -42t-31 -59.5t-18.5 -68.5l-106 -507h-38l107 511q10 47 25 86.5t39.5 68t60.5 44.5t89 16q73 0 118.5 -39.5t45.5 -115.5q0 -35 -11.5 -65t-32.5 -53t-49.5 -38.5t-62.5 -20.5v-2
q59 -11 90.5 -50t31.5 -99q0 -54 -19 -100.5t-52 -81t-78.5 -54t-98.5 -19.5q-14 0 -28 1t-28 4l8 33q13 -2 25 -3.5t25 -1.5q44 0 82 17.5t66 47t44 69t16 83.5q0 43 -15.5 70t-41 43t-59 22t-70.5 6z" />
    <glyph glyph-name="agrave" unicode="&#xe0;" horiz-adv-x="500" 
d="M58 366q20 86 77 123t144 37q19 0 46.5 -4.5t52.5 -18t42.5 -37t17.5 -62.5q0 -17 -5 -44.5t-11 -54.5t-11.5 -49t-6.5 -28q-5 -20 -10.5 -44t-11 -47t-9 -42.5t-3.5 -30.5q0 -14 7 -23.5t21 -9.5q8 0 17 2t17 4l-6 -34q-11 -3 -22.5 -4t-21.5 -1q-26 0 -38 18t-12 35
q0 8 3 20.5t5 22.5h-2q-15 -28 -38 -48t-49 -33t-54 -19t-53 -6q-33 0 -62 7.5t-50.5 24t-34 43t-12.5 63.5q0 49 19 80t50.5 48t72 23.5t84.5 7.5q54 2 90 7.5t58 17t31.5 30.5t9.5 48q0 48 -29.5 76.5t-99.5 28.5q-69 0 -113 -30.5t-61 -96.5h-39zM380 290h-2
q-11 -11 -31 -17.5t-43 -10.5t-46.5 -6.5t-39.5 -3.5q-36 -1 -71 -5t-62.5 -16.5t-44.5 -37.5t-17 -67q0 -29 11 -49t29 -32.5t41.5 -18t49.5 -5.5q46 0 80.5 16t59 43.5t41 63.5t27.5 76zM225 730l99 -140h-37l-110 140h48z" />
    <glyph glyph-name="aacute" unicode="&#xe1;" horiz-adv-x="500" 
d="M58 366q20 86 77 123t144 37q19 0 46.5 -4.5t52.5 -18t42.5 -37t17.5 -62.5q0 -17 -5 -44.5t-11 -54.5t-11.5 -49t-6.5 -28q-5 -20 -10.5 -44t-11 -47t-9 -42.5t-3.5 -30.5q0 -14 7 -23.5t21 -9.5q8 0 17 2t17 4l-6 -34q-11 -3 -22.5 -4t-21.5 -1q-26 0 -38 18t-12 35
q0 8 3 20.5t5 22.5h-2q-15 -28 -38 -48t-49 -33t-54 -19t-53 -6q-33 0 -62 7.5t-50.5 24t-34 43t-12.5 63.5q0 49 19 80t50.5 48t72 23.5t84.5 7.5q54 2 90 7.5t58 17t31.5 30.5t9.5 48q0 48 -29.5 76.5t-99.5 28.5q-69 0 -113 -30.5t-61 -96.5h-39zM380 290h-2
q-11 -11 -31 -17.5t-43 -10.5t-46.5 -6.5t-39.5 -3.5q-36 -1 -71 -5t-62.5 -16.5t-44.5 -37.5t-17 -67q0 -29 11 -49t29 -32.5t41.5 -18t49.5 -5.5q46 0 80.5 16t59 43.5t41 63.5t27.5 76zM357 730h48l-110 -140h-37z" />
    <glyph glyph-name="acircumflex" unicode="&#xe2;" horiz-adv-x="500" 
d="M58 366q20 86 77 123t144 37q19 0 46.5 -4.5t52.5 -18t42.5 -37t17.5 -62.5q0 -17 -5 -44.5t-11 -54.5t-11.5 -49t-6.5 -28q-5 -20 -10.5 -44t-11 -47t-9 -42.5t-3.5 -30.5q0 -14 7 -23.5t21 -9.5q8 0 17 2t17 4l-6 -34q-11 -3 -22.5 -4t-21.5 -1q-26 0 -38 18t-12 35
q0 8 3 20.5t5 22.5h-2q-15 -28 -38 -48t-49 -33t-54 -19t-53 -6q-33 0 -62 7.5t-50.5 24t-34 43t-12.5 63.5q0 49 19 80t50.5 48t72 23.5t84.5 7.5q54 2 90 7.5t58 17t31.5 30.5t9.5 48q0 48 -29.5 76.5t-99.5 28.5q-69 0 -113 -30.5t-61 -96.5h-39zM380 290h-2
q-11 -11 -31 -17.5t-43 -10.5t-46.5 -6.5t-39.5 -3.5q-36 -1 -71 -5t-62.5 -16.5t-44.5 -37.5t-17 -67q0 -29 11 -49t29 -32.5t41.5 -18t49.5 -5.5q46 0 80.5 16t59 43.5t41 63.5t27.5 76zM209 590h-44l133 140h46l88 -140h-42l-71 115z" />
    <glyph glyph-name="atilde" unicode="&#xe3;" horiz-adv-x="500" 
d="M58 366q20 86 77 123t144 37q19 0 46.5 -4.5t52.5 -18t42.5 -37t17.5 -62.5q0 -17 -5 -44.5t-11 -54.5t-11.5 -49t-6.5 -28q-5 -20 -10.5 -44t-11 -47t-9 -42.5t-3.5 -30.5q0 -14 7 -23.5t21 -9.5q8 0 17 2t17 4l-6 -34q-11 -3 -22.5 -4t-21.5 -1q-26 0 -38 18t-12 35
q0 8 3 20.5t5 22.5h-2q-15 -28 -38 -48t-49 -33t-54 -19t-53 -6q-33 0 -62 7.5t-50.5 24t-34 43t-12.5 63.5q0 49 19 80t50.5 48t72 23.5t84.5 7.5q54 2 90 7.5t58 17t31.5 30.5t9.5 48q0 48 -29.5 76.5t-99.5 28.5q-69 0 -113 -30.5t-61 -96.5h-39zM380 290h-2
q-11 -11 -31 -17.5t-43 -10.5t-46.5 -6.5t-39.5 -3.5q-36 -1 -71 -5t-62.5 -16.5t-44.5 -37.5t-17 -67q0 -29 11 -49t29 -32.5t41.5 -18t49.5 -5.5q46 0 80.5 16t59 43.5t41 63.5t27.5 76zM452 697q-3 -16 -10 -32t-17.5 -28.5t-24.5 -20t-32 -7.5t-36 9t-35 20t-32 19.5
t-28 8.5q-20 0 -33.5 -18.5t-17.5 -36.5h-29q3 15 9.5 31t17 28.5t24.5 20.5t31 8q19 0 35.5 -8.5t33.5 -19.5q16 -11 32 -20t33 -9q9 0 17 5.5t14.5 14t11 18t7.5 17.5h29z" />
    <glyph glyph-name="adieresis" unicode="&#xe4;" horiz-adv-x="500" 
d="M58 366q20 86 77 123t144 37q19 0 46.5 -4.5t52.5 -18t42.5 -37t17.5 -62.5q0 -17 -5 -44.5t-11 -54.5t-11.5 -49t-6.5 -28q-5 -20 -10.5 -44t-11 -47t-9 -42.5t-3.5 -30.5q0 -14 7 -23.5t21 -9.5q8 0 17 2t17 4l-6 -34q-11 -3 -22.5 -4t-21.5 -1q-26 0 -38 18t-12 35
q0 8 3 20.5t5 22.5h-2q-15 -28 -38 -48t-49 -33t-54 -19t-53 -6q-33 0 -62 7.5t-50.5 24t-34 43t-12.5 63.5q0 49 19 80t50.5 48t72 23.5t84.5 7.5q54 2 90 7.5t58 17t31.5 30.5t9.5 48q0 48 -29.5 76.5t-99.5 28.5q-69 0 -113 -30.5t-61 -96.5h-39zM380 290h-2
q-11 -11 -31 -17.5t-43 -10.5t-46.5 -6.5t-39.5 -3.5q-36 -1 -71 -5t-62.5 -16.5t-44.5 -37.5t-17 -67q0 -29 11 -49t29 -32.5t41.5 -18t49.5 -5.5q46 0 80.5 16t59 43.5t41 63.5t27.5 76zM214 706h44l-19 -103h-44zM373 706h44l-19 -103h-44z" />
    <glyph glyph-name="aring" unicode="&#xe5;" horiz-adv-x="500" 
d="M58 366q20 86 77 123t144 37q19 0 46.5 -4.5t52.5 -18t42.5 -37t17.5 -62.5q0 -17 -5 -44.5t-11 -54.5t-11.5 -49t-6.5 -28q-5 -20 -10.5 -44t-11 -47t-9 -42.5t-3.5 -30.5q0 -14 7 -23.5t21 -9.5q8 0 17 2t17 4l-6 -34q-11 -3 -22.5 -4t-21.5 -1q-26 0 -38 18t-12 35
q0 8 3 20.5t5 22.5h-2q-15 -28 -38 -48t-49 -33t-54 -19t-53 -6q-33 0 -62 7.5t-50.5 24t-34 43t-12.5 63.5q0 49 19 80t50.5 48t72 23.5t84.5 7.5q54 2 90 7.5t58 17t31.5 30.5t9.5 48q0 48 -29.5 76.5t-99.5 28.5q-69 0 -113 -30.5t-61 -96.5h-39zM380 290h-2
q-11 -11 -31 -17.5t-43 -10.5t-46.5 -6.5t-39.5 -3.5q-36 -1 -71 -5t-62.5 -16.5t-44.5 -37.5t-17 -67q0 -29 11 -49t29 -32.5t41.5 -18t49.5 -5.5q46 0 80.5 16t59 43.5t41 63.5t27.5 76zM227 670q0 -30 21 -51t51 -21t51 21t21 51t-21 51t-51 21t-51 -21t-21 -51zM200 670
q0 42 28.5 70.5t70.5 28.5t70.5 -28.5t28.5 -70.5t-28.5 -70.5t-70.5 -28.5t-70.5 28.5t-28.5 70.5z" />
    <glyph glyph-name="ae" unicode="&#xe6;" horiz-adv-x="852" 
d="M759 285q3 14 4 27t1 26q0 31 -10 59t-28.5 49.5t-45.5 34t-60 12.5q-45 0 -80.5 -17.5t-62 -46.5t-44 -66.5t-26.5 -77.5h352zM372 289h-2q-9 -11 -27 -17.5t-38.5 -9.5t-40.5 -4.5t-33 -2.5q-8 -1 -27 -2t-41.5 -5t-47 -12t-44.5 -22.5t-33 -36.5t-13 -54
q0 -24 9.5 -43t26 -32t37.5 -20t45 -7q45 0 80.5 15.5t61 41.5t43 61t26.5 74zM60 362q14 78 69 121t133 43q30 0 58.5 -7t51 -22t36 -39t13.5 -59h2q12 27 32 50t46 40.5t56 27t62 9.5q42 0 76 -15t58 -41.5t36.5 -61.5t12.5 -75q0 -20 -1.5 -40.5t-6.5 -40.5h-392
q-5 -19 -6.5 -37.5t-1.5 -40.5q0 -34 11.5 -62t32.5 -48.5t49.5 -31.5t63.5 -11t64.5 11.5t52.5 31.5t40 47.5t28 59.5h38q-29 -88 -84 -135.5t-152 -47.5q-32 0 -62 11t-55 31.5t-41 49.5t-19 66h-2q-12 -33 -32.5 -62t-48.5 -50t-60.5 -33.5t-68.5 -12.5t-66 10t-51.5 28
t-33 42.5t-11.5 53.5q0 53 22 84t57.5 47.5t79.5 23t88 10.5q43 4 72.5 9t47.5 16t26 30t8 51q0 48 -32.5 74t-90.5 26q-29 0 -57 -9t-50.5 -26t-38.5 -41.5t-20 -54.5h-39z" />
    <glyph glyph-name="ccedilla" unicode="&#xe7;" horiz-adv-x="519" 
d="M87 -154q20 -10 39 -16.5t42 -6.5q25 0 43 13.5t18 40.5q0 19 -15 31t-35 12q-13 0 -26.5 -4t-24.5 -9l-14 15l64 69q-28 4 -50 13q-37 17 -61 46.5t-35 69.5t-11 88q0 60 20 117t56.5 102t88 72t113.5 27q40 0 74.5 -12.5t59 -35t38 -54t10.5 -70.5h-38q0 65 -38.5 102
t-105.5 37q-56 0 -100.5 -25.5t-75.5 -66.5t-47.5 -91.5t-16.5 -99.5q0 -37 9 -71t28 -60.5t48.5 -42t70.5 -15.5q72 0 121.5 40.5t75.5 106.5h42q-15 -40 -37 -73t-51.5 -57t-66 -37t-80.5 -13q-10 0 -18 1l-38 -44l2 -2q5 2 12.5 3t14.5 1q30 0 53 -18.5t23 -52.5
q0 -22 -10 -37.5t-25 -25t-33 -14.5t-34 -5q-24 0 -47 7t-45 18z" />
    <glyph glyph-name="egrave" unicode="&#xe8;" horiz-adv-x="519" 
d="M432 285q2 13 3.5 23t1.5 20q0 33 -9.5 63t-28.5 52.5t-49 36t-70 13.5q-45 0 -81.5 -17t-63.5 -46t-45 -66.5t-27 -78.5h369zM57 252q-5 -28 -5 -56q0 -35 11 -67t31.5 -56t51 -38t69.5 -14q36 0 68.5 12.5t58 33t43 47.5t24.5 57h38q-11 -40 -32 -73.5t-51 -58
t-68.5 -38t-84.5 -13.5q-49 0 -86 16t-61.5 44t-37 65t-12.5 78q0 72 19 133t54 106t86 70.5t114 25.5q45 0 80 -15t59 -41.5t36.5 -63t12.5 -78.5q0 -20 -2 -38.5t-5 -37.5h-411zM242 730l99 -140h-37l-110 140h48z" />
    <glyph glyph-name="eacute" unicode="&#xe9;" horiz-adv-x="519" 
d="M432 285q2 13 3.5 23t1.5 20q0 33 -9.5 63t-28.5 52.5t-49 36t-70 13.5q-45 0 -81.5 -17t-63.5 -46t-45 -66.5t-27 -78.5h369zM57 252q-5 -28 -5 -56q0 -35 11 -67t31.5 -56t51 -38t69.5 -14q36 0 68.5 12.5t58 33t43 47.5t24.5 57h38q-11 -40 -32 -73.5t-51 -58
t-68.5 -38t-84.5 -13.5q-49 0 -86 16t-61.5 44t-37 65t-12.5 78q0 72 19 133t54 106t86 70.5t114 25.5q45 0 80 -15t59 -41.5t36.5 -63t12.5 -78.5q0 -20 -2 -38.5t-5 -37.5h-411zM363 730h48l-110 -140h-37z" />
    <glyph glyph-name="ecircumflex" unicode="&#xea;" horiz-adv-x="519" 
d="M432 285q2 13 3.5 23t1.5 20q0 33 -9.5 63t-28.5 52.5t-49 36t-70 13.5q-45 0 -81.5 -17t-63.5 -46t-45 -66.5t-27 -78.5h369zM57 252q-5 -28 -5 -56q0 -35 11 -67t31.5 -56t51 -38t69.5 -14q36 0 68.5 12.5t58 33t43 47.5t24.5 57h38q-11 -40 -32 -73.5t-51 -58
t-68.5 -38t-84.5 -13.5q-49 0 -86 16t-61.5 44t-37 65t-12.5 78q0 72 19 133t54 106t86 70.5t114 25.5q45 0 80 -15t59 -41.5t36.5 -63t12.5 -78.5q0 -20 -2 -38.5t-5 -37.5h-411zM210 590h-44l133 140h46l88 -140h-42l-71 115z" />
    <glyph glyph-name="edieresis" unicode="&#xeb;" horiz-adv-x="519" 
d="M432 285q2 13 3.5 23t1.5 20q0 33 -9.5 63t-28.5 52.5t-49 36t-70 13.5q-45 0 -81.5 -17t-63.5 -46t-45 -66.5t-27 -78.5h369zM57 252q-5 -28 -5 -56q0 -35 11 -67t31.5 -56t51 -38t69.5 -14q36 0 68.5 12.5t58 33t43 47.5t24.5 57h38q-11 -40 -32 -73.5t-51 -58
t-68.5 -38t-84.5 -13.5q-49 0 -86 16t-61.5 44t-37 65t-12.5 78q0 72 19 133t54 106t86 70.5t114 25.5q45 0 80 -15t59 -41.5t36.5 -63t12.5 -78.5q0 -20 -2 -38.5t-5 -37.5h-411zM210 706h44l-19 -103h-44zM369 706h44l-19 -103h-44z" />
    <glyph glyph-name="igrave" unicode="&#xec;" 
d="M-7 0l107 514h38l-107 -514h-38zM41 730l99 -140h-37l-110 140h48z" />
    <glyph glyph-name="iacute" unicode="&#xed;" 
d="M-7 0l107 514h38l-107 -514h-38zM200 730h48l-110 -140h-37z" />
    <glyph glyph-name="icircumflex" unicode="&#xee;" 
d="M-7 0l107 514h38l-107 -514h-38zM43 590h-44l133 140h46l88 -140h-42l-71 115z" />
    <glyph glyph-name="idieresis" unicode="&#xef;" 
d="M-7 0l107 514h38l-107 -514h-38zM52 706h44l-19 -103h-44zM211 706h44l-19 -103h-44z" />
    <glyph glyph-name="eth" unicode="&#xf0;" horiz-adv-x="537" 
d="M280 644q-24 23 -45 39.5t-35 24.5l33 23q17 -9 39.5 -28.5t43.5 -40.5l118 60l24 -20l-119 -60q27 -28 55 -67.5t50 -85t36 -95.5t14 -99q0 -59 -18 -114t-53 -98t-86 -69t-117 -26q-104 0 -155 57.5t-51 154.5q0 58 19 113t54.5 98t87 69t116.5 26q32 0 66.5 -10.5
t54.5 -31.5h2q-28 57 -54.5 94.5t-55.5 63.5l-112 -57l-24 22zM289 473q-54 -1 -98 -24.5t-75 -61.5t-47.5 -86t-16.5 -98q0 -38 9.5 -71.5t30 -58t52 -38.5t75.5 -14q59 0 103.5 27t74 67.5t44.5 87t15 86.5q0 55 -17 90.5t-42.5 56.5t-54.5 29t-53 8z" />
    <glyph glyph-name="ntilde" unicode="&#xf1;" horiz-adv-x="519" 
d="M102 514h38l-25 -112h2q34 57 86 90.5t122 33.5q29 0 55.5 -9.5t46.5 -28t32 -45t12 -59.5q0 -9 -1.5 -23t-4 -29t-5 -28.5t-4.5 -22.5l-63 -281h-38l63 280q1 7 4 20t5 27.5t4 29.5t2 26q0 49 -31.5 79.5t-89.5 30.5q-49 0 -87.5 -23t-67 -59.5t-47.5 -81t-28 -87.5
l-51 -242h-38zM463 697q-3 -16 -10 -32t-17.5 -28.5t-24.5 -20t-32 -7.5t-36 9t-35 20t-32 19.5t-28 8.5q-20 0 -33.5 -18.5t-17.5 -36.5h-29q3 15 9.5 31t17 28.5t24.5 20.5t31 8q19 0 35.5 -8.5t33.5 -19.5q16 -11 32 -20t33 -9q9 0 17 5.5t14.5 14t11 18t7.5 17.5h29z
" />
    <glyph glyph-name="ograve" unicode="&#xf2;" horiz-adv-x="537" 
d="M291 526q95 0 149 -53.5t54 -148.5q0 -59 -17.5 -119t-52 -108t-85.5 -78.5t-119 -30.5q-52 0 -91 15.5t-64.5 44t-38 68t-12.5 88.5q0 58 19 116t54.5 103.5t87 74t116.5 28.5zM299 493q-59 1 -105 -24.5t-77.5 -66.5t-48 -92.5t-16.5 -102.5q0 -39 9.5 -72.5t30 -59
t52 -40t75.5 -14.5q59 0 103.5 28.5t74 72.5t44.5 97.5t15 103.5q0 76 -38.5 122t-118.5 48zM249 730l99 -140h-37l-110 140h48z" />
    <glyph glyph-name="oacute" unicode="&#xf3;" horiz-adv-x="537" 
d="M291 526q95 0 149 -53.5t54 -148.5q0 -59 -17.5 -119t-52 -108t-85.5 -78.5t-119 -30.5q-52 0 -91 15.5t-64.5 44t-38 68t-12.5 88.5q0 58 19 116t54.5 103.5t87 74t116.5 28.5zM299 493q-59 1 -105 -24.5t-77.5 -66.5t-48 -92.5t-16.5 -102.5q0 -39 9.5 -72.5t30 -59
t52 -40t75.5 -14.5q59 0 103.5 28.5t74 72.5t44.5 97.5t15 103.5q0 76 -38.5 122t-118.5 48zM372 730h48l-110 -140h-37z" />
    <glyph glyph-name="ocircumflex" unicode="&#xf4;" horiz-adv-x="537" 
d="M291 526q95 0 149 -53.5t54 -148.5q0 -59 -17.5 -119t-52 -108t-85.5 -78.5t-119 -30.5q-52 0 -91 15.5t-64.5 44t-38 68t-12.5 88.5q0 58 19 116t54.5 103.5t87 74t116.5 28.5zM299 493q-59 1 -105 -24.5t-77.5 -66.5t-48 -92.5t-16.5 -102.5q0 -39 9.5 -72.5t30 -59
t52 -40t75.5 -14.5q59 0 103.5 28.5t74 72.5t44.5 97.5t15 103.5q0 76 -38.5 122t-118.5 48zM228 590h-44l133 140h46l88 -140h-42l-71 115z" />
    <glyph glyph-name="otilde" unicode="&#xf5;" horiz-adv-x="537" 
d="M291 526q95 0 149 -53.5t54 -148.5q0 -59 -17.5 -119t-52 -108t-85.5 -78.5t-119 -30.5q-52 0 -91 15.5t-64.5 44t-38 68t-12.5 88.5q0 58 19 116t54.5 103.5t87 74t116.5 28.5zM299 493q-59 1 -105 -24.5t-77.5 -66.5t-48 -92.5t-16.5 -102.5q0 -39 9.5 -72.5t30 -59
t52 -40t75.5 -14.5q59 0 103.5 28.5t74 72.5t44.5 97.5t15 103.5q0 76 -38.5 122t-118.5 48zM476 697q-3 -16 -10 -32t-17.5 -28.5t-24.5 -20t-32 -7.5t-36 9t-35 20t-32 19.5t-28 8.5q-20 0 -33.5 -18.5t-17.5 -36.5h-29q3 15 9.5 31t17 28.5t24.5 20.5t31 8
q19 0 35.5 -8.5t33.5 -19.5q16 -11 32 -20t33 -9q9 0 17 5.5t14.5 14t11 18t7.5 17.5h29z" />
    <glyph glyph-name="odieresis" unicode="&#xf6;" horiz-adv-x="537" 
d="M291 526q95 0 149 -53.5t54 -148.5q0 -59 -17.5 -119t-52 -108t-85.5 -78.5t-119 -30.5q-52 0 -91 15.5t-64.5 44t-38 68t-12.5 88.5q0 58 19 116t54.5 103.5t87 74t116.5 28.5zM299 493q-59 1 -105 -24.5t-77.5 -66.5t-48 -92.5t-16.5 -102.5q0 -39 9.5 -72.5t30 -59
t52 -40t75.5 -14.5q59 0 103.5 28.5t74 72.5t44.5 97.5t15 103.5q0 76 -38.5 122t-118.5 48zM237 706h44l-19 -103h-44zM396 706h44l-19 -103h-44z" />
    <glyph glyph-name="divide" unicode="&#xf7;" horiz-adv-x="600" 
d="M250 51q0 22 15 37t36 15t36.5 -15t15.5 -37q0 -21 -15.5 -36t-36.5 -15t-36 15t-15 36zM250 452q0 22 15 37t36 15t36.5 -15t15.5 -37q0 -21 -15.5 -36t-36.5 -15t-36 15t-15 36zM48 233v38h504v-38h-504z" />
    <glyph glyph-name="oslash" unicode="&#xf8;" horiz-adv-x="537" 
d="M56 59q-42 54 -42 145q0 58 19 116t54.5 103.5t87 74t116.5 28.5q89 0 143 -49l50 56l21 -19l-52 -58q41 -50 41 -132q0 -59 -17.5 -119t-52 -108t-85.5 -78.5t-119 -30.5q-48 0 -84 13t-61 36l-59 -65l-21 19zM101 66q42 -45 118 -45q59 0 103.5 28.5t74 72.5t44.5 97.5
t15 103.5q0 32 -7 59t-21 47zM410 451q-39 39 -111 42q-59 1 -105 -24.5t-77.5 -66.5t-48 -92.5t-16.5 -102.5q0 -34 7.5 -64t23.5 -54z" />
    <glyph glyph-name="ugrave" unicode="&#xf9;" horiz-adv-x="519" 
d="M378 0h-38l24 108l-2 2q-17 -29 -36 -51.5t-43 -38.5t-53.5 -24t-68.5 -8q-29 0 -55.5 9.5t-46.5 28t-32 45t-12 59.5q0 9 1.5 23t4 29t5 28.5t4.5 22.5l63 281h38l-63 -280q-2 -7 -4.5 -20t-4.5 -27.5t-4 -29.5t-2 -26q0 -49 31.5 -79.5t89.5 -30.5q46 0 83.5 23
t66 59.5t47 81t27.5 87.5l51 242h38zM237 730l99 -140h-37l-110 140h48z" />
    <glyph glyph-name="uacute" unicode="&#xfa;" horiz-adv-x="519" 
d="M378 0h-38l24 108l-2 2q-17 -29 -36 -51.5t-43 -38.5t-53.5 -24t-68.5 -8q-29 0 -55.5 9.5t-46.5 28t-32 45t-12 59.5q0 9 1.5 23t4 29t5 28.5t4.5 22.5l63 281h38l-63 -280q-2 -7 -4.5 -20t-4.5 -27.5t-4 -29.5t-2 -26q0 -49 31.5 -79.5t89.5 -30.5q46 0 83.5 23
t66 59.5t47 81t27.5 87.5l51 242h38zM375 730h48l-110 -140h-37z" />
    <glyph glyph-name="ucircumflex" unicode="&#xfb;" horiz-adv-x="519" 
d="M378 0h-38l24 108l-2 2q-17 -29 -36 -51.5t-43 -38.5t-53.5 -24t-68.5 -8q-29 0 -55.5 9.5t-46.5 28t-32 45t-12 59.5q0 9 1.5 23t4 29t5 28.5t4.5 22.5l63 281h38l-63 -280q-2 -7 -4.5 -20t-4.5 -27.5t-4 -29.5t-2 -26q0 -49 31.5 -79.5t89.5 -30.5q46 0 83.5 23
t66 59.5t47 81t27.5 87.5l51 242h38zM213 590h-44l133 140h46l88 -140h-42l-71 115z" />
    <glyph glyph-name="udieresis" unicode="&#xfc;" horiz-adv-x="519" 
d="M378 0h-38l24 108l-2 2q-17 -29 -36 -51.5t-43 -38.5t-53.5 -24t-68.5 -8q-29 0 -55.5 9.5t-46.5 28t-32 45t-12 59.5q0 9 1.5 23t4 29t5 28.5t4.5 22.5l63 281h38l-63 -280q-2 -7 -4.5 -20t-4.5 -27.5t-4 -29.5t-2 -26q0 -49 31.5 -79.5t89.5 -30.5q46 0 83.5 23
t66 59.5t47 81t27.5 87.5l51 242h38zM210 706h44l-19 -103h-44zM369 706h44l-19 -103h-44z" />
    <glyph glyph-name="yacute" unicode="&#xfd;" horiz-adv-x="426" 
d="M-59 -148q19 -3 36 -3q37 0 59 21t40 50l50 80l-101 514h44l86 -463l262 463h45l-349 -604q-13 -23 -26 -40.5t-29 -29.5t-36 -18t-48 -6q-12 0 -22.5 1t-18.5 2zM346 730h48l-110 -140h-37z" />
    <glyph glyph-name="thorn" unicode="&#xfe;" horiz-adv-x="556" 
d="M240 21q57 0 99 28t70.5 71t42.5 95t14 99q0 39 -10 71.5t-29.5 56.5t-49 37.5t-69.5 13.5q-56 0 -99 -29.5t-71.5 -74t-43 -96t-14.5 -96.5q0 -30 11 -61.5t31.5 -57t50 -41.5t67.5 -16zM145 714h38l-65 -300h2q12 23 32 43.5t45 35.5t54.5 24t61.5 9q51 0 87 -16.5
t59.5 -45t34 -67.5t10.5 -84q0 -57 -17.5 -115t-51.5 -104.5t-83.5 -76t-113.5 -29.5q-67 0 -113 40t-63 105h-2l-70 -317h-38z" />
    <glyph glyph-name="ydieresis" unicode="&#xff;" horiz-adv-x="426" 
d="M-59 -148q19 -3 36 -3q37 0 59 21t40 50l50 80l-101 514h44l86 -463l262 463h45l-349 -604q-13 -23 -26 -40.5t-29 -29.5t-36 -18t-48 -6q-12 0 -22.5 1t-18.5 2zM175 706h44l-19 -103h-44zM334 706h44l-19 -103h-44z" />
    <glyph glyph-name="Amacron" unicode="&#x100;" horiz-adv-x="611" 
d="M365 714h46l133 -714h-44l-41 229h-345l-138 -229h-50zM137 267h315l-72 403zM277 828l6 33h240l-6 -33h-240z" />
    <glyph glyph-name="amacron" unicode="&#x101;" horiz-adv-x="500" 
d="M58 366q20 86 77 123t144 37q19 0 46.5 -4.5t52.5 -18t42.5 -37t17.5 -62.5q0 -17 -5 -44.5t-11 -54.5t-11.5 -49t-6.5 -28q-5 -20 -10.5 -44t-11 -47t-9 -42.5t-3.5 -30.5q0 -14 7 -23.5t21 -9.5q8 0 17 2t17 4l-6 -34q-11 -3 -22.5 -4t-21.5 -1q-26 0 -38 18t-12 35
q0 8 3 20.5t5 22.5h-2q-15 -28 -38 -48t-49 -33t-54 -19t-53 -6q-33 0 -62 7.5t-50.5 24t-34 43t-12.5 63.5q0 49 19 80t50.5 48t72 23.5t84.5 7.5q54 2 90 7.5t58 17t31.5 30.5t9.5 48q0 48 -29.5 76.5t-99.5 28.5q-69 0 -113 -30.5t-61 -96.5h-39zM380 290h-2
q-11 -11 -31 -17.5t-43 -10.5t-46.5 -6.5t-39.5 -3.5q-36 -1 -71 -5t-62.5 -16.5t-44.5 -37.5t-17 -67q0 -29 11 -49t29 -32.5t41.5 -18t49.5 -5.5q46 0 80.5 16t59 43.5t41 63.5t27.5 76zM182 638l6 33h240l-6 -33h-240z" />
    <glyph glyph-name="Abreve" unicode="&#x102;" horiz-adv-x="611" 
d="M365 714h46l133 -714h-44l-41 229h-345l-138 -229h-50zM137 267h315l-72 403zM302 910q1 -38 24.5 -62.5t62.5 -24.5q40 0 72 24.5t39 62.5h33q-5 -26 -18 -48t-32.5 -38t-43.5 -25t-50 -9q-57 0 -87.5 32t-32.5 88h33z" />
    <glyph glyph-name="abreve" unicode="&#x103;" horiz-adv-x="500" 
d="M58 366q20 86 77 123t144 37q19 0 46.5 -4.5t52.5 -18t42.5 -37t17.5 -62.5q0 -17 -5 -44.5t-11 -54.5t-11.5 -49t-6.5 -28q-5 -20 -10.5 -44t-11 -47t-9 -42.5t-3.5 -30.5q0 -14 7 -23.5t21 -9.5q8 0 17 2t17 4l-6 -34q-11 -3 -22.5 -4t-21.5 -1q-26 0 -38 18t-12 35
q0 8 3 20.5t5 22.5h-2q-15 -28 -38 -48t-49 -33t-54 -19t-53 -6q-33 0 -62 7.5t-50.5 24t-34 43t-12.5 63.5q0 49 19 80t50.5 48t72 23.5t84.5 7.5q54 2 90 7.5t58 17t31.5 30.5t9.5 48q0 48 -29.5 76.5t-99.5 28.5q-69 0 -113 -30.5t-61 -96.5h-39zM380 290h-2
q-11 -11 -31 -17.5t-43 -10.5t-46.5 -6.5t-39.5 -3.5q-36 -1 -71 -5t-62.5 -16.5t-44.5 -37.5t-17 -67q0 -29 11 -49t29 -32.5t41.5 -18t49.5 -5.5q46 0 80.5 16t59 43.5t41 63.5t27.5 76zM200 720q1 -38 24.5 -62.5t62.5 -24.5q40 0 72 24.5t39 62.5h33q-5 -26 -18 -48
t-32.5 -38t-43.5 -25t-50 -9q-57 0 -87.5 32t-32.5 88h33z" />
    <glyph glyph-name="Aogonek" unicode="&#x104;" horiz-adv-x="611" 
d="M534 0q-59 -39 -91.5 -75.5t-32.5 -65.5q0 -15 10 -23.5t28 -8.5q22 0 41 10t43 36l12 -14q-6 -10 -17 -21.5t-24 -21t-29.5 -16t-33.5 -6.5q-15 0 -26 3t-21 10t-16 19t-6 31q1 23 16 45t35 40.5t42.5 34t35.5 23.5l-41 229h-345l-138 -229h-50l439 714h46l133 -714h-10
zM137 267h315l-72 403z" />
    <glyph glyph-name="aogonek" unicode="&#x105;" horiz-adv-x="500" 
d="M58 366q20 86 77 123t144 37q19 0 46.5 -4.5t52.5 -18t42.5 -37t17.5 -62.5q0 -17 -5 -44.5t-11 -54.5t-11.5 -49t-6.5 -28q-5 -20 -10.5 -44t-11 -47t-9 -42.5t-3.5 -30.5q0 -14 7 -23.5t21 -9.5q8 0 17 2t17 4l-6 -34q-11 -3 -22.5 -4t-21.5 -1h-6q-57 -38 -89 -73
q-32 -37 -32 -66q0 -15 10 -23.5t28 -8.5q22 0 41 10t43 36l12 -14q-6 -10 -17 -21.5t-24 -21t-29.5 -16t-33.5 -6.5q-15 0 -26 3t-21 10t-16 19t-6 31q1 23 15.5 46t35.5 42t42 34q20 14 43 28q-5 4 -8 9q-12 18 -12 35q0 8 3 20.5t5 22.5h-2q-15 -28 -38 -48t-49 -33
t-54 -19t-53 -6q-33 0 -62 7.5t-50.5 24t-34 43t-12.5 63.5q0 49 19 80t50.5 48t72 23.5t84.5 7.5q54 2 90 7.5t58 17t31.5 30.5t9.5 48q0 48 -29.5 76.5t-99.5 28.5q-69 0 -113 -30.5t-61 -96.5h-39zM380 290h-2q-11 -11 -31 -17.5t-43 -10.5t-46.5 -6.5t-39.5 -3.5
q-36 -1 -71 -5t-62.5 -16.5t-44.5 -37.5t-17 -67q0 -29 11 -49t29 -32.5t41.5 -18t49.5 -5.5q46 0 80.5 16t59 43.5t41 63.5t27.5 76z" />
    <glyph glyph-name="Cacute" unicode="&#x106;" horiz-adv-x="704" 
d="M647 494q-1 48 -18 85.5t-47 62.5t-69.5 38t-85.5 13q-81 0 -145 -36t-108 -94t-67.5 -132t-23.5 -149q0 -66 18 -115t51 -81.5t78 -48.5t99 -16q50 0 95.5 17.5t83 48.5t64 72t38.5 89h44q-12 -57 -43 -106t-75.5 -84t-98.5 -55t-112 -20q-53 0 -104.5 15.5t-92 51.5
t-65 93.5t-24.5 141.5q0 51 11 104t33 102.5t54.5 93t75.5 76t96.5 51.5t116.5 19q61 0 111 -17t84.5 -48.5t52.5 -75t17 -96.5h-44zM522 920h48l-110 -140h-37z" />
    <glyph glyph-name="cacute" unicode="&#x107;" horiz-adv-x="519" 
d="M454 168q-15 -40 -37 -73t-51.5 -57t-66 -37t-80.5 -13q-53 0 -90.5 16.5t-61.5 46t-35 69.5t-11 88q0 60 20 117t56.5 102t88 72t113.5 27q40 0 74.5 -12.5t59 -35t38 -54t10.5 -70.5h-38q0 65 -38.5 102t-105.5 37q-56 0 -100.5 -25.5t-75.5 -66.5t-47.5 -91.5
t-16.5 -99.5q0 -37 9 -71t28 -60.5t48.5 -42t70.5 -15.5q72 0 121.5 40.5t75.5 106.5h42zM391 730h48l-110 -140h-37z" />
    <glyph glyph-name="Ccircumflex" unicode="&#x108;" horiz-adv-x="704" 
d="M647 494q-1 48 -18 85.5t-47 62.5t-69.5 38t-85.5 13q-81 0 -145 -36t-108 -94t-67.5 -132t-23.5 -149q0 -66 18 -115t51 -81.5t78 -48.5t99 -16q50 0 95.5 17.5t83 48.5t64 72t38.5 89h44q-12 -57 -43 -106t-75.5 -84t-98.5 -55t-112 -20q-53 0 -104.5 15.5t-92 51.5
t-65 93.5t-24.5 141.5q0 51 11 104t33 102.5t54.5 93t75.5 76t96.5 51.5t116.5 19q61 0 111 -17t84.5 -48.5t52.5 -75t17 -96.5h-44zM362 780h-44l133 140h46l88 -140h-42l-71 115z" />
    <glyph glyph-name="ccircumflex" unicode="&#x109;" horiz-adv-x="519" 
d="M454 168q-15 -40 -37 -73t-51.5 -57t-66 -37t-80.5 -13q-53 0 -90.5 16.5t-61.5 46t-35 69.5t-11 88q0 60 20 117t56.5 102t88 72t113.5 27q40 0 74.5 -12.5t59 -35t38 -54t10.5 -70.5h-38q0 65 -38.5 102t-105.5 37q-56 0 -100.5 -25.5t-75.5 -66.5t-47.5 -91.5
t-16.5 -99.5q0 -37 9 -71t28 -60.5t48.5 -42t70.5 -15.5q72 0 121.5 40.5t75.5 106.5h42zM229 590h-44l133 140h46l88 -140h-42l-71 115z" />
    <glyph glyph-name="Cdotaccent" unicode="&#x10a;" horiz-adv-x="704" 
d="M647 494q-1 48 -18 85.5t-47 62.5t-69.5 38t-85.5 13q-81 0 -145 -36t-108 -94t-67.5 -132t-23.5 -149q0 -66 18 -115t51 -81.5t78 -48.5t99 -16q50 0 95.5 17.5t83 48.5t64 72t38.5 89h44q-12 -57 -43 -106t-75.5 -84t-98.5 -55t-112 -20q-53 0 -104.5 15.5t-92 51.5
t-65 93.5t-24.5 141.5q0 51 11 104t33 102.5t54.5 93t75.5 76t96.5 51.5t116.5 19q61 0 111 -17t84.5 -48.5t52.5 -75t17 -96.5h-44zM434 896h44l-19 -103h-44z" />
    <glyph glyph-name="cdotaccent" unicode="&#x10b;" horiz-adv-x="519" 
d="M454 168q-15 -40 -37 -73t-51.5 -57t-66 -37t-80.5 -13q-53 0 -90.5 16.5t-61.5 46t-35 69.5t-11 88q0 60 20 117t56.5 102t88 72t113.5 27q40 0 74.5 -12.5t59 -35t38 -54t10.5 -70.5h-38q0 65 -38.5 102t-105.5 37q-56 0 -100.5 -25.5t-75.5 -66.5t-47.5 -91.5
t-16.5 -99.5q0 -37 9 -71t28 -60.5t48.5 -42t70.5 -15.5q72 0 121.5 40.5t75.5 106.5h42zM302 706h44l-19 -103h-44z" />
    <glyph glyph-name="Ccaron" unicode="&#x10c;" horiz-adv-x="704" 
d="M647 494q-1 48 -18 85.5t-47 62.5t-69.5 38t-85.5 13q-81 0 -145 -36t-108 -94t-67.5 -132t-23.5 -149q0 -66 18 -115t51 -81.5t78 -48.5t99 -16q50 0 95.5 17.5t83 48.5t64 72t38.5 89h44q-12 -57 -43 -106t-75.5 -84t-98.5 -55t-112 -20q-53 0 -104.5 15.5t-92 51.5
t-65 93.5t-24.5 141.5q0 51 11 104t33 102.5t54.5 93t75.5 76t96.5 51.5t116.5 19q61 0 111 -17t84.5 -48.5t52.5 -75t17 -96.5h-44zM464 780h-46l-88 140h42l71 -115l110 115h44z" />
    <glyph glyph-name="ccaron" unicode="&#x10d;" horiz-adv-x="519" 
d="M454 168q-15 -40 -37 -73t-51.5 -57t-66 -37t-80.5 -13q-53 0 -90.5 16.5t-61.5 46t-35 69.5t-11 88q0 60 20 117t56.5 102t88 72t113.5 27q40 0 74.5 -12.5t59 -35t38 -54t10.5 -70.5h-38q0 65 -38.5 102t-105.5 37q-56 0 -100.5 -25.5t-75.5 -66.5t-47.5 -91.5
t-16.5 -99.5q0 -37 9 -71t28 -60.5t48.5 -42t70.5 -15.5q72 0 121.5 40.5t75.5 106.5h42zM332 590h-46l-88 140h42l71 -115l110 115h44z" />
    <glyph glyph-name="Dcaron" unicode="&#x10e;" horiz-adv-x="685" 
d="M51 38h206q62 0 111.5 17t87.5 46.5t65.5 68.5t45 82t26 87.5t8.5 86.5q0 61 -12 108t-39 78.5t-71 47.5t-108 16h-185zM150 714h231q72 0 122 -19t81.5 -56t46 -90.5t14.5 -122.5q0 -77 -25 -153t-74 -137t-120 -98.5t-164 -37.5h-263zM393 780h-46l-88 140h42l71 -115
l110 115h44z" />
    <glyph glyph-name="dcaron" unicode="&#x10f;" horiz-adv-x="622" 
d="M568 714l-152 -714h-38l27 115l-2 2q-29 -59 -77.5 -94t-117.5 -35q-48 0 -84.5 16t-61 44t-36.5 64.5t-12 77.5q0 58 17.5 118t53 108.5t88 79t122.5 30.5q66 0 111.5 -36t52.5 -100h2l69 324h38zM216 21q55 0 97.5 31.5t70.5 79.5t42.5 104t14.5 105q0 28 -9.5 55.5
t-27.5 49t-44.5 34.5t-59.5 13q-61 0 -107 -28t-77.5 -71t-47.5 -95.5t-16 -100.5q0 -34 7 -66t25.5 -56.5t50 -39.5t81.5 -15zM680 714h52l-107 -140h-31z" />
    <glyph glyph-name="Dcroat" unicode="&#x110;" horiz-adv-x="685" 
d="M127 396h256l-8 -33h-255l-69 -325h206q62 0 111.5 17t87.5 46.5t65.5 68.5t45 82t26 87.5t8.5 86.5q0 61 -12 108t-39 78.5t-71 47.5t-108 16h-185zM150 714h231q72 0 122 -19t81.5 -56t46 -90.5t14.5 -122.5q0 -77 -25 -153t-74 -137t-120 -98.5t-164 -37.5h-263
l77 363h-78l8 33h77z" />
    <glyph glyph-name="dcroat" unicode="&#x111;" horiz-adv-x="566" 
d="M568 714l-17 -78h84l-6 -33h-85l-128 -603h-38l27 115l-2 2q-29 -59 -77.5 -94t-117.5 -35q-48 0 -84.5 16t-61 44t-36.5 64.5t-12 77.5q0 58 17.5 118t53 108.5t88 79t122.5 30.5q66 0 111.5 -36t52.5 -100h2l45 213h-158l6 33h159l17 78h38zM216 21q55 0 97.5 31.5
t70.5 79.5t42.5 104t14.5 105q0 28 -9.5 55.5t-27.5 49t-44.5 34.5t-59.5 13q-61 0 -107 -28t-77.5 -71t-47.5 -95.5t-16 -100.5q0 -34 7 -66t25.5 -56.5t50 -39.5t81.5 -15z" />
    <glyph glyph-name="Emacron" unicode="&#x112;" horiz-adv-x="556" 
d="M149 714h466l-9 -38h-421l-60 -286h392l-7 -38h-393l-66 -314h434l-8 -38h-478zM276 828l6 33h240l-6 -33h-240z" />
    <glyph glyph-name="emacron" unicode="&#x113;" horiz-adv-x="519" 
d="M432 285q2 13 3.5 23t1.5 20q0 33 -9.5 63t-28.5 52.5t-49 36t-70 13.5q-45 0 -81.5 -17t-63.5 -46t-45 -66.5t-27 -78.5h369zM57 252q-5 -28 -5 -56q0 -35 11 -67t31.5 -56t51 -38t69.5 -14q36 0 68.5 12.5t58 33t43 47.5t24.5 57h38q-11 -40 -32 -73.5t-51 -58
t-68.5 -38t-84.5 -13.5q-49 0 -86 16t-61.5 44t-37 65t-12.5 78q0 72 19 133t54 106t86 70.5t114 25.5q45 0 80 -15t59 -41.5t36.5 -63t12.5 -78.5q0 -20 -2 -38.5t-5 -37.5h-411zM193 638l6 33h240l-6 -33h-240z" />
    <glyph glyph-name="Ebreve" unicode="&#x114;" horiz-adv-x="556" 
d="M149 714h466l-9 -38h-421l-60 -286h392l-7 -38h-393l-66 -314h434l-8 -38h-478zM296 910q1 -38 24.5 -62.5t62.5 -24.5q40 0 72 24.5t39 62.5h33q-5 -26 -18 -48t-32.5 -38t-43.5 -25t-50 -9q-57 0 -87.5 32t-32.5 88h33z" />
    <glyph glyph-name="ebreve" unicode="&#x115;" horiz-adv-x="519" 
d="M432 285q2 13 3.5 23t1.5 20q0 33 -9.5 63t-28.5 52.5t-49 36t-70 13.5q-45 0 -81.5 -17t-63.5 -46t-45 -66.5t-27 -78.5h369zM57 252q-5 -28 -5 -56q0 -35 11 -67t31.5 -56t51 -38t69.5 -14q36 0 68.5 12.5t58 33t43 47.5t24.5 57h38q-11 -40 -32 -73.5t-51 -58
t-68.5 -38t-84.5 -13.5q-49 0 -86 16t-61.5 44t-37 65t-12.5 78q0 72 19 133t54 106t86 70.5t114 25.5q45 0 80 -15t59 -41.5t36.5 -63t12.5 -78.5q0 -20 -2 -38.5t-5 -37.5h-411zM209 720q1 -38 24.5 -62.5t62.5 -24.5q40 0 72 24.5t39 62.5h33q-5 -26 -18 -48t-32.5 -38
t-43.5 -25t-50 -9q-57 0 -87.5 32t-32.5 88h33z" />
    <glyph glyph-name="Edotaccent" unicode="&#x116;" horiz-adv-x="556" 
d="M149 714h466l-9 -38h-421l-60 -286h392l-7 -38h-393l-66 -314h434l-8 -38h-478zM389 896h44l-19 -103h-44z" />
    <glyph glyph-name="edotaccent" unicode="&#x117;" horiz-adv-x="519" 
d="M432 285q2 13 3.5 23t1.5 20q0 33 -9.5 63t-28.5 52.5t-49 36t-70 13.5q-45 0 -81.5 -17t-63.5 -46t-45 -66.5t-27 -78.5h369zM57 252q-5 -28 -5 -56q0 -35 11 -67t31.5 -56t51 -38t69.5 -14q36 0 68.5 12.5t58 33t43 47.5t24.5 57h38q-11 -40 -32 -73.5t-51 -58
t-68.5 -38t-84.5 -13.5q-49 0 -86 16t-61.5 44t-37 65t-12.5 78q0 72 19 133t54 106t86 70.5t114 25.5q45 0 80 -15t59 -41.5t36.5 -63t12.5 -78.5q0 -20 -2 -38.5t-5 -37.5h-411zM290 706h44l-19 -103h-44z" />
    <glyph glyph-name="Eogonek" unicode="&#x118;" horiz-adv-x="556" 
d="M436 0q-59 -39 -91.5 -75.5t-32.5 -65.5q0 -15 10 -23.5t28 -8.5q22 0 41 10t43 36l12 -14q-6 -10 -17 -21.5t-24 -21t-29.5 -16t-33.5 -6.5q-15 0 -26 3t-21 10t-16 19t-6 31q1 23 16 45t35 40.5t42.5 34t35.5 23.5h-403l150 714h466l-9 -38h-421l-60 -286h392l-7 -38
h-393l-66 -314h434l-8 -38h-41z" />
    <glyph glyph-name="eogonek" unicode="&#x119;" horiz-adv-x="519" 
d="M57 252q-5 -28 -5 -56q0 -35 11 -67t31.5 -56t51 -38t69.5 -14q36 0 68.5 12.5t58 33t43 47.5t24.5 57h38q-11 -40 -32 -73.5t-51 -58t-69 -38.5q-26 -9 -57 -12q-47 -33 -75 -64q-32 -37 -32 -66q0 -15 10 -23.5t28 -8.5q22 0 41 10t43 36l12 -14q-6 -10 -17 -21.5
t-24 -21t-29.5 -16t-33.5 -6.5q-15 0 -26 3t-21 10t-16 19t-6 31q1 23 16 45t35 40.5t42 34.5q9 6 16 11q-43 2 -76 16q-37 16 -61.5 44t-37 65t-12.5 78q0 72 19 133t54 106t86 70.5t114 25.5q45 0 80 -15t59 -41.5t36.5 -63t12.5 -78.5q0 -20 -2 -38.5t-5 -37.5h-411z
M432 285q2 13 3.5 23t1.5 20q0 33 -9.5 63t-28.5 52.5t-49 36t-70 13.5q-45 0 -81.5 -17t-63.5 -46t-45 -66.5t-27 -78.5h369z" />
    <glyph glyph-name="Ecaron" unicode="&#x11a;" horiz-adv-x="556" 
d="M149 714h466l-9 -38h-421l-60 -286h392l-7 -38h-393l-66 -314h434l-8 -38h-478zM411 780h-46l-88 140h42l71 -115l110 115h44z" />
    <glyph glyph-name="ecaron" unicode="&#x11b;" horiz-adv-x="519" 
d="M432 285q2 13 3.5 23t1.5 20q0 33 -9.5 63t-28.5 52.5t-49 36t-70 13.5q-45 0 -81.5 -17t-63.5 -46t-45 -66.5t-27 -78.5h369zM57 252q-5 -28 -5 -56q0 -35 11 -67t31.5 -56t51 -38t69.5 -14q36 0 68.5 12.5t58 33t43 47.5t24.5 57h38q-11 -40 -32 -73.5t-51 -58
t-68.5 -38t-84.5 -13.5q-49 0 -86 16t-61.5 44t-37 65t-12.5 78q0 72 19 133t54 106t86 70.5t114 25.5q45 0 80 -15t59 -41.5t36.5 -63t12.5 -78.5q0 -20 -2 -38.5t-5 -37.5h-411zM319 590h-46l-88 140h42l71 -115l110 115h44z" />
    <glyph glyph-name="Gcircumflex" unicode="&#x11c;" horiz-adv-x="741" 
d="M657 498q-8 96 -63 145.5t-167 49.5q-81 0 -145 -36t-108 -94t-67.5 -132t-23.5 -149q0 -66 18 -115t51 -81.5t78 -48.5t99 -16q73 0 127 26t92 67.5t60.5 93.5t33.5 104h-262l8 38h300l-74 -350h-33l33 147h-4q-24 -38 -52 -68.5t-62.5 -51.5t-76.5 -32.5t-94 -11.5
q-53 0 -104.5 15.5t-92 51.5t-65 93.5t-24.5 141.5q0 51 11 104t33 102.5t54.5 93t75.5 76t96.5 51.5t116.5 19q57 0 105.5 -13.5t85 -42t59 -72.5t25.5 -105h-44zM364 780h-44l133 140h46l88 -140h-42l-71 115z" />
    <glyph glyph-name="gcircumflex" unicode="&#x11d;" horiz-adv-x="537" 
d="M279 493q-51 0 -91.5 -23.5t-68 -61t-42 -84.5t-14.5 -93q0 -83 38.5 -131t121.5 -48q52 0 91 26.5t65.5 67t39.5 89.5t13 94q0 47 -16 78.5t-39 50.5t-50 27t-48 8zM25 -36q0 -63 39.5 -95t101.5 -32q54 0 90 14.5t59.5 39.5t37 59.5t22.5 73.5l23 102h-2
q-29 -51 -74.5 -79t-106.5 -28q-48 0 -84 15t-59.5 43t-35 66t-11.5 85q0 54 17 107.5t49 96t79.5 68.5t107.5 26q34 0 65 -10.5t54.5 -29t37.5 -45t15 -58.5h2l29 131h38l-106 -490q-11 -53 -29 -93.5t-47.5 -69t-72.5 -43t-104 -14.5q-37 0 -69.5 10.5t-56 31t-36.5 50
t-11 68.5h38zM238 590h-44l133 140h46l88 -140h-42l-71 115z" />
    <glyph glyph-name="Gbreve" unicode="&#x11e;" horiz-adv-x="741" 
d="M657 498q-8 96 -63 145.5t-167 49.5q-81 0 -145 -36t-108 -94t-67.5 -132t-23.5 -149q0 -66 18 -115t51 -81.5t78 -48.5t99 -16q73 0 127 26t92 67.5t60.5 93.5t33.5 104h-262l8 38h300l-74 -350h-33l33 147h-4q-24 -38 -52 -68.5t-62.5 -51.5t-76.5 -32.5t-94 -11.5
q-53 0 -104.5 15.5t-92 51.5t-65 93.5t-24.5 141.5q0 51 11 104t33 102.5t54.5 93t75.5 76t96.5 51.5t116.5 19q57 0 105.5 -13.5t85 -42t59 -72.5t25.5 -105h-44zM361 910q1 -38 24.5 -62.5t62.5 -24.5q40 0 72 24.5t39 62.5h33q-5 -26 -18 -48t-32.5 -38t-43.5 -25t-50 -9
q-57 0 -87.5 32t-32.5 88h33z" />
    <glyph glyph-name="gbreve" unicode="&#x11f;" horiz-adv-x="537" 
d="M279 493q-51 0 -91.5 -23.5t-68 -61t-42 -84.5t-14.5 -93q0 -83 38.5 -131t121.5 -48q52 0 91 26.5t65.5 67t39.5 89.5t13 94q0 47 -16 78.5t-39 50.5t-50 27t-48 8zM25 -36q0 -63 39.5 -95t101.5 -32q54 0 90 14.5t59.5 39.5t37 59.5t22.5 73.5l23 102h-2
q-29 -51 -74.5 -79t-106.5 -28q-48 0 -84 15t-59.5 43t-35 66t-11.5 85q0 54 17 107.5t49 96t79.5 68.5t107.5 26q34 0 65 -10.5t54.5 -29t37.5 -45t15 -58.5h2l29 131h38l-106 -490q-11 -53 -29 -93.5t-47.5 -69t-72.5 -43t-104 -14.5q-37 0 -69.5 10.5t-56 31t-36.5 50
t-11 68.5h38zM240 720q1 -38 24.5 -62.5t62.5 -24.5q40 0 72 24.5t39 62.5h33q-5 -26 -18 -48t-32.5 -38t-43.5 -25t-50 -9q-57 0 -87.5 32t-32.5 88h33z" />
    <glyph glyph-name="Gdotaccent" unicode="&#x120;" horiz-adv-x="741" 
d="M657 498q-8 96 -63 145.5t-167 49.5q-81 0 -145 -36t-108 -94t-67.5 -132t-23.5 -149q0 -66 18 -115t51 -81.5t78 -48.5t99 -16q73 0 127 26t92 67.5t60.5 93.5t33.5 104h-262l8 38h300l-74 -350h-33l33 147h-4q-24 -38 -52 -68.5t-62.5 -51.5t-76.5 -32.5t-94 -11.5
q-53 0 -104.5 15.5t-92 51.5t-65 93.5t-24.5 141.5q0 51 11 104t33 102.5t54.5 93t75.5 76t96.5 51.5t116.5 19q57 0 105.5 -13.5t85 -42t59 -72.5t25.5 -105h-44zM432 896h44l-19 -103h-44z" />
    <glyph glyph-name="gdotaccent" unicode="&#x121;" horiz-adv-x="537" 
d="M279 493q-51 0 -91.5 -23.5t-68 -61t-42 -84.5t-14.5 -93q0 -83 38.5 -131t121.5 -48q52 0 91 26.5t65.5 67t39.5 89.5t13 94q0 47 -16 78.5t-39 50.5t-50 27t-48 8zM25 -36q0 -63 39.5 -95t101.5 -32q54 0 90 14.5t59.5 39.5t37 59.5t22.5 73.5l23 102h-2
q-29 -51 -74.5 -79t-106.5 -28q-48 0 -84 15t-59.5 43t-35 66t-11.5 85q0 54 17 107.5t49 96t79.5 68.5t107.5 26q34 0 65 -10.5t54.5 -29t37.5 -45t15 -58.5h2l29 131h38l-106 -490q-11 -53 -29 -93.5t-47.5 -69t-72.5 -43t-104 -14.5q-37 0 -69.5 10.5t-56 31t-36.5 50
t-11 68.5h38zM307 706h44l-19 -103h-44z" />
    <glyph glyph-name="Gcommaaccent" unicode="&#x122;" horiz-adv-x="741" 
d="M657 498q-8 96 -63 145.5t-167 49.5q-81 0 -145 -36t-108 -94t-67.5 -132t-23.5 -149q0 -66 18 -115t51 -81.5t78 -48.5t99 -16q73 0 127 26t92 67.5t60.5 93.5t33.5 104h-262l8 38h300l-74 -350h-33l33 147h-4q-24 -38 -52 -68.5t-62.5 -51.5t-76.5 -32.5t-94 -11.5
q-53 0 -104.5 15.5t-92 51.5t-65 93.5t-24.5 141.5q0 51 11 104t33 102.5t54.5 93t75.5 76t96.5 51.5t116.5 19q57 0 105.5 -13.5t85 -42t59 -72.5t25.5 -105h-44zM251 -176q14 3 23.5 10.5t14.5 22.5h-25l19 93h57l-17 -80q-6 -31 -25.5 -47.5t-50.5 -18.5z" />
    <glyph glyph-name="gcommaaccent" unicode="&#x123;" horiz-adv-x="537" 
d="M279 493q-51 0 -91.5 -23.5t-68 -61t-42 -84.5t-14.5 -93q0 -83 38.5 -131t121.5 -48q52 0 91 26.5t65.5 67t39.5 89.5t13 94q0 47 -16 78.5t-39 50.5t-50 27t-48 8zM25 -36q0 -63 39.5 -95t101.5 -32q54 0 90 14.5t59.5 39.5t37 59.5t22.5 73.5l23 102h-2
q-29 -51 -74.5 -79t-106.5 -28q-48 0 -84 15t-59.5 43t-35 66t-11.5 85q0 54 17 107.5t49 96t79.5 68.5t107.5 26q34 0 65 -10.5t54.5 -29t37.5 -45t15 -58.5h2l29 131h38l-106 -490q-11 -53 -29 -93.5t-47.5 -69t-72.5 -43t-104 -14.5q-37 0 -69.5 10.5t-56 31t-36.5 50
t-11 68.5h38zM381 747q-14 -3 -23.5 -10.5t-14.5 -22.5h25l-19 -93h-57l16 80q7 31 26.5 47.5t50.5 18.5z" />
    <glyph glyph-name="Hcircumflex" unicode="&#x124;" horiz-adv-x="667" 
d="M152 714h44l-69 -324h445l69 324h44l-153 -714h-44l76 352h-445l-76 -352h-44zM334 780h-44l133 140h46l88 -140h-42l-71 115z" />
    <glyph glyph-name="hcircumflex" unicode="&#x125;" horiz-adv-x="519" 
d="M144 714h38l-66 -308h2q34 54 86 87t121 33q29 0 55.5 -9.5t46.5 -28t32 -45t12 -59.5q0 -9 -1.5 -23t-4 -29t-5 -28.5t-4.5 -22.5l-63 -281h-38l63 280q1 7 4 20t5 27.5t4 29.5t2 26q0 49 -31.5 79.5t-89.5 30.5q-49 0 -87.5 -23t-67 -59.5t-47.5 -81t-28 -87.5
l-51 -242h-38zM248 780h-44l133 140h46l88 -140h-42l-71 115z" />
    <glyph glyph-name="Hbar" unicode="&#x126;" horiz-adv-x="667" 
d="M152 714h44l-43 -200h445l43 200h44l-153 -714h-44l76 352h-445l-76 -352h-44zM572 390l19 91h-445l-19 -91h445z" />
    <glyph glyph-name="hbar" unicode="&#x127;" horiz-adv-x="534" 
d="M159 714h38l-17 -78h138l-6 -33h-139l-42 -197h2q34 54 86 87t121 33q29 0 55.5 -9.5t46.5 -28t32 -45t12 -59.5q0 -9 -1.5 -23t-4 -29t-5 -28.5t-4.5 -22.5l-63 -281h-38l63 280q1 7 4 20t5 27.5t4 29.5t2 26q0 49 -31.5 79.5t-89.5 30.5q-49 0 -87.5 -23t-67 -59.5
t-47.5 -81t-28 -87.5l-51 -242h-38l127 603h-78l6 33h79z" />
    <glyph glyph-name="Itilde" unicode="&#x128;" horiz-adv-x="185" 
d="M150 714h44l-151 -714h-44zM336 887q-3 -16 -10 -32t-17.5 -28.5t-24.5 -20t-32 -7.5t-36 9t-35 20t-32 19.5t-28 8.5q-20 0 -33.5 -18.5t-17.5 -36.5h-29q3 15 9.5 31t17 28.5t24.5 20.5t31 8q19 0 35.5 -8.5t33.5 -19.5q16 -11 32 -20t33 -9q9 0 17 5.5t14.5 14t11 18
t7.5 17.5h29z" />
    <glyph glyph-name="itilde" unicode="&#x129;" 
d="M-7 0l107 514h38l-107 -514h-38zM279 697q-3 -16 -10 -32t-17.5 -28.5t-24.5 -20t-32 -7.5t-36 9t-35 20t-32 19.5t-28 8.5q-20 0 -33.5 -18.5t-17.5 -36.5h-29q3 15 9.5 31t17 28.5t24.5 20.5t31 8q19 0 35.5 -8.5t33.5 -19.5q16 -11 32 -20t33 -9q9 0 17 5.5t14.5 14
t11 18t7.5 17.5h29z" />
    <glyph glyph-name="Imacron" unicode="&#x12a;" horiz-adv-x="185" 
d="M150 714h44l-151 -714h-44zM69 828l6 33h240l-6 -33h-240z" />
    <glyph glyph-name="imacron" unicode="&#x12b;" 
d="M-7 0l107 514h38l-107 -514h-38zM10 638l6 33h240l-6 -33h-240z" />
    <glyph glyph-name="Iogonek" unicode="&#x12e;" horiz-adv-x="185" 
d="M43 0q-53 -39 -82.5 -75.5t-29.5 -65.5q0 -15 9 -23.5t25 -8.5q20 0 37 10t39 36l11 -14q-6 -10 -15.5 -21.5t-21.5 -21t-27 -16t-30 -6.5q-13 0 -23 3t-19 10t-14.5 19t-5.5 31q1 23 14.5 45t31.5 40.5t38 34t32 23.5h-13l151 714h44z" />
    <glyph glyph-name="iogonek" unicode="&#x12f;" 
d="M31 0q-53 -39 -82.5 -75.5t-29.5 -65.5q0 -15 9 -23.5t25 -8.5q20 0 37 10t39 36l11 -14q-6 -10 -15.5 -21.5t-21.5 -21t-27 -16t-30 -6.5q-13 0 -23 3t-19 10t-14.5 19t-5.5 31q1 23 14.5 45t31.5 40.5t38 34t32 23.5h-7l107 514h38zM142 714h38l-21 -103h-38z" />
    <glyph glyph-name="Idotaccent" unicode="&#x130;" horiz-adv-x="185" 
d="M150 714h44l-151 -714h-44zM183 896h44l-19 -103h-44z" />
    <glyph glyph-name="dotlessi" unicode="&#x131;" 
d="M-7 0l107 514h38l-107 -514h-38z" />
    <glyph glyph-name="Jcircumflex" unicode="&#x134;" horiz-adv-x="481" 
d="M455 714h44l-105 -481q-13 -58 -28.5 -104.5t-41 -78.5t-65 -49.5t-99.5 -17.5q-36 0 -67.5 9.5t-55 29t-37 48.5t-13.5 68q0 22 2.5 44t7.5 43h44q-10 -43 -10 -90q0 -30 12 -52t32 -35.5t45.5 -20t52.5 -6.5q44 0 73.5 15.5t48.5 41.5t30.5 60.5t19.5 72.5zM394 780
h-44l133 140h46l88 -140h-42l-71 115z" />
    <glyph glyph-name="jcircumflex" unicode="&#x135;" 
d="M100 514h38l-115 -555q-4 -18 -8.5 -42.5t-16.5 -47t-35 -38t-65 -15.5q-22 0 -41 3l7 34q10 -2 19.5 -3t20.5 -1q22 0 36 9.5t22.5 25.5t13.5 36.5t10 41.5zM36 590h-44l133 140h46l88 -140h-42l-71 115z" />
    <glyph glyph-name="Kcommaaccent" unicode="&#x136;" horiz-adv-x="611" 
d="M149 714h44l-84 -400l2 -2l507 402h63l-384 -302l275 -412h-50l-257 387l-169 -133l-53 -254h-44zM197 -176q14 3 23.5 10.5t14.5 22.5h-25l19 93h57l-17 -80q-6 -31 -25.5 -47.5t-50.5 -18.5z" />
    <glyph glyph-name="kcommaaccent" unicode="&#x137;" horiz-adv-x="463" 
d="M146 714h38l-102 -472l2 -2l345 274h57l-261 -205l184 -309h-48l-168 285l-122 -95l-40 -190h-38zM123 -176q14 3 23.5 10.5t14.5 22.5h-25l19 93h57l-17 -80q-6 -31 -25.5 -47.5t-50.5 -18.5z" />
    <glyph glyph-name="Lacute" unicode="&#x139;" horiz-adv-x="500" 
d="M152 714h44l-145 -676h403l-8 -38h-447zM271 936h48l-110 -140h-37z" />
    <glyph glyph-name="lacute" unicode="&#x13a;" 
d="M142 714h38l-149 -714h-38zM242 936h48l-110 -140h-37z" />
    <glyph glyph-name="Lcommaaccent" unicode="&#x13b;" horiz-adv-x="500" 
d="M152 714h44l-145 -676h403l-8 -38h-447zM151 -176q14 3 23.5 10.5t14.5 22.5h-25l19 93h57l-17 -80q-6 -31 -25.5 -47.5t-50.5 -18.5z" />
    <glyph glyph-name="lcommaaccent" unicode="&#x13c;" 
d="M142 714h38l-149 -714h-38zM-56 -176q14 3 23.5 10.5t14.5 22.5h-25l19 93h57l-17 -80q-6 -31 -25.5 -47.5t-50.5 -18.5z" />
    <glyph glyph-name="Lcaron" unicode="&#x13d;" horiz-adv-x="500" 
d="M152 714h44l-145 -676h403l-8 -38h-447zM360 714h52l-107 -140h-31z" />
    <glyph glyph-name="lcaron" unicode="&#x13e;" horiz-adv-x="233" 
d="M142 714h38l-149 -714h-38zM291 714h52l-107 -140h-31z" />
    <glyph glyph-name="Ldot" unicode="&#x13f;" horiz-adv-x="500" 
d="M152 714h44l-145 -676h403l-8 -38h-447zM307 515h44l-19 -103h-44z" />
    <glyph glyph-name="ldot" unicode="&#x140;" horiz-adv-x="252" 
d="M142 714h38l-149 -714h-38zM209 515h44l-19 -103h-44z" />
    <glyph glyph-name="Lslash" unicode="&#x141;" horiz-adv-x="500" 
d="M152 714h44l-83 -373l239 165l-8 -38l-239 -166l-54 -264h403l-8 -38h-447l57 269l-84 -59v34l93 64z" />
    <glyph glyph-name="lslash" unicode="&#x142;" 
d="M68 358l-82 -59l8 38l82 60l66 317h38l-59 -285l83 59l-8 -38l-83 -60l-82 -390h-38z" />
    <glyph glyph-name="Nacute" unicode="&#x143;" horiz-adv-x="685" 
d="M152 714h52l313 -670h2l139 670h44l-155 -714h-51l-315 670h-2l-136 -670h-44zM511 920h48l-110 -140h-37z" />
    <glyph glyph-name="nacute" unicode="&#x144;" horiz-adv-x="519" 
d="M102 514h38l-25 -112h2q34 57 86 90.5t122 33.5q29 0 55.5 -9.5t46.5 -28t32 -45t12 -59.5q0 -9 -1.5 -23t-4 -29t-5 -28.5t-4.5 -22.5l-63 -281h-38l63 280q1 7 4 20t5 27.5t4 29.5t2 26q0 49 -31.5 79.5t-89.5 30.5q-49 0 -87.5 -23t-67 -59.5t-47.5 -81t-28 -87.5
l-51 -242h-38zM366 730h48l-110 -140h-37z" />
    <glyph glyph-name="Ncommaaccent" unicode="&#x145;" horiz-adv-x="685" 
d="M152 714h52l313 -670h2l139 670h44l-155 -714h-51l-315 670h-2l-136 -670h-44zM206 -176q14 3 23.5 10.5t14.5 22.5h-25l19 93h57l-17 -80q-6 -31 -25.5 -47.5t-50.5 -18.5z" />
    <glyph glyph-name="ncommaaccent" unicode="&#x146;" horiz-adv-x="519" 
d="M102 514h38l-25 -112h2q34 57 86 90.5t122 33.5q29 0 55.5 -9.5t46.5 -28t32 -45t12 -59.5q0 -9 -1.5 -23t-4 -29t-5 -28.5t-4.5 -22.5l-63 -281h-38l63 280q1 7 4 20t5 27.5t4 29.5t2 26q0 49 -31.5 79.5t-89.5 30.5q-49 0 -87.5 -23t-67 -59.5t-47.5 -81t-28 -87.5
l-51 -242h-38zM130 -176q14 3 23.5 10.5t14.5 22.5h-25l19 93h57l-17 -80q-6 -31 -25.5 -47.5t-50.5 -18.5z" />
    <glyph glyph-name="Ncaron" unicode="&#x147;" horiz-adv-x="685" 
d="M152 714h52l313 -670h2l139 670h44l-155 -714h-51l-315 670h-2l-136 -670h-44zM447 780h-46l-88 140h42l71 -115l110 115h44z" />
    <glyph glyph-name="ncaron" unicode="&#x148;" horiz-adv-x="519" 
d="M102 514h38l-25 -112h2q34 57 86 90.5t122 33.5q29 0 55.5 -9.5t46.5 -28t32 -45t12 -59.5q0 -9 -1.5 -23t-4 -29t-5 -28.5t-4.5 -22.5l-63 -281h-38l63 280q1 7 4 20t5 27.5t4 29.5t2 26q0 49 -31.5 79.5t-89.5 30.5q-49 0 -87.5 -23t-67 -59.5t-47.5 -81t-28 -87.5
l-51 -242h-38zM329 590h-46l-88 140h42l71 -115l110 115h44z" />
    <glyph glyph-name="Omacron" unicode="&#x14c;" horiz-adv-x="741" 
d="M39 288q0 85 27 164.5t76.5 141.5t120.5 99.5t158 37.5q70 0 124 -21t91 -60t56.5 -94.5t19.5 -124.5q0 -80 -26 -160t-75 -144t-119.5 -104t-158.5 -40q-70 0 -125 21.5t-92.5 61.5t-57 96.5t-19.5 125.5zM83 287q0 -59 16 -108t47.5 -84t77 -54.5t104.5 -19.5
q79 0 142 36t107 94t67.5 130.5t23.5 144.5q0 57 -15 106t-45.5 85t-76 56t-106.5 20q-78 0 -141 -33t-107.5 -89t-69 -129.5t-24.5 -154.5zM338 828l6 33h240l-6 -33h-240z" />
    <glyph glyph-name="omacron" unicode="&#x14d;" horiz-adv-x="537" 
d="M291 526q95 0 149 -53.5t54 -148.5q0 -59 -17.5 -119t-52 -108t-85.5 -78.5t-119 -30.5q-52 0 -91 15.5t-64.5 44t-38 68t-12.5 88.5q0 58 19 116t54.5 103.5t87 74t116.5 28.5zM299 493q-59 1 -105 -24.5t-77.5 -66.5t-48 -92.5t-16.5 -102.5q0 -39 9.5 -72.5t30 -59
t52 -40t75.5 -14.5q59 0 103.5 28.5t74 72.5t44.5 97.5t15 103.5q0 76 -38.5 122t-118.5 48zM202 638l6 33h240l-6 -33h-240z" />
    <glyph glyph-name="Obreve" unicode="&#x14e;" horiz-adv-x="741" 
d="M39 288q0 85 27 164.5t76.5 141.5t120.5 99.5t158 37.5q70 0 124 -21t91 -60t56.5 -94.5t19.5 -124.5q0 -80 -26 -160t-75 -144t-119.5 -104t-158.5 -40q-70 0 -125 21.5t-92.5 61.5t-57 96.5t-19.5 125.5zM83 287q0 -59 16 -108t47.5 -84t77 -54.5t104.5 -19.5
q79 0 142 36t107 94t67.5 130.5t23.5 144.5q0 57 -15 106t-45.5 85t-76 56t-106.5 20q-78 0 -141 -33t-107.5 -89t-69 -129.5t-24.5 -154.5zM363 910q1 -38 24.5 -62.5t62.5 -24.5q40 0 72 24.5t39 62.5h33q-5 -26 -18 -48t-32.5 -38t-43.5 -25t-50 -9q-57 0 -87.5 32
t-32.5 88h33z" />
    <glyph glyph-name="obreve" unicode="&#x14f;" horiz-adv-x="537" 
d="M291 526q95 0 149 -53.5t54 -148.5q0 -59 -17.5 -119t-52 -108t-85.5 -78.5t-119 -30.5q-52 0 -91 15.5t-64.5 44t-38 68t-12.5 88.5q0 58 19 116t54.5 103.5t87 74t116.5 28.5zM299 493q-59 1 -105 -24.5t-77.5 -66.5t-48 -92.5t-16.5 -102.5q0 -39 9.5 -72.5t30 -59
t52 -40t75.5 -14.5q59 0 103.5 28.5t74 72.5t44.5 97.5t15 103.5q0 76 -38.5 122t-118.5 48zM231 720q1 -38 24.5 -62.5t62.5 -24.5q40 0 72 24.5t39 62.5h33q-5 -26 -18 -48t-32.5 -38t-43.5 -25t-50 -9q-57 0 -87.5 32t-32.5 88h33z" />
    <glyph glyph-name="Ohungarumlaut" unicode="&#x150;" horiz-adv-x="741" 
d="M39 288q0 85 27 164.5t76.5 141.5t120.5 99.5t158 37.5q70 0 124 -21t91 -60t56.5 -94.5t19.5 -124.5q0 -80 -26 -160t-75 -144t-119.5 -104t-158.5 -40q-70 0 -125 21.5t-92.5 61.5t-57 96.5t-19.5 125.5zM83 287q0 -59 16 -108t47.5 -84t77 -54.5t104.5 -19.5
q79 0 142 36t107 94t67.5 130.5t23.5 144.5q0 57 -15 106t-45.5 85t-76 56t-106.5 20q-78 0 -141 -33t-107.5 -89t-69 -129.5t-24.5 -154.5zM592 920h48l-110 -140h-37zM444 920h48l-110 -140h-37z" />
    <glyph glyph-name="ohungarumlaut" unicode="&#x151;" horiz-adv-x="537" 
d="M291 526q95 0 149 -53.5t54 -148.5q0 -59 -17.5 -119t-52 -108t-85.5 -78.5t-119 -30.5q-52 0 -91 15.5t-64.5 44t-38 68t-12.5 88.5q0 58 19 116t54.5 103.5t87 74t116.5 28.5zM299 493q-59 1 -105 -24.5t-77.5 -66.5t-48 -92.5t-16.5 -102.5q0 -39 9.5 -72.5t30 -59
t52 -40t75.5 -14.5q59 0 103.5 28.5t74 72.5t44.5 97.5t15 103.5q0 76 -38.5 122t-118.5 48zM460 730h48l-110 -140h-37zM312 730h48l-110 -140h-37z" />
    <glyph glyph-name="OE" unicode="&#x152;" horiz-adv-x="1019" 
d="M653 714h422l-8 -38h-379l-63 -286h352l-7 -38h-353l-64 -314h393l-8 -38h-437l15 71h-2q-32 -45 -80.5 -66.5t-100.5 -21.5q-70 0 -125 21.5t-92.5 61.5t-57 96.5t-19.5 125.5q0 85 27 164.5t76.5 141.5t120.5 99.5t158 37.5q29 0 60 -6.5t59.5 -20t52.5 -34.5t39 -50h2
zM611 521q2 10 4 19.5t3 18.5q1 10 -2 19t-8 17q-13 24 -34.5 42.5t-46.5 31t-52 18.5t-50 6q-78 0 -141 -33t-107.5 -89t-69 -129.5t-24.5 -154.5q0 -59 16 -108t47.5 -84t77 -54.5t104.5 -19.5q51 0 88 15t62.5 38.5t40 53t20.5 58.5z" />
    <glyph glyph-name="oe" unicode="&#x153;" horiz-adv-x="889" 
d="M282 493q-57 0 -100 -28.5t-72 -73t-43.5 -97t-14.5 -100.5q0 -35 9 -66.5t28 -55t48 -37.5t69 -14q57 0 98 31.5t67.5 79t38.5 102t12 101.5q0 33 -8 62t-25.5 50.5t-44 33.5t-62.5 12zM454 252q-5 -21 -6 -39.5t-1 -33.5q0 -34 10 -63t29.5 -50t48.5 -33t66 -12
q70 0 117.5 42.5t68.5 107.5h38q-23 -81 -82 -132t-147 -51q-78 0 -126 42.5t-56 120.5h-2q-27 -79 -82 -121t-134 -42q-45 0 -79 16.5t-57 44t-34.5 63t-11.5 74.5q0 58 17.5 118.5t51.5 110t84.5 80.5t117.5 31q37 0 68 -12t53.5 -33.5t35.5 -52t13 -67.5h2q11 34 31.5 64
t48.5 52.5t61 35.5t70 13q45 0 79.5 -15t58 -41t36 -61.5t12.5 -77.5q0 -37 -9 -79h-391zM812 285q2 13 3 23t1 20q0 32 -9 61.5t-27 52.5t-45 37t-63 14q-45 0 -79.5 -17.5t-60.5 -46t-43.5 -66.5t-27.5 -78h351z" />
    <glyph glyph-name="Racute" unicode="&#x154;" horiz-adv-x="630" 
d="M120 363h259q42 0 78.5 11.5t63.5 33t42.5 53.5t15.5 74q0 44 -13 71.5t-37 43t-57.5 21t-75.5 5.5h-210zM150 714h264q41 0 78.5 -7.5t66.5 -26.5t46.5 -52t17.5 -84q0 -44 -15 -81t-41.5 -63.5t-63.5 -42t-80 -16.5v-2q102 -17 102 -122q0 -37 -2.5 -75t-2.5 -71
q0 -18 2.5 -36t8.5 -35h-44q-6 14 -7.5 31.5t-1.5 40.5q0 18 0.5 34t1 32.5t1 35t0.5 41.5q0 36 -11.5 58t-34 33.5t-54.5 15t-72 3.5h-197l-70 -325h-43zM446 920h48l-110 -140h-37z" />
    <glyph glyph-name="racute" unicode="&#x155;" horiz-adv-x="278" 
d="M98 514h38l-28 -123h2q28 58 76.5 96.5t117.5 38.5q8 0 16 -0.5t16 -1.5l-11 -40q-8 2 -15.5 3t-15.5 1q-56 0 -94.5 -29t-64.5 -71.5t-41 -91.5t-24 -88l-45 -208h-38zM211 730h48l-110 -140h-37z" />
    <glyph glyph-name="Rcommaaccent" unicode="&#x156;" horiz-adv-x="630" 
d="M120 363h259q42 0 78.5 11.5t63.5 33t42.5 53.5t15.5 74q0 44 -13 71.5t-37 43t-57.5 21t-75.5 5.5h-210zM150 714h264q41 0 78.5 -7.5t66.5 -26.5t46.5 -52t17.5 -84q0 -44 -15 -81t-41.5 -63.5t-63.5 -42t-80 -16.5v-2q102 -17 102 -122q0 -37 -2.5 -75t-2.5 -71
q0 -18 2.5 -36t8.5 -35h-44q-6 14 -7.5 31.5t-1.5 40.5q0 18 0.5 34t1 32.5t1 35t0.5 41.5q0 36 -11.5 58t-34 33.5t-54.5 15t-72 3.5h-197l-70 -325h-43zM186 -176q14 3 23.5 10.5t14.5 22.5h-25l19 93h57l-17 -80q-6 -31 -25.5 -47.5t-50.5 -18.5z" />
    <glyph glyph-name="rcommaaccent" unicode="&#x157;" horiz-adv-x="278" 
d="M98 514h38l-28 -123h2q28 58 76.5 96.5t117.5 38.5q8 0 16 -0.5t16 -1.5l-11 -40q-8 2 -15.5 3t-15.5 1q-56 0 -94.5 -29t-64.5 -71.5t-41 -91.5t-24 -88l-45 -208h-38zM-62 -176q14 3 23.5 10.5t14.5 22.5h-25l19 93h57l-17 -80q-6 -31 -25.5 -47.5t-50.5 -18.5z" />
    <glyph glyph-name="Rcaron" unicode="&#x158;" horiz-adv-x="630" 
d="M120 363h259q42 0 78.5 11.5t63.5 33t42.5 53.5t15.5 74q0 44 -13 71.5t-37 43t-57.5 21t-75.5 5.5h-210zM150 714h264q41 0 78.5 -7.5t66.5 -26.5t46.5 -52t17.5 -84q0 -44 -15 -81t-41.5 -63.5t-63.5 -42t-80 -16.5v-2q102 -17 102 -122q0 -37 -2.5 -75t-2.5 -71
q0 -18 2.5 -36t8.5 -35h-44q-6 14 -7.5 31.5t-1.5 40.5q0 18 0.5 34t1 32.5t1 35t0.5 41.5q0 36 -11.5 58t-34 33.5t-54.5 15t-72 3.5h-197l-70 -325h-43zM390 780h-46l-88 140h42l71 -115l110 115h44z" />
    <glyph glyph-name="rcaron" unicode="&#x159;" horiz-adv-x="278" 
d="M98 514h38l-28 -123h2q28 58 76.5 96.5t117.5 38.5q8 0 16 -0.5t16 -1.5l-11 -40q-8 2 -15.5 3t-15.5 1q-56 0 -94.5 -29t-64.5 -71.5t-41 -91.5t-24 -88l-45 -208h-38zM240 590h-46l-88 140h42l71 -115l110 115h44z" />
    <glyph glyph-name="Sacute" unicode="&#x15a;" horiz-adv-x="630" 
d="M64 235q-1 -8 -1 -21v-21q0 -33 12 -64t37.5 -55t66 -38.5t97.5 -14.5q47 0 88.5 9.5t72.5 29.5t49 52.5t18 78.5q0 39 -19.5 65t-48.5 44t-63 29t-64 20q-34 10 -69 23t-63.5 33.5t-46.5 52t-18 79.5t21 84.5t56.5 61t82 36.5t96.5 12q48 0 91 -11t75.5 -33.5t51.5 -56
t19 -79.5q0 -10 -0.5 -18.5t-2.5 -22.5h-44q2 15 2.5 21.5t0.5 15.5q0 38 -16 65.5t-43 45.5t-62 26.5t-73 8.5q-36 0 -73.5 -8t-68 -26.5t-50 -48.5t-19.5 -73q0 -41 16.5 -66.5t44 -43t62.5 -28.5t72 -21q37 -11 72.5 -24t63 -34t44.5 -51.5t17 -75.5q0 -52 -21 -91
t-58 -65.5t-87 -40t-108 -13.5q-52 0 -98.5 13.5t-81 39t-55 63t-20.5 86.5q0 13 -0.5 25t0.5 25h45zM448 920h48l-110 -140h-37z" />
    <glyph glyph-name="sacute" unicode="&#x15b;" horiz-adv-x="463" 
d="M36 175q0 -6 -0.5 -12t-0.5 -12q0 -72 46.5 -101t127.5 -29q21 0 45 7t45 21t34.5 34.5t13.5 47.5q0 28 -12.5 46.5t-33 32t-46.5 23t-52 18.5t-51.5 19.5t-45 26t-31.5 37t-12 53.5q0 36 16 62.5t42 43.5t58.5 25t65.5 8q36 0 68 -8.5t56 -24.5t38 -40.5t14 -55.5
q0 -9 -0.5 -17t-1.5 -21h-38q1 9 1.5 17t0.5 16q0 25 -11 44t-30 31.5t-44 19t-53 6.5q-23 0 -48 -5t-46.5 -17t-35.5 -31.5t-14 -48.5q0 -25 12.5 -42.5t32.5 -30.5t45.5 -22.5t51.5 -18.5q27 -9 52.5 -20t45.5 -26.5t32 -37t12 -51.5q0 -38 -16.5 -67t-43.5 -48.5t-61 -29
t-70 -9.5q-41 0 -77 8t-62.5 26t-42 47.5t-15.5 72.5v16t1 17h38zM327 730h48l-110 -140h-37z" />
    <glyph glyph-name="Scircumflex" unicode="&#x15c;" horiz-adv-x="630" 
d="M64 235q-1 -8 -1 -21v-21q0 -33 12 -64t37.5 -55t66 -38.5t97.5 -14.5q47 0 88.5 9.5t72.5 29.5t49 52.5t18 78.5q0 39 -19.5 65t-48.5 44t-63 29t-64 20q-34 10 -69 23t-63.5 33.5t-46.5 52t-18 79.5t21 84.5t56.5 61t82 36.5t96.5 12q48 0 91 -11t75.5 -33.5t51.5 -56
t19 -79.5q0 -10 -0.5 -18.5t-2.5 -22.5h-44q2 15 2.5 21.5t0.5 15.5q0 38 -16 65.5t-43 45.5t-62 26.5t-73 8.5q-36 0 -73.5 -8t-68 -26.5t-50 -48.5t-19.5 -73q0 -41 16.5 -66.5t44 -43t62.5 -28.5t72 -21q37 -11 72.5 -24t63 -34t44.5 -51.5t17 -75.5q0 -52 -21 -91
t-58 -65.5t-87 -40t-108 -13.5q-52 0 -98.5 13.5t-81 39t-55 63t-20.5 86.5q0 13 -0.5 25t0.5 25h45zM303 780h-44l133 140h46l88 -140h-42l-71 115z" />
    <glyph glyph-name="scircumflex" unicode="&#x15d;" horiz-adv-x="463" 
d="M36 175q0 -6 -0.5 -12t-0.5 -12q0 -72 46.5 -101t127.5 -29q21 0 45 7t45 21t34.5 34.5t13.5 47.5q0 28 -12.5 46.5t-33 32t-46.5 23t-52 18.5t-51.5 19.5t-45 26t-31.5 37t-12 53.5q0 36 16 62.5t42 43.5t58.5 25t65.5 8q36 0 68 -8.5t56 -24.5t38 -40.5t14 -55.5
q0 -9 -0.5 -17t-1.5 -21h-38q1 9 1.5 17t0.5 16q0 25 -11 44t-30 31.5t-44 19t-53 6.5q-23 0 -48 -5t-46.5 -17t-35.5 -31.5t-14 -48.5q0 -25 12.5 -42.5t32.5 -30.5t45.5 -22.5t51.5 -18.5q27 -9 52.5 -20t45.5 -26.5t32 -37t12 -51.5q0 -38 -16.5 -67t-43.5 -48.5t-61 -29
t-70 -9.5q-41 0 -77 8t-62.5 26t-42 47.5t-15.5 72.5v16t1 17h38zM186 590h-44l133 140h46l88 -140h-42l-71 115z" />
    <glyph glyph-name="Scedilla" unicode="&#x15e;" horiz-adv-x="630" 
d="M148 -154q20 -10 39 -16.5t42 -6.5q25 0 43 13.5t18 40.5q0 19 -15 31t-35 12q-13 0 -26.5 -4t-24.5 -9l-14 15l59 63q-30 4 -59 12q-46 13 -80.5 38.5t-55 63t-20.5 86.5q0 13 -0.5 25t0.5 25h45q-1 -8 -1 -21v-21q0 -33 12 -64t37.5 -55t66 -38.5t97.5 -14.5
q47 0 88.5 9.5t72.5 29.5t49 52.5t18 78.5q0 39 -19.5 65t-48.5 44t-63 29t-64 20q-34 10 -69 23t-63.5 33.5t-46.5 52t-18 79.5t21 84.5t56.5 61t82 36.5t96.5 12q48 0 91 -11t75.5 -33.5t51.5 -56t19 -79.5q0 -10 -0.5 -18.5t-2.5 -22.5h-44q2 15 2.5 21.5t0.5 15.5
q0 38 -16 65.5t-43 45.5t-62 26.5t-73 8.5q-36 0 -73.5 -8t-68 -26.5t-50 -48.5t-19.5 -73q0 -41 16.5 -66.5t44 -43t62.5 -28.5t72 -21q37 -11 72.5 -24t63 -34t44.5 -51.5t17 -75.5q0 -52 -21 -91t-58 -65.5t-87 -40t-108 -13.5h-17l-33 -38l2 -2q5 2 12.5 3t14.5 1
q30 0 53 -18.5t23 -52.5q0 -22 -10 -37.5t-25 -25t-33 -14.5t-34 -5q-24 0 -47 7t-45 18z" />
    <glyph glyph-name="scedilla" unicode="&#x15f;" horiz-adv-x="463" 
d="M61 -154q20 -10 39 -16.5t42 -6.5q25 0 43 13.5t18 40.5q0 19 -15 31t-35 12q-13 0 -26.5 -4t-24.5 -9l-14 15l64 69q-18 1 -35 5q-36 8 -62.5 26t-42 47.5t-15.5 72.5v16q0 8 1 17h38q0 -6 -0.5 -12t-0.5 -12q0 -72 46.5 -101t127.5 -29q21 0 45 7t45 21t34.5 34.5
t13.5 47.5q0 28 -12.5 46.5t-33 32t-46.5 23t-52 18.5t-51.5 19.5t-45 26t-31.5 37t-12 53.5q0 36 16 62.5t42 43.5t58.5 25t65.5 8q36 0 68 -8.5t56 -24.5t38 -40.5t14 -55.5q0 -9 -0.5 -17t-1.5 -21h-38q1 9 1.5 17t0.5 16q0 25 -11 44t-30 31.5t-44 19t-53 6.5
q-23 0 -48 -5t-46.5 -17t-35.5 -31.5t-14 -48.5q0 -25 12.5 -42.5t32.5 -30.5t45.5 -22.5t51.5 -18.5q27 -9 52.5 -20t45.5 -26.5t32 -37t12 -51.5q0 -38 -16.5 -67t-43.5 -48.5t-61 -29t-70 -9.5q-10 0 -19 1l-38 -44l2 -2q5 2 12.5 3t14.5 1q30 0 53 -18.5t23 -52.5
q0 -22 -10 -37.5t-25 -25t-33 -14.5t-34 -5q-24 0 -47 7t-45 18z" />
    <glyph glyph-name="Scaron" unicode="&#x160;" horiz-adv-x="630" 
d="M64 235q-1 -8 -1 -21v-21q0 -33 12 -64t37.5 -55t66 -38.5t97.5 -14.5q47 0 88.5 9.5t72.5 29.5t49 52.5t18 78.5q0 39 -19.5 65t-48.5 44t-63 29t-64 20q-34 10 -69 23t-63.5 33.5t-46.5 52t-18 79.5t21 84.5t56.5 61t82 36.5t96.5 12q48 0 91 -11t75.5 -33.5t51.5 -56
t19 -79.5q0 -10 -0.5 -18.5t-2.5 -22.5h-44q2 15 2.5 21.5t0.5 15.5q0 38 -16 65.5t-43 45.5t-62 26.5t-73 8.5q-36 0 -73.5 -8t-68 -26.5t-50 -48.5t-19.5 -73q0 -41 16.5 -66.5t44 -43t62.5 -28.5t72 -21q37 -11 72.5 -24t63 -34t44.5 -51.5t17 -75.5q0 -52 -21 -91
t-58 -65.5t-87 -40t-108 -13.5q-52 0 -98.5 13.5t-81 39t-55 63t-20.5 86.5q0 13 -0.5 25t0.5 25h45zM409 780h-46l-88 140h42l71 -115l110 115h44z" />
    <glyph glyph-name="scaron" unicode="&#x161;" horiz-adv-x="463" 
d="M36 175q0 -6 -0.5 -12t-0.5 -12q0 -72 46.5 -101t127.5 -29q21 0 45 7t45 21t34.5 34.5t13.5 47.5q0 28 -12.5 46.5t-33 32t-46.5 23t-52 18.5t-51.5 19.5t-45 26t-31.5 37t-12 53.5q0 36 16 62.5t42 43.5t58.5 25t65.5 8q36 0 68 -8.5t56 -24.5t38 -40.5t14 -55.5
q0 -9 -0.5 -17t-1.5 -21h-38q1 9 1.5 17t0.5 16q0 25 -11 44t-30 31.5t-44 19t-53 6.5q-23 0 -48 -5t-46.5 -17t-35.5 -31.5t-14 -48.5q0 -25 12.5 -42.5t32.5 -30.5t45.5 -22.5t51.5 -18.5q27 -9 52.5 -20t45.5 -26.5t32 -37t12 -51.5q0 -38 -16.5 -67t-43.5 -48.5t-61 -29
t-70 -9.5q-41 0 -77 8t-62.5 26t-42 47.5t-15.5 72.5v16t1 17h38zM288 590h-46l-88 140h42l71 -115l110 115h44z" />
    <glyph glyph-name="Tcommaaccent" unicode="&#x162;" horiz-adv-x="519" 
d="M54 676l9 38h548l-8 -38h-248l-143 -676h-44l143 676h-257zM122 -176q14 3 23.5 10.5t14.5 22.5h-25l19 93h57l-17 -80q-6 -31 -25.5 -47.5t-50.5 -18.5z" />
    <glyph glyph-name="tcommaaccent" unicode="&#x163;" horiz-adv-x="259" 
d="M27 514h95l35 161h38l-35 -161h110l-8 -33h-108l-78 -358q-1 -3 -2 -9t-2.5 -13.5t-2.5 -14.5t-1 -10q0 -22 13.5 -32.5t44.5 -10.5q28 0 57 3l-7 -33q-10 0 -27 -1.5t-35 -1.5q-45 0 -64.5 20t-19.5 57q0 10 3 24t5 25l78 355h-97zM19 -176q14 3 23.5 10.5t14.5 22.5
h-25l19 93h57l-17 -80q-6 -31 -25.5 -47.5t-50.5 -18.5z" />
    <glyph glyph-name="Tcaron" unicode="&#x164;" horiz-adv-x="519" 
d="M54 676l9 38h548l-8 -38h-248l-143 -676h-44l143 676h-257zM373 780h-46l-88 140h42l71 -115l110 115h44z" />
    <glyph glyph-name="tcaron" unicode="&#x165;" horiz-adv-x="297" 
d="M355 714h52l-107 -140h-31zM27 514h95l35 161h38l-35 -161h110l-8 -33h-108l-78 -358q-1 -3 -2 -9t-2.5 -13.5t-2.5 -14.5t-1 -10q0 -22 13.5 -32.5t44.5 -10.5q28 0 57 3l-7 -33q-10 0 -27 -1.5t-35 -1.5q-45 0 -64.5 20t-19.5 57q0 10 3 24t5 25l78 355h-97z" />
    <glyph glyph-name="Tbar" unicode="&#x166;" horiz-adv-x="519" 
d="M54 676l9 38h548l-8 -38h-248l-41 -192h180l-6 -33h-181l-95 -451h-44l95 451h-173l6 33h174l41 192h-257z" />
    <glyph glyph-name="tbar" unicode="&#x167;" horiz-adv-x="259" 
d="M27 514h95l35 161h38l-35 -161h110l-8 -33h-108l-30 -135h121l-6 -33h-122l-41 -190q-1 -3 -2 -9t-2.5 -13.5t-2.5 -14.5t-1 -10q0 -22 13.5 -32.5t44.5 -10.5q28 0 57 3l-7 -33q-10 0 -27 -1.5t-35 -1.5q-45 0 -64.5 20t-19.5 57q0 10 3 24t5 25l41 187h-104l6 33h105
l30 135h-97z" />
    <glyph glyph-name="Utilde" unicode="&#x168;" horiz-adv-x="667" 
d="M584 245q-15 -66 -38.5 -115t-60 -82t-87.5 -49t-121 -16q-49 0 -93 12.5t-77 38t-52 65t-19 93.5q0 22 4.5 50t9.5 50l90 422h44l-90 -422q-6 -30 -10 -52.5t-4 -54.5q0 -44 17.5 -75t46 -50.5t65.5 -29t75 -9.5q60 0 103 16.5t73.5 46t49.5 71t30 91.5l100 468h44z
M572 887q-3 -16 -10 -32t-17.5 -28.5t-24.5 -20t-32 -7.5t-36 9t-35 20t-32 19.5t-28 8.5q-20 0 -33.5 -18.5t-17.5 -36.5h-29q3 15 9.5 31t17 28.5t24.5 20.5t31 8q19 0 35.5 -8.5t33.5 -19.5q16 -11 32 -20t33 -9q9 0 17 5.5t14.5 14t11 18t7.5 17.5h29z" />
    <glyph glyph-name="utilde" unicode="&#x169;" horiz-adv-x="519" 
d="M378 0h-38l24 108l-2 2q-17 -29 -36 -51.5t-43 -38.5t-53.5 -24t-68.5 -8q-29 0 -55.5 9.5t-46.5 28t-32 45t-12 59.5q0 9 1.5 23t4 29t5 28.5t4.5 22.5l63 281h38l-63 -280q-2 -7 -4.5 -20t-4.5 -27.5t-4 -29.5t-2 -26q0 -49 31.5 -79.5t89.5 -30.5q46 0 83.5 23
t66 59.5t47 81t27.5 87.5l51 242h38zM461 697q-3 -16 -10 -32t-17.5 -28.5t-24.5 -20t-32 -7.5t-36 9t-35 20t-32 19.5t-28 8.5q-20 0 -33.5 -18.5t-17.5 -36.5h-29q3 15 9.5 31t17 28.5t24.5 20.5t31 8q19 0 35.5 -8.5t33.5 -19.5q16 -11 32 -20t33 -9q9 0 17 5.5t14.5 14
t11 18t7.5 17.5h29z" />
    <glyph glyph-name="Umacron" unicode="&#x16a;" horiz-adv-x="667" 
d="M584 245q-15 -66 -38.5 -115t-60 -82t-87.5 -49t-121 -16q-49 0 -93 12.5t-77 38t-52 65t-19 93.5q0 22 4.5 50t9.5 50l90 422h44l-90 -422q-6 -30 -10 -52.5t-4 -54.5q0 -44 17.5 -75t46 -50.5t65.5 -29t75 -9.5q60 0 103 16.5t73.5 46t49.5 71t30 91.5l100 468h44z
M304 828l6 33h240l-6 -33h-240z" />
    <glyph glyph-name="umacron" unicode="&#x16b;" horiz-adv-x="519" 
d="M378 0h-38l24 108l-2 2q-17 -29 -36 -51.5t-43 -38.5t-53.5 -24t-68.5 -8q-29 0 -55.5 9.5t-46.5 28t-32 45t-12 59.5q0 9 1.5 23t4 29t5 28.5t4.5 22.5l63 281h38l-63 -280q-2 -7 -4.5 -20t-4.5 -27.5t-4 -29.5t-2 -26q0 -49 31.5 -79.5t89.5 -30.5q46 0 83.5 23
t66 59.5t47 81t27.5 87.5l51 242h38zM183 638l6 33h240l-6 -33h-240z" />
    <glyph glyph-name="Ubreve" unicode="&#x16c;" horiz-adv-x="667" 
d="M584 245q-15 -66 -38.5 -115t-60 -82t-87.5 -49t-121 -16q-49 0 -93 12.5t-77 38t-52 65t-19 93.5q0 22 4.5 50t9.5 50l90 422h44l-90 -422q-6 -30 -10 -52.5t-4 -54.5q0 -44 17.5 -75t46 -50.5t65.5 -29t75 -9.5q60 0 103 16.5t73.5 46t49.5 71t30 91.5l100 468h44z
M325 910q1 -38 24.5 -62.5t62.5 -24.5q40 0 72 24.5t39 62.5h33q-5 -26 -18 -48t-32.5 -38t-43.5 -25t-50 -9q-57 0 -87.5 32t-32.5 88h33z" />
    <glyph glyph-name="ubreve" unicode="&#x16d;" horiz-adv-x="519" 
d="M378 0h-38l24 108l-2 2q-17 -29 -36 -51.5t-43 -38.5t-53.5 -24t-68.5 -8q-29 0 -55.5 9.5t-46.5 28t-32 45t-12 59.5q0 9 1.5 23t4 29t5 28.5t4.5 22.5l63 281h38l-63 -280q-2 -7 -4.5 -20t-4.5 -27.5t-4 -29.5t-2 -26q0 -49 31.5 -79.5t89.5 -30.5q46 0 83.5 23
t66 59.5t47 81t27.5 87.5l51 242h38zM211 720q1 -38 24.5 -62.5t62.5 -24.5q40 0 72 24.5t39 62.5h33q-5 -26 -18 -48t-32.5 -38t-43.5 -25t-50 -9q-57 0 -87.5 32t-32.5 88h33z" />
    <glyph glyph-name="Uring" unicode="&#x16e;" horiz-adv-x="667" 
d="M584 245q-15 -66 -38.5 -115t-60 -82t-87.5 -49t-121 -16q-49 0 -93 12.5t-77 38t-52 65t-19 93.5q0 22 4.5 50t9.5 50l90 422h44l-90 -422q-6 -30 -10 -52.5t-4 -54.5q0 -44 17.5 -75t46 -50.5t65.5 -29t75 -9.5q60 0 103 16.5t73.5 46t49.5 71t30 91.5l100 468h44z
M347 850q0 -30 21 -51t51 -21t51 21t21 51t-21 51t-51 21t-51 -21t-21 -51zM320 850q0 42 28.5 70.5t70.5 28.5t70.5 -28.5t28.5 -70.5t-28.5 -70.5t-70.5 -28.5t-70.5 28.5t-28.5 70.5z" />
    <glyph glyph-name="uring" unicode="&#x16f;" horiz-adv-x="519" 
d="M378 0h-38l24 108l-2 2q-17 -29 -36 -51.5t-43 -38.5t-53.5 -24t-68.5 -8q-29 0 -55.5 9.5t-46.5 28t-32 45t-12 59.5q0 9 1.5 23t4 29t5 28.5t4.5 22.5l63 281h38l-63 -280q-2 -7 -4.5 -20t-4.5 -27.5t-4 -29.5t-2 -26q0 -49 31.5 -79.5t89.5 -30.5q46 0 83.5 23
t66 59.5t47 81t27.5 87.5l51 242h38zM230 670q0 -30 21 -51t51 -21t51 21t21 51t-21 51t-51 21t-51 -21t-21 -51zM203 670q0 42 28.5 70.5t70.5 28.5t70.5 -28.5t28.5 -70.5t-28.5 -70.5t-70.5 -28.5t-70.5 28.5t-28.5 70.5z" />
    <glyph glyph-name="Uhungarumlaut" unicode="&#x170;" horiz-adv-x="667" 
d="M584 245q-15 -66 -38.5 -115t-60 -82t-87.5 -49t-121 -16q-49 0 -93 12.5t-77 38t-52 65t-19 93.5q0 22 4.5 50t9.5 50l90 422h44l-90 -422q-6 -30 -10 -52.5t-4 -54.5q0 -44 17.5 -75t46 -50.5t65.5 -29t75 -9.5q60 0 103 16.5t73.5 46t49.5 71t30 91.5l100 468h44z
M569 920h48l-110 -140h-37zM421 920h48l-110 -140h-37z" />
    <glyph glyph-name="uhungarumlaut" unicode="&#x171;" horiz-adv-x="519" 
d="M378 0h-38l24 108l-2 2q-17 -29 -36 -51.5t-43 -38.5t-53.5 -24t-68.5 -8q-29 0 -55.5 9.5t-46.5 28t-32 45t-12 59.5q0 9 1.5 23t4 29t5 28.5t4.5 22.5l63 281h38l-63 -280q-2 -7 -4.5 -20t-4.5 -27.5t-4 -29.5t-2 -26q0 -49 31.5 -79.5t89.5 -30.5q46 0 83.5 23
t66 59.5t47 81t27.5 87.5l51 242h38zM448 730h48l-110 -140h-37zM300 730h48l-110 -140h-37z" />
    <glyph glyph-name="Uogonek" unicode="&#x172;" horiz-adv-x="667" 
d="M584 245q-15 -66 -38.5 -115t-60 -82t-87.5 -49q-48 -15 -113 -16q-41 -30 -67 -58q-32 -37 -32 -66q0 -15 10 -23.5t28 -8.5q22 0 41 10t43 36l12 -14q-6 -10 -17 -21.5t-24 -21t-29.5 -16t-33.5 -6.5q-15 0 -26 3t-21 10t-16 19t-6 31q1 23 16 45t35 40.5t42 34.5
q6 3 10 7q-34 3 -66 12q-44 12 -77 37.5t-52 65t-19 93.5q0 22 4.5 50t9.5 50l90 422h44l-90 -422q-6 -30 -10 -52.5t-4 -54.5q0 -44 17.5 -75t46 -50.5t65.5 -29t75 -9.5q60 0 103 16.5t73.5 46t49.5 71t30 91.5l100 468h44z" />
    <glyph glyph-name="uogonek" unicode="&#x173;" horiz-adv-x="519" 
d="M372 0q-56 -39 -87 -75.5t-31 -65.5q0 -15 9.5 -23.5t26.5 -8.5q21 0 39 10t41 36l11 -14q-5 -10 -15.5 -21.5t-23 -21t-28 -16t-31.5 -6.5q-15 0 -25.5 3t-20 10t-15 19t-5.5 31q1 23 15 45t33 40.5t40.5 34t34.5 23.5l24 108l-2 2q-17 -29 -36 -51.5t-43 -38.5
t-53.5 -24t-68.5 -8q-29 0 -55.5 9.5t-46.5 28t-32 45t-12 59.5q0 9 1.5 23t4 29t5 28.5t4.5 22.5l63 281h38l-63 -280q-2 -7 -4.5 -20t-4.5 -27.5t-4 -29.5t-2 -26q0 -49 31.5 -79.5t89.5 -30.5q46 0 83.5 23t66 59.5t47 81t27.5 87.5l51 242h38l-109 -514h-6z" />
    <glyph glyph-name="Wcircumflex" unicode="&#x174;" horiz-adv-x="907" 
d="M78 714h44l47 -664h2l330 664h55l52 -664h2l324 664h45l-354 -714h-49l-54 670h-2l-334 -670h-49zM445 780h-44l133 140h46l88 -140h-42l-71 115z" />
    <glyph glyph-name="wcircumflex" unicode="&#x175;" horiz-adv-x="704" 
d="M27 514h38l51 -470h2l238 470h51l47 -470h2l242 470h44l-274 -514h-46l-46 466h-2l-241 -466h-47zM298 590h-44l133 140h46l88 -140h-42l-71 115z" />
    <glyph glyph-name="Ycircumflex" unicode="&#x176;" horiz-adv-x="556" 
d="M255 300l-191 414h44l174 -378l322 378h55l-362 -421l-63 -293h-44zM275 780h-44l133 140h46l88 -140h-42l-71 115z" />
    <glyph glyph-name="ycircumflex" unicode="&#x177;" horiz-adv-x="426" 
d="M-59 -148q19 -3 36 -3q37 0 59 21t40 50l50 80l-101 514h44l86 -463l262 463h45l-349 -604q-13 -23 -26 -40.5t-29 -29.5t-36 -18t-48 -6q-12 0 -22.5 1t-18.5 2zM171 590h-44l133 140h46l88 -140h-42l-71 115z" />
    <glyph glyph-name="Ydieresis" unicode="&#x178;" horiz-adv-x="556" 
d="M255 300l-191 414h44l174 -378l322 378h55l-362 -421l-63 -293h-44zM284 896h44l-19 -103h-44zM443 896h44l-19 -103h-44z" />
    <glyph glyph-name="Zacute" unicode="&#x179;" horiz-adv-x="537" 
d="M541 676h-454l9 38h502l-8 -38l-594 -638h489l-7 -38h-541l8 38zM413 920h48l-110 -140h-37z" />
    <glyph glyph-name="zacute" unicode="&#x17a;" horiz-adv-x="426" 
d="M-44 38l430 438h-328l9 38h381l-10 -38l-433 -438h349l-8 -38h-397zM331 730h48l-110 -140h-37z" />
    <glyph glyph-name="Zdotaccent" unicode="&#x17b;" horiz-adv-x="537" 
d="M541 676h-454l9 38h502l-8 -38l-594 -638h489l-7 -38h-541l8 38zM337 896h44l-19 -103h-44z" />
    <glyph glyph-name="zdotaccent" unicode="&#x17c;" horiz-adv-x="426" 
d="M-44 38l430 438h-328l9 38h381l-10 -38l-433 -438h349l-8 -38h-397zM257 706h44l-19 -103h-44z" />
    <glyph glyph-name="Zcaron" unicode="&#x17d;" horiz-adv-x="537" 
d="M541 676h-454l9 38h502l-8 -38l-594 -638h489l-7 -38h-541l8 38zM365 780h-46l-88 140h42l71 -115l110 115h44z" />
    <glyph glyph-name="zcaron" unicode="&#x17e;" horiz-adv-x="426" 
d="M-44 38l430 438h-328l9 38h381l-10 -38l-433 -438h349l-8 -38h-397zM280 590h-46l-88 140h42l71 -115l110 115h44z" />
    <glyph glyph-name="florin" unicode="&#x192;" horiz-adv-x="556" 
d="M150 429h107l22 92q10 44 22.5 82t33 66.5t51 45t77.5 16.5q13 0 25 -2t25 -4l-10 -37q-11 2 -20.5 3.5t-20.5 1.5q-34 0 -56.5 -11t-37.5 -33t-25 -54t-20 -74l-22 -92h119l-9 -33h-118l-102 -383q-11 -41 -23.5 -76.5t-31.5 -62.5t-47.5 -42.5t-71.5 -15.5
q-16 0 -27.5 2t-19.5 4l10 38q19 -6 37 -6q33 0 55 14.5t36 38t23 51.5t16 55l102 383h-108z" />
    <glyph glyph-name="Scommaaccent" unicode="&#x218;" horiz-adv-x="630" 
d="M64 235q-1 -8 -1 -21v-21q0 -33 12 -64t37.5 -55t66 -38.5t97.5 -14.5q47 0 88.5 9.5t72.5 29.5t49 52.5t18 78.5q0 39 -19.5 65t-48.5 44t-63 29t-64 20q-34 10 -69 23t-63.5 33.5t-46.5 52t-18 79.5t21 84.5t56.5 61t82 36.5t96.5 12q48 0 91 -11t75.5 -33.5t51.5 -56
t19 -79.5q0 -10 -0.5 -18.5t-2.5 -22.5h-44q2 15 2.5 21.5t0.5 15.5q0 38 -16 65.5t-43 45.5t-62 26.5t-73 8.5q-36 0 -73.5 -8t-68 -26.5t-50 -48.5t-19.5 -73q0 -41 16.5 -66.5t44 -43t62.5 -28.5t72 -21q37 -11 72.5 -24t63 -34t44.5 -51.5t17 -75.5q0 -52 -21 -91
t-58 -65.5t-87 -40t-108 -13.5q-52 0 -98.5 13.5t-81 39t-55 63t-20.5 86.5q0 13 -0.5 25t0.5 25h45zM198 -176q14 3 23.5 10.5t14.5 22.5h-25l19 93h57l-17 -80q-6 -31 -25.5 -47.5t-50.5 -18.5z" />
    <glyph glyph-name="scommaaccent" unicode="&#x219;" horiz-adv-x="463" 
d="M36 175q0 -6 -0.5 -12t-0.5 -12q0 -72 46.5 -101t127.5 -29q21 0 45 7t45 21t34.5 34.5t13.5 47.5q0 28 -12.5 46.5t-33 32t-46.5 23t-52 18.5t-51.5 19.5t-45 26t-31.5 37t-12 53.5q0 36 16 62.5t42 43.5t58.5 25t65.5 8q36 0 68 -8.5t56 -24.5t38 -40.5t14 -55.5
q0 -9 -0.5 -17t-1.5 -21h-38q1 9 1.5 17t0.5 16q0 25 -11 44t-30 31.5t-44 19t-53 6.5q-23 0 -48 -5t-46.5 -17t-35.5 -31.5t-14 -48.5q0 -25 12.5 -42.5t32.5 -30.5t45.5 -22.5t51.5 -18.5q27 -9 52.5 -20t45.5 -26.5t32 -37t12 -51.5q0 -38 -16.5 -67t-43.5 -48.5t-61 -29
t-70 -9.5q-41 0 -77 8t-62.5 26t-42 47.5t-15.5 72.5v16t1 17h38zM112 -176q14 3 23.5 10.5t14.5 22.5h-25l19 93h57l-17 -80q-6 -31 -25.5 -47.5t-50.5 -18.5z" />
    <glyph glyph-name="uni021A" unicode="&#x21a;" horiz-adv-x="519" 
d="M54 676l9 38h548l-8 -38h-248l-143 -676h-44l143 676h-257zM122 -176q14 3 23.5 10.5t14.5 22.5h-25l19 93h57l-17 -80q-6 -31 -25.5 -47.5t-50.5 -18.5z" />
    <glyph glyph-name="uni021B" unicode="&#x21b;" horiz-adv-x="259" 
d="M27 514h95l35 161h38l-35 -161h110l-8 -33h-108l-78 -358q-1 -3 -2 -9t-2.5 -13.5t-2.5 -14.5t-1 -10q0 -22 13.5 -32.5t44.5 -10.5q28 0 57 3l-7 -33q-10 0 -27 -1.5t-35 -1.5q-45 0 -64.5 20t-19.5 57q0 10 3 24t5 25l78 355h-97zM19 -176q14 3 23.5 10.5t14.5 22.5
h-25l19 93h57l-17 -80q-6 -31 -25.5 -47.5t-50.5 -18.5z" />
    <glyph glyph-name="circumflex" unicode="&#x2c6;" 
d="M64 590h-44l133 140h46l88 -140h-42l-71 115z" />
    <glyph glyph-name="caron" unicode="&#x2c7;" 
d="M184 590h-46l-88 140h42l71 -115l110 115h44z" />
    <glyph glyph-name="uni02C9" unicode="&#x2c9;" 
d="M41 638l6 33h240l-6 -33h-240z" />
    <glyph glyph-name="breve" unicode="&#x2d8;" 
d="M80 720q1 -38 24.5 -62.5t62.5 -24.5q40 0 72 24.5t39 62.5h33q-5 -26 -18 -48t-32.5 -38t-43.5 -25t-50 -9q-57 0 -87.5 32t-32.5 88h33z" />
    <glyph glyph-name="dotaccent" unicode="&#x2d9;" 
d="M139 706h44l-19 -103h-44z" />
    <glyph glyph-name="ring" unicode="&#x2da;" 
d="M79 670q0 -30 21 -51t51 -21t51 21t21 51t-21 51t-51 21t-51 -21t-21 -51zM52 670q0 42 28.5 70.5t70.5 28.5t70.5 -28.5t28.5 -70.5t-28.5 -70.5t-70.5 -28.5t-70.5 28.5t-28.5 70.5z" />
    <glyph glyph-name="ogonek" unicode="&#x2db;" 
d="M162 0q-59 -39 -91.5 -75.5t-32.5 -65.5q0 -15 10 -23.5t28 -8.5q22 0 41 10t43 36l12 -14q-6 -10 -17 -21.5t-24 -21t-29.5 -16t-33.5 -6.5q-15 0 -26 3t-21 10t-16 19t-6 31q1 23 16 45t35 40.5t42.5 34t35.5 23.5h34z" />
    <glyph glyph-name="tilde" unicode="&#x2dc;" 
d="M314 697q-3 -16 -10 -32t-17.5 -28.5t-24.5 -20t-32 -7.5t-36 9t-35 20t-32 19.5t-28 8.5q-20 0 -33.5 -18.5t-17.5 -36.5h-29q3 15 9.5 31t17 28.5t24.5 20.5t31 8q19 0 35.5 -8.5t33.5 -19.5q16 -11 32 -20t33 -9q9 0 17 5.5t14.5 14t11 18t7.5 17.5h29z" />
    <glyph glyph-name="hungarumlaut" unicode="&#x2dd;" 
d="M259 730h48l-110 -140h-37zM111 730h48l-110 -140h-37z" />
    <glyph glyph-name="uni0394" unicode="&#x394;" horiz-adv-x="639" 
d="M387 662l-385 -627h504zM-59 0l438 712h35l139 -712h-612z" />
    <glyph glyph-name="uni03A9" unicode="&#x3a9;" horiz-adv-x="731" 
d="M683 459q0 -62 -17.5 -115.5t-51 -95.5t-81.5 -70.5t-109 -39.5l-23 -107h200l-7 -31h-232l35 165q58 8 104 33t78.5 63t49.5 88t17 109q0 52 -17 94.5t-48 72.5t-73.5 46.5t-94.5 16.5q-69 0 -127.5 -28t-101 -75t-66.5 -108.5t-24 -128.5q0 -71 38 -120.5t109 -62.5
l-35 -165h-219l7 31h185l24 110q-73 22 -109 79.5t-36 131.5t27.5 141t75.5 117.5t113 80.5t140 30q58 0 107.5 -18.5t85.5 -53t56 -83t20 -107.5z" />
    <glyph glyph-name="uni03BC" unicode="&#x3bc;" horiz-adv-x="519" 
d="M378 0h-38l24 108l-2 2q-17 -29 -36 -51.5t-43 -38.5t-53.5 -24t-68.5 -8q-58 2 -87.5 23t-40.5 44h-2l-53 -239h-38l154 698h38l-63 -280q-2 -7 -4.5 -20t-4.5 -27.5t-4 -29.5t-2 -26q0 -49 31.5 -79.5t88.5 -30.5q46 0 83.5 23t66 59.5t47 81t27.5 87.5l51 242h38z" />
    <glyph glyph-name="pi" unicode="&#x3c0;" horiz-adv-x="556" 
d="M541 432h-78l-70 -331q-2 -12 -5 -25t-3 -26t8.5 -18.5t19.5 -5.5q12 0 24.5 5t23.5 10l-6 -31q-14 -7 -27.5 -11t-28.5 -4q-21 0 -36 11t-15 34q0 14 2.5 29t5.5 29l71 334h-278l-92 -432h-36l92 432h-75l6 32h504z" />
    <glyph glyph-name="endash" unicode="&#x2013;" horiz-adv-x="500" 
d="M-12 253l8 38h500l-8 -38h-500z" />
    <glyph glyph-name="emdash" unicode="&#x2014;" horiz-adv-x="1000" 
d="M858 253h-740l8 38h740z" />
    <glyph glyph-name="quoteleft" unicode="&#x2018;" horiz-adv-x="204" 
d="M125 588q4 20 11 40t18 37t28 30t42 19l-7 -33q-15 -5 -25 -14.5t-17 -22.5t-11 -27.5t-7 -28.5h18l-23 -103h-50z" />
    <glyph glyph-name="quoteright" unicode="&#x2019;" horiz-adv-x="204" 
d="M186 611q-5 -20 -11.5 -40t-18 -37t-28 -30t-41.5 -19l7 33q15 4 25 14t17 23t11 27.5t7 28.5h-18l23 103h50z" />
    <glyph glyph-name="quotesinglbase" unicode="&#x201a;" horiz-adv-x="204" 
d="M79 103l-22 -103q-4 -20 -11 -40t-18.5 -37t-28.5 -30t-42 -19l7 33q15 4 25 14t17 23t11 27.5t7 28.5h-17l22 103h50z" />
    <glyph glyph-name="quotedblleft" unicode="&#x201c;" horiz-adv-x="315" 
d="M213 485l23 103q4 20 11 40t18 37t28 30t42 19l-7 -33q-15 -5 -25 -14.5t-17 -22.5t-11 -27.5t-7 -28.5h18l-23 -103h-50zM87 485l23 103q4 20 11 40t18 37t28 30t42 19l-7 -33q-15 -5 -25 -14.5t-17 -22.5t-11 -27.5t-7 -28.5h18l-23 -103h-50z" />
    <glyph glyph-name="quotedblright" unicode="&#x201d;" horiz-adv-x="315" 
d="M335 714l-22 -103q-4 -20 -11 -40t-18.5 -37t-28.5 -30t-42 -19l7 33q15 4 25 14t17 23t11 27.5t7 28.5h-17l22 103h50zM209 714l-22 -103q-4 -20 -11 -40t-18.5 -37t-28.5 -30t-42 -19l7 33q15 4 25 14t17 23t11 27.5t7 28.5h-17l22 103h50z" />
    <glyph glyph-name="quotedblbase" unicode="&#x201e;" horiz-adv-x="315" 
d="M197 103l-22 -103q-4 -20 -11 -40t-18.5 -37t-28.5 -30t-42 -19l7 33q15 4 25 14t17 23t11 27.5t7 28.5h-17l22 103h50zM71 103l-22 -103q-4 -20 -11 -40t-18.5 -37t-28.5 -30t-42 -19l7 33q15 4 25 14t17 23t11 27.5t7 28.5h-17l22 103h50z" />
    <glyph glyph-name="dagger" unicode="&#x2020;" horiz-adv-x="556" 
d="M333 514h205l-7 -33h-205l-133 -627h-38l133 627h-205l7 33h205l43 200h38z" />
    <glyph glyph-name="daggerdbl" unicode="&#x2021;" horiz-adv-x="556" 
d="M-8 54l7 33h205l84 394h-205l7 33h205l43 200h38l-43 -200h205l-7 -33h-205l-84 -394h205l-7 -33h-205l-42 -200h-38l42 200h-205z" />
    <glyph glyph-name="bullet" unicode="&#x2022;" horiz-adv-x="500" 
d="M72 357q0 37 14 69.5t38 56.5t56.5 38t69.5 14t69.5 -14t57 -38t38.5 -56.5t14 -69.5t-14 -69.5t-38.5 -57t-57 -38.5t-69.5 -14t-69.5 14t-56.5 38.5t-38 57t-14 69.5z" />
    <glyph glyph-name="ellipsis" unicode="&#x2026;" horiz-adv-x="1000" 
d="M763 103h50l-23 -103h-50zM430 103h50l-23 -103h-50zM97 103h50l-23 -103h-50z" />
    <glyph glyph-name="perthousand" unicode="&#x2030;" horiz-adv-x="1056" 
d="M829 21q33 0 58 15.5t42 40t25.5 54.5t8.5 59q0 21 -5.5 39.5t-16.5 32.5t-28.5 22.5t-42.5 8.5q-33 0 -58 -14t-42.5 -37t-26 -53t-8.5 -63q0 -46 22 -75.5t72 -29.5zM827 -12q-60 0 -95 35t-35 95q0 39 12 76.5t35 67t56 47t76 17.5q61 0 93 -38.5t32 -96.5
q0 -37 -12 -73.5t-34.5 -65t-55 -46.5t-72.5 -18zM474 21q33 0 58 15.5t42 40t25.5 54.5t8.5 59q0 21 -5.5 39.5t-16.5 32.5t-28.5 22.5t-42.5 8.5q-33 0 -58 -14t-42.5 -37t-26 -53t-8.5 -63q0 -46 22 -75.5t72 -29.5zM472 -12q-60 0 -95 35t-35 95q0 39 12 76.5t35 67
t56 47t76 17.5q61 0 93 -38.5t32 -96.5q0 -37 -12 -73.5t-34.5 -65t-55 -46.5t-72.5 -18zM185 364q-60 0 -95 35t-35 95q0 39 12 76.5t35 67t56 47t76 17.5q61 0 93 -38.5t32 -96.5q0 -37 -12 -73.5t-34.5 -65t-55 -46.5t-72.5 -18zM589 724h41l-532 -758h-41zM187 397
q33 0 58 15.5t42 40t25.5 54.5t8.5 59q0 21 -5.5 39.5t-16.5 32.5t-28.5 22.5t-42.5 8.5q-33 0 -58 -14t-42.5 -37t-26 -53t-8.5 -63q0 -46 22 -75.5t72 -29.5z" />
    <glyph glyph-name="guilsinglleft" unicode="&#x2039;" horiz-adv-x="259" 
d="M186 372l-113 -105l70 -97l-11 -49l-91 132l9 38l147 132z" />
    <glyph glyph-name="guilsinglright" unicode="&#x203a;" horiz-adv-x="259" 
d="M42 172l113 105l-70 97l11 49l91 -132l-9 -38l-147 -132z" />
    <glyph glyph-name="fraction" unicode="&#x2044;" 
d="M296 714h40l-465 -738h-40z" />
    <glyph glyph-name="Euro" unicode="&#x20ac;" horiz-adv-x="556" 
d="M564 573q-6 16 -19 34.5t-40 35.5q-29 17 -57.5 21.5t-54.5 4.5q-16 0 -35.5 -2t-40.5 -8t-43.5 -17t-44.5 -30q-23 -20 -40.5 -44.5t-31 -49.5t-22.5 -48t-14 -40h360l-19 -33h-350q-13 -46 -17 -96h315l-19 -33h-299q-1 -12 -1 -31q0 -18 2.5 -40t8 -45t16.5 -44
q16 -30 36.5 -47.5t42.5 -26t42 -11t34 -2.5q119 0 197 78l-8 -49q-30 -26 -76 -42q-29 -10 -60.5 -15t-60.5 -5q-21 0 -45 3.5t-48.5 14t-47 29.5t-39.5 51q-12 23 -19 48t-10 49t-3 46t1 39h-74l19 33h58q2 26 6.5 49.5t10.5 46.5h-71l19 33h61q5 17 15 44t26 57.5
t39 60.5t53 53q47 35 94.5 46t84.5 11q26 0 59.5 -5t65.5 -22q16 -9 34 -24t32 -40z" />
    <glyph glyph-name="afii61289" unicode="&#x2113;" horiz-adv-x="500" 
d="M442 632q0 -46 -21.5 -94t-55.5 -94t-76 -88.5t-82 -77.5q-14 -60 -21.5 -96t-11.5 -57t-4.5 -30t-0.5 -15q0 -18 5.5 -30t14 -19t19 -10t19.5 -3q23 0 45.5 10t54.5 33h2l12 -25q-33 -26 -61.5 -38t-60.5 -12q-38 0 -64.5 21t-26.5 66q0 7 1 16t4.5 28t10 50t17.5 82
l-73 -67h-2l-15 25l98 83l58 273q18 84 55 121t81 37q35 0 57 -24.5t22 -64.5zM407 629q0 26 -14 43.5t-34 17.5q-14 0 -27 -5.5t-24.5 -19.5t-22 -37.5t-17.5 -58.5l-53 -248q27 26 60.5 62t63 77.5t49 85t19.5 83.5z" />
    <glyph glyph-name="trademark" unicode="&#x2122;" horiz-adv-x="990" 
d="M694 368l152 346h59v-412h-32v379h-3l-167 -379h-18l-167 379h-3v-379h-32v412h59zM404 681h-143v-379h-32v379h-144v33h319v-33z" />
    <glyph glyph-name="Omega" unicode="&#x2126;" horiz-adv-x="731" 
d="M683 459q0 -62 -17.5 -115.5t-51 -95.5t-81.5 -70.5t-109 -39.5l-23 -107h200l-7 -31h-232l35 165q58 8 104 33t78.5 63t49.5 88t17 109q0 52 -17 94.5t-48 72.5t-73.5 46.5t-94.5 16.5q-69 0 -127.5 -28t-101 -75t-66.5 -108.5t-24 -128.5q0 -71 38 -120.5t109 -62.5
l-35 -165h-219l7 31h185l24 110q-73 22 -109 79.5t-36 131.5t27.5 141t75.5 117.5t113 80.5t140 30q58 0 107.5 -18.5t85.5 -53t56 -83t20 -107.5z" />
    <glyph glyph-name="estimated" unicode="&#x212e;" horiz-adv-x="600" 
d="M157 259v-181q59 -59 145 -59q63 0 109 28.5t84 91.5l35 -21q-23 -36 -46.5 -61.5t-51 -42t-59.5 -24t-71 -7.5q-59 0 -106.5 21.5t-81.5 59t-52 87.5t-18 108t18 108.5t52 87.5t81.5 58.5t106.5 21.5q58 0 105.5 -20.5t81.5 -57t53 -87t19 -111.5h-404zM448 295v145
q-63 60 -147 60t-144 -60v-145h291z" />
    <glyph glyph-name="partialdiff" unicode="&#x2202;" horiz-adv-x="463" 
d="M365 284q-31 42 -73.5 73.5t-97.5 31.5q-38 0 -66 -15.5t-46.5 -41t-28 -57.5t-9.5 -66q0 -32 9.5 -65.5t28 -61.5t46 -45.5t64.5 -17.5q48 0 80 27.5t51.5 68t29 86.5t12.5 83zM405 369q0 -34 -3 -75.5t-11.5 -84t-23.5 -82.5t-39 -71t-57.5 -49.5t-79.5 -18.5
q-44 0 -78 20t-57.5 51.5t-35.5 71t-12 79.5q0 42 12 80t35.5 67t58 46.5t79.5 17.5q54 0 99 -27t77 -70q0 15 0.5 30.5t0.5 30.5q0 30 -3.5 63.5t-12 67.5t-22.5 65t-35 55t-50 38t-66 14q-35 0 -61.5 -12.5t-53.5 -32.5l-20 26q30 24 62.5 38t71.5 14q45 0 79.5 -16
t59.5 -43.5t41.5 -63.5t26.5 -75t14 -79t4 -75z" />
    <glyph glyph-name="Delta" unicode="&#x2206;" horiz-adv-x="639" 
d="M387 662l-385 -627h504zM-59 0l438 712h35l139 -712h-612z" />
    <glyph glyph-name="product" unicode="&#x220f;" horiz-adv-x="704" 
d="M585 -214v965h-466v-965h-36v1000h538v-1000h-36z" />
    <glyph glyph-name="summation" unicode="&#x2211;" horiz-adv-x="593" 
d="M26 -214v32l338 471l-323 464v33h497v-35h-452l322 -462l-338 -468h479v-35h-523z" />
    <glyph glyph-name="minus" unicode="&#x2212;" horiz-adv-x="600" 
d="M48 233v38h504v-38h-504z" />
    <glyph glyph-name="uni2215" unicode="&#x2215;" 
d="M296 714h40l-465 -738h-40z" />
    <glyph glyph-name="uni2219" unicode="&#x2219;" horiz-adv-x="278" 
d="M77 317q0 21 16.5 37.5t37.5 16.5t38 -16t17 -38t-16.5 -38.5t-38.5 -16.5t-38 17t-16 38z" />
    <glyph glyph-name="radical" unicode="&#x221a;" horiz-adv-x="463" 
d="M236 -217h-32l-178 366l-44 -21l-13 27l73 36l173 -359l202 950h34z" />
    <glyph glyph-name="infinity" unicode="&#x221e;" horiz-adv-x="722" 
d="M309 243q-17 14 -36.5 31.5t-41.5 32.5t-45.5 25.5t-46.5 10.5q-42 0 -65 -29.5t-23 -68.5q0 -43 24 -70.5t69 -27.5q24 0 46.5 9t43.5 23.5t40 31.5t35 32zM613 245q0 42 -24.5 70t-67.5 28q-22 0 -45 -10.5t-45 -25.5t-41.5 -32.5t-35.5 -31.5q17 -15 36 -32t40 -31.5
t43.5 -24t46.5 -9.5q45 0 69 27.5t24 71.5zM646 246q0 -57 -33.5 -95t-92.5 -38q-29 0 -54.5 10.5t-48.5 26t-44 35t-41 37.5q-21 -18 -42 -37t-43.5 -34.5t-47.5 -26t-55 -10.5q-29 0 -52 10t-39.5 27t-25.5 41t-9 52q0 27 9 51t25 42t38.5 28.5t50.5 10.5t54 -11t50 -27.5
t45.5 -36t41.5 -36.5q19 17 40.5 36.5t45.5 36t49.5 27.5t52.5 11q57 0 91.5 -37t34.5 -93z" />
    <glyph glyph-name="integral" unicode="&#x222b;" horiz-adv-x="534" 
d="M374 750q0 -12 -8 -19t-19 -7t-17 5t-10 10.5t-7 10.5t-9 5q-13 0 -20.5 -14t-12.5 -35.5t-7 -47t-2.5 -49.5t0 -43t0.5 -26v-476q0 -18 0.5 -45.5t-0.5 -58.5t-6 -62t-16.5 -55.5t-30.5 -40t-49 -15.5q-16 0 -28.5 9t-12.5 26q0 10 8 17t18 7q7 0 12 -4t9.5 -9t9 -9
t9.5 -4q11 0 18.5 13.5t12 34t6.5 45.5t3 47.5t1 39.5v24v491q0 18 -1 45.5t0.5 57.5t6 60t15.5 54t29.5 39t48.5 15q17 0 33 -8t16 -28z" />
    <glyph glyph-name="approxequal" unicode="&#x2248;" horiz-adv-x="593" 
d="M518 220q-5 -22 -14 -43t-23.5 -37t-34 -26t-44.5 -10q-31 0 -68.5 12t-76 26t-74.5 26t-63 12q-18 0 -32.5 -7t-26 -18.5t-19.5 -26.5t-11 -31h-28q5 22 14 43t23 37t33.5 26t45.5 10q31 0 68.5 -12t76 -26t74 -26t63.5 -12q36 0 59 25.5t31 57.5h27v0zM518 383
q-5 -22 -14 -43t-23.5 -37t-34 -25.5t-44.5 -9.5q-32 0 -69.5 12t-75.5 26t-73.5 26t-63.5 12q-35 0 -58.5 -26t-30.5 -58h-28q5 22 14 43t23 37t33.5 26t45.5 10q31 0 68 -11.5t74.5 -26t73.5 -26t66 -11.5q36 0 59 25t31 57h27v0z" />
    <glyph glyph-name="notequal" unicode="&#x2260;" horiz-adv-x="593" 
d="M225 133l-75 -141l-29 15l67 126h-166v33h184l80 150h-264v33h282l76 143l29 -15l-68 -128h170v-33h-188l-80 -150h268v-33h-286z" />
    <glyph glyph-name="lessequal" unicode="&#x2264;" horiz-adv-x="593" 
d="M22 -14v33h489v-33h-489zM22 260v36l489 200v-37l-445 -181l445 -180v-37z" />
    <glyph glyph-name="greaterequal" unicode="&#x2265;" horiz-adv-x="593" 
d="M22 -14v33h489v-33h-489zM22 61v37l446 180l-446 181v37l489 -200v-36z" />
    <glyph glyph-name="lozenge" unicode="&#x25ca;" horiz-adv-x="593" 
d="M296 702l-148 -346l148 -346l148 346zM311 -35h-30l-169 391l169 391h30l170 -391z" />
    <glyph glyph-name="uniF8FF" unicode="&#xf8ff;" horiz-adv-x="512" 
d="M222 117v67h56v-67h-56zM225 234l-2 17q0 55 13 81t46 59q32 31 41 47.5t9 35.5q0 36 -22.5 60.5t-53.5 24.5t-53.5 -22t-28.5 -73l-50 8q7 71 44 104t91 33q53 0 88.5 -36t35.5 -95q0 -32 -12.5 -58.5t-50.5 -61.5q-37 -33 -43 -52t-6 -72h-46zM462 50v617h-412v-617
h412zM512 718v-718h-512v718h512z" />
    <glyph glyph-name="commaaccenttwo" horiz-adv-x="278" 
d="M187 747q-14 -3 -23.5 -10.5t-14.5 -22.5h25l-19 -93h-57l16 80q7 31 26.5 47.5t50.5 18.5z" />
    <glyph glyph-name="commaaccent" horiz-adv-x="278" 
d="M20 -176q14 3 23.5 10.5t14.5 22.5h-25l19 93h57l-17 -80q-6 -31 -25.5 -47.5t-50.5 -18.5z" />
    <glyph glyph-name="dotlessj" 
d="M100 514h38l-115 -555q-4 -18 -8.5 -42.5t-16.5 -47t-35 -38t-65 -15.5q-22 0 -41 3l7 34q10 -2 19.5 -3t20.5 -1q22 0 36 9.5t22.5 25.5t13.5 36.5t10 41.5z" />
    <glyph glyph-name="carontwo" 
d="M193 714h52l-107 -140h-31z" />
    <glyph glyph-name="grave.cap" 
d="M127 920l99 -140h-37l-110 140h48z" />
    <glyph glyph-name="acute.cap" 
d="M187 920h48l-110 -140h-37z" />
    <glyph glyph-name="circumflex.cap" 
d="M64 780h-44l133 140h46l88 -140h-42l-71 115z" />
    <glyph glyph-name="caron.cap" 
d="M184 780h-46l-88 140h42l71 -115l110 115h44z" />
    <glyph glyph-name="caron.alt" 
d="M193 714h52l-107 -140h-31z" />
    <glyph glyph-name="tilde.cap" 
d="M314 887q-6 -33 -27.5 -60.5t-56.5 -27.5q-18 0 -36 9t-35 19.5t-32 19.5t-28 9q-20 0 -33.5 -18.5t-17.5 -36.5h-29q3 15 9.5 31t17 28.5t24.5 20.5t31 8q19 0 35.5 -8.5t33.5 -19.5q16 -11 32 -20t33 -9q9 0 17 5.5t14.5 14t11 18t7.5 17.5h29z" />
    <glyph glyph-name="dieresis.cap" 
d="M77 896h44l-19 -103h-44zM236 896h44l-19 -103h-44z" />
    <glyph glyph-name="macron.cap" 
d="M41 828l6 33h240l-6 -33h-240z" />
    <glyph glyph-name="breve.cap" 
d="M80 910q1 -38 24.5 -62.5t62.5 -24.5q40 0 72 24.5t39 62.5h33q-5 -26 -18 -48t-32.5 -38t-43.5 -25t-50 -9q-57 0 -87.5 31.5t-32.5 88.5h33z" />
    <glyph glyph-name="ring.cap" 
d="M79 850q0 -30 21 -51t51 -21t51 21t21 51t-21 51t-51 21t-51 -21t-21 -51zM52 850q0 42 28.5 70.5t70.5 28.5t70.5 -28.5t28.5 -70.5t-28.5 -70.5t-70.5 -28.5t-70.5 28.5t-28.5 70.5z" />
    <glyph glyph-name="hungarumlaut.cap" 
d="M259 920h48l-110 -140h-37zM111 920h48l-110 -140h-37z" />
    <glyph glyph-name="dotaccent.cap" 
d="M139 896h44l-19 -103h-44z" />
    <glyph glyph-name="commaaccent.alt" horiz-adv-x="278" 
d="M187 747q-14 -3 -23.5 -10.5t-14.5 -22.5h25l-19 -93h-57l16 80q13 61 77 66z" />
    </font>
</defs>
</svg>
